<?xml version="1.0" standalone="no"?>
<!DOCTYPE svg PUBLIC "-//W3C//DTD SVG 1.1//EN" "http://www.w3.org/Graphics/SVG/1.1/DTD/svg11.dtd" >
<svg>
<metadata>
Created by FontForge 20090622 at Thu Jun 28 11:38:10 2018
 By deploy user
Copyright &#194;&#169; 1997 International Typeface Corporation. All rights reserved.
</metadata>
<defs>
<font id="BradleyHandITCTT-Bold" horiz-adv-x="0" >
  <font-face 
    font-family="Bradley Hand"
    font-weight="700"
    font-stretch="normal"
    units-per-em="1000"
    panose-1="0 0 7 0 0 0 0 0 0 0"
    ascent="800"
    descent="-200"
    x-height="404"
    cap-height="543"
    bbox="-614.522 -399 1496 1042"
    underline-thickness="61"
    underline-position="-136"
    unicode-range="U+0020-U+FB02"
  />
<missing-glyph horiz-adv-x="500" 
d="M63 0v657h375v-657h-375zM125 63h250v532h-250v-532z" />
    <glyph glyph-name=".notdef" horiz-adv-x="500" 
d="M63 0v657h375v-657h-375zM125 63h250v532h-250v-532z" />
    <glyph glyph-name="NULL" 
 />
    <glyph glyph-name="nonmarkingreturn" horiz-adv-x="255" 
 />
    <glyph glyph-name="space" unicode=" " horiz-adv-x="255" 
 />
    <glyph glyph-name="exclam" unicode="!" horiz-adv-x="312" 
d="M198 462l-3 -3l-3 -17h-5l-3 -11h3q2 -12 4 -18l-4 -9q2 -10 2 -14q0 -3 -2 -12l-2 -9l-3 -80l6 -10l-6 -25l6 -21l-5 -10q3 -10 3 -20l5 -17l-6 -3v-5q0 -9 -2 -13v-7q-6 -27 -29 -27q-30 0 -30 39v19l-2 22l-6 20l5 11l-5 10l5 26l-10 4l6 23l-2 9v18l-2 5l2 11
q0 5 4 15l-2 3v6l-9 10l11 15l-4 11l3 10v14q-1 8 -1 10q0 4 1 9v7q-2 6 -2 8l-3 4q0 4 4 6l-3 4v12l-10 9l4 47l29 -4l16 3l37 -11l5 -14q1 -6 1 -17q0 -6 -1 -9l-3 -6l-2 -3zM218 39l-3 -14q-2 -9 -2 -12l-26 -19l-17 5l-15 -7l-14 8h-21l-12 38l8 25l15 14l4 1l10 10
q15 -2 22 -5q16 0 23 -5q-5 -3 -10 -5l22 -3l7 -13z" />
    <glyph glyph-name="quotedbl" unicode="&#x22;" horiz-adv-x="325" 
d="M276 462l-3 -4l1 -2l-3 -6l1 -3l-3 -10l2 -12l-8 -7q0 -5 -1 -10l1 -5l-4 -9v-12q1 -3 1 -8q0 -10 -6 -19l-1 -6l2 -27l-25 -15l-29 6l-10 36l3 13l-1 13l-9 21l4 14l-1 8l-4 6l2 19q-2 4 -2 12q0 5 7 11l-7 11l1 14q4 7 15 15q8 6 17 6q3 0 20 -3l22 -4l10 -11l7 -12z
M141 455q0 -4 -3 -12l2 -19l-4 -6l-1 -8l4 -14l-8 -21l-1 -13l2 -13l-9 -36l-29 -6l-26 15l3 27l-1 6q-6 9 -6 18q0 6 1 9l-1 5l1 7l-5 9l2 5l-2 10l-7 7l2 12l-4 10l2 3l-3 6v2l-3 4l2 20l6 12l11 11l21 4q16 3 21 3q14 0 31 -21l2 -14l-7 -11q7 -6 7 -11z" />
    <glyph glyph-name="numbersign" unicode="#" horiz-adv-x="630" 
d="M630 314l-8 -21l-16 -11l-17 12h-8q-8 -2 -13 -2h-5l-10 -3l-7 4q-5 -1 -15 -1q-9 0 -13 1l-40 -6l-12 4q-13 0 -21 -1l-6 -15l-10 -13l-2 -35l-11 -11l-7 -24l-8 -5q-1 -5 -5 -9q2 0 5.5 -1t5.5 -1q3 1 8 1q7 0 14 -4h9l19 2l11 -5l8 3l13 -7l-1 4q12 2 19 2q15 0 30 -3
q12 3 24 3q7 0 21 -2l17 -42l-21 -6l-14 -11l-17 12h-9q-8 -2 -11 -2q-1 0 -3 1h-4l-9 -4l-8 4h-8q-5 -1 -7 -1q-3 0 -7 1h-6l-40 -6l-12 4q-22 0 -46 -6l-6 -4l-2 -4l3 -5l-6 -9l-10 -8l-5 -18l-13 -31l-3 -21l-9 -16l-2 -28l-17 -26l-12 -37l-2 -23l-26 -41l-46 18l15 42
l-1 19l8 15l2 16l6 3l1 14l5 16l17 44q4 22 7 31l10 10l1 18l9 21l-1 9q-10 -3 -16 -9l-1 8q-26 -4 -24 -4l-15 4l-29 -9l-24 7l-2 -3l-6 -21l-11 -8l-5 -18l-13 -31l-4 -21l-7 -16l-3 -28l-17 -26l-12 -37l-2 -23l-26 -41l-46 18l15 42l-1 19l8 15l2 16l6 3l1 14l5 16
l15 38l9 37l9 10l2 18l9 21l-14 6l-4 -1l-17 -4l-16 6l-23 -4l-15 -7l-18 12l-16 11l-1 17q-2 4 -2 20q14 9 24 9l20 6l20 3l21 -4l18 2l31 -4l21 3l4 7l1 7l-2 3l1 5h3v15q2 6 8 22l4 2l-1 20l11 4v4q0 8 5 16q-5 -1 -18 -5l-17 6l-20 -5l-16 5l-23 -2l-15 -7l-19 12l-16 9
l-1 17q-2 6 -2 11q0 1 1 5v5q15 9 24 9l19 6l20 3l22 -5l17 2l31 -4l24 4l17 -2l5 22l22 45l1 37l19 9l4 31l16 27q5 5 43 29l36 -32l-16 -43l-21 -45l-9 -16l-8 -27l-18 -39l5 -1h6q3 0 23 -2q8 3 19 3q9 0 14 -1l3 -3l43 4q0 8 2 24l22 45l1 37l18 9l5 31l16 27
q13 12 43 29l36 -32l-16 -43l-21 -45l-9 -16l-8 -27l-18 -40l6 -3h8l19 1l12 -4l8 2l12 -6v3q7 2 23 2t25 -2q9 3 15 3q18 0 31 -2zM362 286q-20 4 -29 4q-14 0 -32 -5l-14 3l-30 -8l-2 -5l-10 -13l-2 -35l-11 -11l-7 -24l-8 -5l-3 -8l7 -4l11 3h11q19 0 31 -4q6 3 17 3h7
q5 -1 8 -1l4 -2l16 1l9 13v17l2 -5v5q0 17 8 35l4 2l-1 20l11 4q0 14 3 20z" />
    <glyph glyph-name="dollar" unicode="$" horiz-adv-x="672" 
d="M630 158l-6 -13l-13 -5l1 -15q-41 -28 -69 -28h-6q-15 -9 -25 -9h-14l-26 -15l-7 5l-13 -5q-19 0 -27 -7q7 -58 7 -56q0 -6 -2.5 -19.5t-2.5 -19.5q0 -8 10 -15l-7 -30l1 -6l-5 -10l5 -11l-3 -13l3 -13l-5 -11l4 -6l2 -20v-21l-6 -4l10 -51l-16 -12l-16 13q-3 3 -5 3
t-4 -3q0 -5 -4 93l-4 29l3 26q2 4 2 5v1q-1 1 -1 2q0 9 1 14h-8l3 26l-5 28l7 22l-6 8v7q-1 4 -1 6q0 3 1 7v6l-4 19l-2 1l-11 -6q-2 2 -3 2q-4 0 -10 -3l-17 -7q-5 -2 -12 -2q-6 0 -9 1l-12 -4q1 -4 1 -11q0 -10 -5 -18l5 -18l-8 -42l4 -18l-4 -11l7 -11l-6 -31l6 -28
l-6 -15l1 -2l5 -6l4 -20l-1 -11l6 -12q0 -6 1 -12v-6q0 -15 -14 -15q-10 0 -18 8t-8 19.5t-4 20.5l-7 16l-1 24l1 20v26l-5 15l-3 33l5 13q-2 4 -2 7l-2 33l4 16l-5 21v8q-6 -2 -10 -2q-7 0 -14 4l-8 -4l-26 4l-14 -4l-21 -3l-40 5l-21 -2l-5 4q-10 0 -19 1l-18 -7l-11 13
h-17l-16 9q-6 2 -18 9q-31 5 -31 37q0 27 27 31l19 3l3 9l48 -5l16 3q26 0 26 -21q0 -8 -15 -19h7q15 0 23 -6l48 -7q14 4 23 4q13 7 28 7h39l-2 11l4 41l-5 56q3 4 8 10l-1 3l-13 -1l-11 4l-31 -7l-7 10l-31 10l-8 7l-23 6l-9 11l-16 12l-2 27l-6 24l7 27l13 17l20 4l-6 5
l18 15l19 5l31 12l20 2l21 7h10l2 8l-2 6q3 15 7 44l-9 20l11 19l-2 9v28l-5 24l1 16q3 4 13 9q-1 6 -1 15q0 30 31 30q9 0 23 -18l12 -20l-7 -10l-18 -11q7 -7 7 -48l-4 -11l3 -3l-3 -18l6 -10l-2 -25l-6 -7l2 -17l-5 -15l5 -1l10 10l25 -3l14 5l16 -2l-2 10l4 16l-4 29
l4 15v18l1 21l11 35l-6 11v11l2 16l-3 24l10 7l21 -3l14 -13h14l-4 -18l5 -13l2 -27l-8 -12l1 -16l-5 -6l9 -23q-5 -3 -13 -9l13 -34l-18 -17q3 -4 3 -6q-1 -4 -4 -6l35 7l43 5l20 -9h11l27 -6q8 -5 8 -12q28 -8 28 -28q0 -7 -5 -15l1 6l-9 -14l-12 -6q-18 -9 -30 -9
q-4 0 -22 4q-3 3 -9 10l-10 -5l-9 14l-17 -2l-14 1l-9 -8l-18 9l-1 -2q-2 -18 -2 -29q0 -12 1 -18q0 -18 -4 -37l7 -17l-7 -20l-1 -12l1 -4l4 -2l3 1q5 1 22 5l15 -17q1 4 5 10q1 0 2 1h1q5 0 8 -8l25 4l3 -8h10l11 -7l14 3l14 -11l30 -4l4 -13l21 -25zM386 350l-4 25l2 9
h-17l-14 -3l-18 -7l-18 3l-4 -2l2 -17l-8 -34l8 -48l-2 -6l15 -1l22 -3l8 -2l8 2l17 -8v8l1 25l-1 21zM547 166l-18 7h-18l-12 13h-27l-5 6l-17 -2l-19 8l4 -36q-10 -3 -10 -7q0 -1 1.5 -3.5t1.5 -4.5l1 -10l1 -3q15 3 13 3q2 1 21 4l7 -1q14 13 35 13h5zM261 356v2h-6
q-18 -8 -29 -8l-8 -7l-6 -5q-7 -4 -21 -11l-10 -6l-15 -17l4 -1l-6 -3l28 -2l5 -4q16 -4 25 -11l21 -5l15 4l-1 31l2 2l-4 7zM384 191l-1 11l-21 -2l-3 3l-21 -1q-3 0 -21 4l-7 4l-7 -29l4 -23l-5 -30l-2 -14l1 -11l15 5l20 -1l13 7l9 2l18 1l5 2v3l-4 3l2 17l-4 18l8 13z
" />
    <glyph glyph-name="percent" unicode="%" horiz-adv-x="710" 
d="M624 141q0 -12 -5 -21q3 -9 3 -17q0 -5 -7 -16v-2q0 -19 -23 -44l-8 -15q-10 -3 -12 -8q-8 -17 -25 -23l-7 -7l-21 -11l-21 -15q-15 -11 -32 -11l-7 2l-20 -5l-39 4l-42 27l-12 43v22l-5 18l4 8l-2 12q12 31 24 73l11 5v2q0 2 1 5.5t1 4.5v1q1 4 11 28q19 35 31 40v22
l28 3l21 12h31l26 -8l31 -2l7 -17q2 -1 7 -2q15 -7 26 -26l24 -41l-1 -28q2 -4 2 -13zM625 642l-10 -21q-4 -8 -9 -25l-24 -7l-29 -23l-26 -16l-12 -17q-8 -18 -22 -26l-7 -25h-11l-2 -5l-7 -5l-2 -6l-15 -19v-5q0 -11 -11 -22l-10 -10l4 -11l-17 -11v-10l-18 -22v-11
l-31 -33l-2 -13l-21 -30l-13 -33l-24 -38l-4 4l2 -19l-12 -11l-2 -14q-20 -36 -28 -64l-5 -3l-2 -9l-19 -45v-16l-13 -13l1 -9l-20 -42v-17l-7 -10l-2 -7l-4 -7l2 -10q-5 -14 -6 -23q8 -13 8 -28l-4 -12l3 -12l-4 -4l13 -27l-1 -9q5 -10 8 -19l15 -12l5 -10l27 -11l5 1
l14 -10l3 1l1 3l3 -1l9 4q12 -6 23 -6h8q5 1 9 1q2 -1 7 -1q9 0 16 6l32 6q8 -5 12 -6v-5l26 -13l-3 -16l-31 -19h-33l-7 -2l-23 -2q-25 -7 -42 -7l-64 15l-22 13l-29 14l-3 16l-18 17l-2 10l-9 7l-8 26l-8 11l2 43l-4 22l4 8l-4 6l11 63q12 17 12 38q0 -4 15 37l23 47v4
q-1 3 -1 4q0 10 7 24h2q1 -1 2 -1q6 0 6 14q0 11 -1 19l11 12l-2 7l19 29l12 25l4 2l18 33l16 36q6 6 12 10t6 5v1l10 34l8 11l1 12l21 22l10 34l7 7l5 3q6 2 14 21q11 26 26 44l-2 2l13 28l-3 -2l2 4l-14 8l-9 -3q-12 -9 -23 -9q-8 0 -11 1q-15 -5 -30 -5l-23 4l16 -12
l-3 -11q7 -12 7 -21q0 -5 -1 -8q4 -7 4 -17q0 -18 -12 -51l-22 -16l-15 -20l-9 -3l-7 -16l-34 -9l-10 -11l-94 -8l-26 8l-33 25l-9 14l-19 20l3 17q-5 17 -5 26q4 12 11 26l2 3v15q1 -1 4 -1q5 0 6 3q0 2 -6 8q8 23 8 39q1 4 3 19h2q0 -1 1 -1t3 1t3 1l1 -1q15 11 19 17
q2 1 11 17q7 12 13 16l3 3q17 38 52 38q14 0 69 -26q5 -12 7 -20v2l13 6l32 -6h35l22 -6l25 5l23 3q34 17 44 17q0 -2 1 -3q3 0 8 14l21 -4q6 2 13 6q4 6 10 11l-4 5q6 6 29 20t37 29q11 14 28 14q13 0 30 -11zM253 458l-5 19l-7 -8q-3 8 -14 18q-4 16 -11 19q-9 0 -25 11
q-16 -3 -27 -3q-9 0 -17 4q-1 -5 -1 -13l-12 -5l-7 -13l-2 -17l-12 -16l-7 -12l5 -8l-12 -20l2 -10l-2 -12q9 -27 24 -27h3l36 1l15 -4q6 7 28 24h17l13 20q14 12 14 24v7l1 7zM560 150l-7 27l-9 13l-12 6q-2 3 -6 7l-14 -2l-12 4l-4 -16q-17 0 -25 9l-5 -23l-7 -5l-2 -12
l-22 -21l-4 -21l-8 -6q-2 -14 -8 -29v-5q0 -7 -3 -15q1 -21 3 -30q5 -19 18 -22q6 1 18 4q6 4 24 8l9 6l38 27q4 10 13 16q8 3 9 5v1q-1 0 -1 1q5 7 7 13l7 35v8z" />
    <glyph glyph-name="ampersand" unicode="&#x26;" horiz-adv-x="606" 
d="M572 25l-14 -11l1 -19l-6 -7l2 -7l-3 -16q3 -11 3 -20q0 -14 -7 -27q-2 -16 -7 -28h-6l8 -12l-9 -14l-7 -6q-6 -19 -37 -56l-17 -14l-12 -8l-26 -9l-19 -10l-24 4q-2 0 -5 -1h-5.5h-4.5q-3 1 -5 1l-18 -10l-6 9l-6 -2l-19 8l-8 -3l-16 8h-18l-31 6l-18 -1l-27 10l-14 11
l-19 4l-37 10q-17 11 -41 11l-8 9l-18 5l-2 4l-16 2l-4 12l-23 8l-15 15l-17 11v19l-12 30q14 2 32.5 11.5t26.5 11.5q30 0 35 -26v-3q0 -9 -16 -22h9l5 -13l20 -10l45 -14l4 -8l18 4l11 -8h18l11 -9h8l34 -12h5q24 0 46 -11l8 3q20 -1 41 -11l9 14q16 -11 26 -15l3 1l12 7
h16q10 7 25 9l5 19l13 5v3l12 16l-1 14l9 11l-4 8q15 12 15 25v2q4 9 4 16l-8 16l4 32l2 28l-2 12l-1 7l5 1l-2 2l-13 26l1 13h-2l-24 -18l-26 -1l-36 -6l-8 -8h-6q-33 0 -61 -13l-8 3l-19 -10l-6 9l-25 -6l-27 2l-7 2l-5 -3l-4 -8l-30 22l-14 -3q-17 0 -24 7q-12 5 -23 12
q-23 6 -42 31t-19 42v5l-7 10l3 10l-2 21q61 51 55 51q6 10 23 19l6 1q5 2 12 6l3 6l36 8q6 1 16 7l-5 5h-9l-30 14l-4 12q-10 13 -15 29l4 9l-6 6l-4 7v12l-2 17q10 20 19 29q3 13 19 19l6 17q58 31 75 32q11 8 29 10q9 3 34 13l35 8l7 4l46 2q7 0 15 1l-1 3h5q11 0 19 -1
l26 -14l31 -2l12 -14l20 -10l18 -21l27 -15l-5 -14l4 -16q-3 -24 -26 -31l-18 5h-27l-3 18l-20 2l-4 22l-7 8q-4 2 -10 6l-31 4l-20 -2l-18 2l-22 -3l-1 2l-3 -3l-16 2l-20 -6l-17 -1l-24 -11l-21 -14l-11 -2l-7 -9l-13 -6q-4 -13 -16 -17l-8 -8l5 -21q-2 -7 -7 -12l37 -26
l28 -5q13 0 28 -4l6 4l11 -2l11 5l11 -2l26 2q4 -2 11 -2t13 6q8 2 11 2q7 0 19 -9l11 -1l11 -9l27 -14q-18 -44 -46 -44h-38l-22 -4l-2 2q-13 0 -18 2l-36 -2q-10 -4 -20 -6l-5 -3h-19l-12 -6l-15 -3l-20 -14l-31 -6l-48 -33q-2 -22 -10 -37l7 -17l8 -6l41 -6l3 -3
q6 2 15 2t12.5 -2.5l9.5 -6.5q9 3 16 5h17l11 -7l13 7l13 -1l12 4l6 -3q19 8 32 8q2 0 18 -4q21 7 57 24l41 14l16 10l2 32l29 8l13 -5l10 5q1 0 3 1h2q9 0 22 -21l16 -35l-13 -21l7 -12l-4 -12l1 -15l-1 -8l1 -12l-7 -18z" />
    <glyph glyph-name="quotesingle" unicode="'" horiz-adv-x="216" 
d="M155 444l-5 -16l-6 -10l-1 -8l4 -14l-9 -21v-13l2 -13l-9 -36l-29 -6l-26 15l2 27v6q-6 9 -6 18q0 6 1 9l-1 5l1 7l-5 9l2 5q0 2 -2 10l-7 7l1 12l-3 10l2 3l-3 6l1 2l-4 4l2 20l6 12l11 11l21 4q16 3 21 3q16 0 37 -27l-4 -16l4 -6z" />
    <glyph glyph-name="parenleft" unicode="(" horiz-adv-x="418" 
d="M410 647q0 -20 -21 -35l-4 -5l-11 -9q-5 -14 -27 -23q-12 -1 -12 -41l-9 2q-18 -15 -27 -36q-5 -14 -12 -23v-10l-11 -17l-1 -16l-13 -23v-10l-7 -25q-10 -36 -10 -68q0 -10 1 -14l3 -13l-5 -8l4 -8l-5 -10l4 -11l-4 -25l7 -24l8 -33l9 -49l5 -8l-1 -5q11 -9 11 -20v-3
q-1 -2 -1 -3l6 -14l14 -15l10 -26q7 -7 8 -13l7 -15h19v-8q0 -35 36 -62v-17q0 -26 -36 -35l-19 -5l-24 8l-5 13l-6 5l-27 37l-18 35l-21 29l3 10l-13 26v3l-8 4q-1 18 -15 42v1q0 3 -8 41l-6 11v14q-1 -2 -3 -10l-4 62v23l-6 25l3 7q-3 9 -3 13q0 -5 6 35l-9 27l9 15l5 52
h7l3 14l7 34l9 20l13 20l5 21l9 21l15 22l11 5q16 41 54 66l3 2l3 9l17 7l11 11l9 14l27 12q31 -1 31 -23z" />
    <glyph glyph-name="parenright" unicode=")" horiz-adv-x="418" 
d="M282 211l-9 -15l-5 -52h-7l-2 -14l-8 -34l-8 -20l-14 -20l-5 -21l-9 -21l-15 -22l-10 -4q-16 -41 -55 -67l-3 -2l-2 -9l-18 -7l-10 -11l-10 -14l-27 -12q-18 1 -24 5t-6 20q0 17 20 33l4 5l12 9q4 15 26 24q13 1 13 40l8 -2q17 13 28 36q4 14 11 23v10l11 17l1 16l13 23
v10l8 25q10 47 10 71q0 8 -1 11l-4 13l5 8l-4 8l5 10l-3 11l4 25l-8 24l-17 82l-5 8l1 5q-11 9 -11 20q0 1 1 3v3l-5 14l-15 15l-10 26q-7 5 -8 13l-6 16h-20v9q0 33 -36 60v17q0 26 36 35l20 5l24 -8l4 -13l6 -4l27 -37l19 -35l20 -29l-3 -11l13 -26l1 -3l7 -4
q5 -25 15 -42v-2l8 -40l6 -11v-14q0 -5 3 10l5 -62v-23l5 -25l-3 -6q3 -9 3 -14q0 -4 -5 -36z" />
    <glyph glyph-name="asterisk" unicode="*" horiz-adv-x="553" 
d="M509 365q-12 -22 -36 -23l-9 6l-17 3l-25 11l-25 8l-1 3l-16 3l-65 34l-21 8l-11 5l-14 2q0 -8 5 -23l-4 -8q1 -4 1 -10q0 -5 -1 -8q2 -14 2 -15v-4q2 -3 4 -19v-23l5 -27q-4 -23 -26 -23q-28 0 -33 65q-3 43 -3 38v21q0 17 -2 28l-17 -12l-17 -10l-7 -9l-24 -18l-21 -21
l-10 -2l-3 -4q-29 -39 -48 -39q-22 0 -22 24q0 12 17 28l4 3l3 9l34 19q7 9 17 13q3 8 15 20h2l3 1q6 2 13 12l11 6v5l23 11v8l-10 -2q-25 -5 -55 -5l-30 -7l-15 3l-19 -5q-27 3 -27 20q0 4 4 12l12 19h21l10 3l32 -1l42 4l-24 5l-5 11l-28 12v16l-9 16l31 16l15 -3l17 -19
q2 4 6 5l22 -15l33 -25q-1 6 -1 16t1 15q-3 8 -9 19l8 20q-3 12 -3 20q0 5 4 23q0 -1 -1 6q0 -2 1 4l2 6q6 3 13 3q6 0 15 -3h17l11 -13l14 -26l-7 -22l2 -19l-4 -4v-5l-1 -8l3 -25q8 7 18 14l7 8l3 13q11 5 28 11h3q3 6 10 9q8 12 23 12q11 0 17 -5l8 -3l2 -1l10 -4v-5
q0 -13 -7 -20l-4 -4q-3 -2 -9 -7l-36 -32q7 -2 23 -4l9 2h40l4 3h23l15 5l26 -8q9 -7 9 -16q0 -13 -17 -15l-50 -6l-34 -1l-9 -4h-60l-11 -6h-23l38 -17l13 -8l12 -3l22 -14q21 -10 26.5 -12t27.5 -2l6 -10q18 -7 49 -23q13 -3 19 -10z" />
    <glyph glyph-name="plus" unicode="+" horiz-adv-x="833" 
d="M709 264h-258v-264h-69v264h-258v68h258v264h69v-264h258v-68z" />
    <glyph glyph-name="comma" unicode="," horiz-adv-x="265" 
d="M195 42l-15 -23l-14 -7l-6 -8l-15 -13l-6 -8l-18 -11l-34 -34l-18 -8q-7 -14 -19 -23l-4 -3l-7 -13l-14 -13q-17 -5 -25 -5q-3 0 -15 2q-1 4 -1 12q0 9 4 22l3 10l3 4q3 16 20 24l1 3l10 14l4 14l5 7l11 5l2 4q1 6 8 10l6 4v10l9 2q0 11 6 23l10 8q0 3 2 9q0 2 1 5v5l6 8
q14 18 37 18q16 0 37 -9l3 -4l19 -5z" />
    <glyph glyph-name="hyphen" unicode="-" horiz-adv-x="358" 
d="M331 205l-22 -16l-28 3l-13 -2l-27 -3l-34 2q-8 -2 -23 -2h-13l-24 -3l-7 2l-37 -4q-6 4 -10 4q-6 0 -14 -5l-17 3h-19l-17 22v20l13 1l10 13l25 -10l9 3q5 -1 14 -1h5l6 2v-4l10 -3l7 5l13 -2h21l46 2l2 -5l4 1l4 -3l13 4q8 -4 20 -4q8 0 17 3l16 -4h12q34 0 38 -19z
" />
    <glyph glyph-name="hyphen" unicode="&#x2010;" horiz-adv-x="358" 
d="M331 205l-22 -16l-28 3l-13 -2l-27 -3l-34 2q-8 -2 -23 -2h-13l-24 -3l-7 2l-37 -4q-6 4 -10 4q-6 0 -14 -5l-17 3h-19l-17 22v20l13 1l10 13l25 -10l9 3q5 -1 14 -1h5l6 2v-4l10 -3l7 5l13 -2h21l46 2l2 -5l4 1l4 -3l13 4q8 -4 20 -4q8 0 17 3l16 -4h12q34 0 38 -19z
" />
    <glyph glyph-name="period" unicode="." horiz-adv-x="265" 
d="M187 25l-7 -3v-7l-11 -8l-9 -12l-19 -1l-6 -1q-4 -2 -12 -2q-10 0 -21 6q-4 1 -10 4.5t-9 12.5l-8 6l-4 1v28q0 16 24 26q8 7 23 17l17 -5l3 -3l3 3l6 -4h5q12 0 17 -8l7 -13l11 -14l-2 -14z" />
    <glyph glyph-name="slash" unicode="/" horiz-adv-x="432" 
d="M435 542q0 -17 -12 -24l-5 -3q-13 -8 -40 -57l-28 -33l-5 -17l-14 -15l-12 -19q-5 -11 -18 -16q-4 -12 -5 -18q0 2 2 8l-27 -31l-15 -18l-5 -14l-20 -28l-38 -47v-29l-20 -3l-25 -29l-5 -18l-12 -4l-17 -24v-13l-20 -19l-4 -7l-15 -17l-8 -15l-5 -2l1 -5l-12 -9l1 -5
l-14 -25l-7 -6q-11 -23 -28 -23q-22 0 -28 27l10 22l23 34q1 21 19 28l4 5v-3l9 12q3 18 19 26l7 24l12 8v3l20 23l6 16l6 4q2 3 4.5 7.5t3.5 6.5l4 6v15l17 32h7q7 10 16 18q5 8 14 20l3 18l16 4l8 9v11l12 18l16 14l7 12l17 10l1 13q1 14 21 32h4q3 0 3 1q-1 1 -7 11
l27 27q4 9 10 15v8l9 16v25q9 6 14 6q3 0 4 -1l1 17l4 1l1 21l49 5l14 -9l17 -5q8 -18 8 -28z" />
    <glyph glyph-name="zero" unicode="0" horiz-adv-x="545" 
d="M512 229l-9 -9l8 -10l-21 -22l-12 -30l-19 -16l-6 -12l-10 -8l-9 -13l-10 -3v-9l-21 -7l-12 -13l-16 -7l-9 -13h-11q-10 -3 -20 -5l-16 -15l-32 -11l-22 -13l-18 -3l-13 -7l-31 -4l-11 -11l-32 5l-8 -3l-17 3l-10 -2l-16 7h-10q-13 0 -28 16q-18 8 -24 19l-4 6l-12 11
l-14 33l2 7l-6 7l6 24q-3 8 -3 15q0 11 7 18v6q0 11 -1 18l14 29l4 24l10 13l6 23l8 18q3 20 19 40l8 8l-2 4l10 16l1 22l19 6l8 12q12 2 12 17l26 26l5 -2l5 18h16l2 9h6v11h10q20 0 22 10l40 11l23 9h9l21 4l6 -3q10 4 15 4h4q21 -6 32 -29l13 -8l14 -12l17 -5l17 -29
l16 -10l7 -16q1 -3 8 -6q16 -13 16 -39l14 -15l-4 -8l3 -3q8 -59 8 -72q0 -9 -5 -17zM443 275l-3 9l1 14l-10 18l2 14l-6 7l-2 14l-6 13q-21 11 -28 31l-6 3l-11 8l-22 1l-16 20l-3 3q-12 -2 -18 -2h-6l-9 -6l-14 -3l-6 -8l-27 -14l-18 -7l-16 -12l-21 -22l-14 -9l-10 -20
l-22 -21l2 -13l-19 -16l1 -14l-15 -10q-4 -33 -20 -41q2 -4 2 -5q0 -5 -6 -10l1 -8l-5 -11l2 -18l-11 -7l11 -7l-8 -12l7 -12l-8 -11l1 -4l-3 -11q11 -15 12 -21q8 -14 16 -17l12 2q-2 0 5 1q9 0 19 -8q17 3 19 3h-1l5 -1l4 3l28 1l13 3l14 11l8 -1l10 15l16 -3l8 8l11 -3
q5 5 12 9q11 2 19 7q3 5 9 10v10q27 0 32 11l25 15q5 9 16 15t11 17q0 6 -1 9l17 7q3 5 7 11q-1 2 -1 6q0 9 12 28l-3 11z" />
    <glyph glyph-name="one" unicode="1" horiz-adv-x="525" 
d="M499 27q0 -16 -20 -25l-44 -1l-41 -8l-30 6l-14 2l5 5l-18 -8q-14 2 -22 2q-3 3 -5 13l-17 -15l-20 2q-4 0 -10 -1h-9q-10 0 -26 2l-26 -4l-2 5l-11 -2l-17 -1l-20 -10l-5 5q-7 -3 -17 -3h-7l-3 4q-7 -3 -14 -3t-15 3q-2 -1 -5.5 -2.5t-4.5 -1.5q-32 0 -40 16
q-12 3 -18 7v17q-4 8 -4 12q0 17 15 21l29 7q4 1 9 1q11 0 18 -7q3 1 10 5l18 2l20 6l30 -2q20 -6 36 -9l2 3l-10 17l2 15q-3 8 -3 13q0 6 4 10q-4 17 -4 29t11 21l-2 19q3 3 3 5t-8 8l-4 33l3 1l8 15l-7 19l12 13l4 21v5q0 11 5 20q-3 5 -3 10q0 1 1 4v4l-4 -2
q-3 -2 -15 -4l-21 -8h-4q-11 -8 -25 -8h-5q-7 -8 -19 -20l-17 9l-10 -2q-17 -3 -36 -20q-11 13 -26 16l-30 10l-11 25q14 27 31 27q8 0 20 -4l12 -10q10 9 21 9q8 9 48 14h5q9 0 18.5 7.5t14.5 8.5l-5 3l32 7l5 7l-10 10l32 15h12l4 -5q4 -1 5 -4q-2 6 -2 17q0 16 12 28
l37 9h39q28 -26 28 -41q0 -10 -11 -19l-25 -20v-3q-1 -2 -1 -3t1 -3v-3l-4 -2l-7 2l2 -29l-6 -4q-1 -4 -4 -9l-3 -3q-1 -1 -1 -3q0 -5 4 -9q-8 -15 -11.5 -35t-6.5 -25l4 -7l-11 -21l2 -13l-5 -21l4 -8l-6 -17q3 -10 3 -18q0 -4 -1 -7q3 -8 7 -23l-11 -5v-2q2 -5 2 -16
t-2 -17l11 -7q-4 -6 -7 -18l-2 3l1 -19l6 9l17 -5l29 5l1 -5l43 12l-8 -21q5 1 11 1q11 0 23 -5h3q25 5 36 5t35 -6l6 6q27 -12 27 -31z" />
    <glyph glyph-name="two" unicode="2" horiz-adv-x="622" 
d="M610 34l-5 -22l-15 -6l4 -1q-18 -13 -39 -16l-10 1q-11 -8 -22 -8q-5 0 -7 1q-2 0 -5 -1h-5.5h-3.5q-2 1 -3 1l-10 3h-14l-17 7l-10 -6l-8 4l-16 -3q-6 6 -6 11q-4 -1 -11 -1q-12 0 -20 7h-4q-6 0 -12 3l-5 -2l-3 -1q-10 7 -35 18q-14 0 -33 8h-21l-3 7l-26 -2
q-13 7 -13 8v2l-3 -6l-12 -4l-2 1q-10 -10 -27 -12h-2l-7 -9h-7q-11 0 -20 -3l-1 -8l-24 -1q-9 -9 -19 -9q-6 0 -12 3l-11 -4l-27 1l-42 16l-14 13l-6 18q-1 6 -1 14v4q1 3 1 4l3 21l-6 9q34 31 44 32l14 10l12 -2l6 4q26 4 29 4q-2 0 5 -1q15 3 26 3q13 0 17 -2l24 -9
l26 -4l32 -13q9 5 21 6l-1 3q19 10 30 12h3l6 13l25 13l16 7q2 11 10 16l1 8q14 4 17 4q4 0 5 -1l11 12v8l8 -4l4 24l22 3q5 12 20 17l12 8l4 12q1 5 3.5 10t2.5 6v1q0 12 6 17l-3 17l8 10v15l-15 23q-7 16 -48 31l-8 -1l-18 12h-18l-5 7l-6 -1l-19 5l-8 -2l-12 3l-23 -3
l-4 3l-8 -5l-9 5q-12 -1 -21 -1q-10 -6 -21 -6l-16 -9l-22 -4l-3 -4l-11 -5l-4 2q-2 -2 -9 -11h-4v-7l-14 -2v-12l-24 -7q-4 -3 -9 -8q0 -7 -12 -16l-39 -4l-18 17l-10 25v9q0 19 15 30q6 17 24 22l2 6h13l1 3l52 24l7 -1l5 3v2q24 13 51 13h6q4 -1 6 -1q23 14 47 14h9
l30 -3l27 2l28 -6q7 -1 23 -5l6 -2h-2l13 -7q16 -2 28 -7q2 -3 8 -9l8 1l13 -14l27 -10l39 -40l6 -20l16 -6l-5 -15q2 -12 2 -17v-5q-1 -4 -1 -5l6 -16l-7 -13l2 -11q-1 -12 -7.5 -22t-13.5 -19l-11 -18q-10 -16 -25 -23l-10 -22l-10 -3l-3 -5q-8 -13 -32 -20
q-14 -11 -15 -19l-18 -12q-2 2 -6 2q-2 0 -6 -1t-7 -1q-1 0 -2 1h-3l-23 -18l5 -3q-1 -2 -21 -13q-14 -6 -23 -9l36 -3l19 -9h19l4 -6l19 -1q2 -8 10 -8q3 0 9 2q2 -3 2 -9l-1 -1q0 1 11 -5l15 9l9 -5l21 -1l20 3l13 -7l25 -5l15 6h14q10 5 23 5t22 -4zM175 77l-14 6l-31 7
l-16 -3h-29l-19 -5l-15 -15l8 -9l-2 -8l18 -5l28 3l30 5l22 10z" />
    <glyph glyph-name="three" unicode="3" horiz-adv-x="603" 
d="M559 114l-16 -17l-6 -18l-21 -10v-8l-18 -3l-11 -14q-17 -6 -52 -15q-13 -9 -32 -11q-19 -10 -48 -16l-12 3l-44 -12l-22 1l-18 4q-8 -2 -14 -4l-26 -3l-16 2l-10 -3q-2 0 -13 4l-3 1q-4 -2 -11 -4q-8 0 -17 3l-9 -2q-6 0 -9 1q-2 -1 -6 -1q-7 0 -16 4l-17 -6l-11 11
l-7 -4l-12 5q-9 -6 -16 -6q-8 0 -15 10q-28 4 -28 53q0 33 30 36q11 6 25 6h7l29 3q34 -11 34 -29q0 -8 -9 -16q6 0 13 -3l19 4q13 0 23 -9q16 5 36 5h19q11 7 16 7q7 0 15 -5q10 7 20 8l19 -11l2 3q8 1 22 4h12l19 13q18 -2 21 -2q6 0 23 10h10l3 5l22 17l14 -2
q29 14 36 22q2 6 2 14q0 6 -16 9l-18 13l-21 4l-30 -6l-8 10l-8 -2l-12 11l-4 -3q-15 3 -18 3q-12 -2 -19 -4q-4 2 -11 9l-5 -2q-15 -4 -35 -6l-7 7l-23 2l-19 8l-22 -1l-22 11l-18 15l-7 22l10 23l23 7q23 12 43 16l24 9l56 10l10 7h18l9 11q3 -1 7 -4q20 19 44 19q1 1 9 5
l2 2q9 7 26 16v6q-8 12 -56 22l-25 -2q-18 4 -27 4q-11 0 -22 -3h-11l-19 -5l-17 5l-8 -9l-39 -3l-24 -8q-9 -9 -19 -9q-6 0 -16 5q-2 -7 -5 -10h-6q-14 0 -29 -24q-7 0 -10 1l-7 -17l-38 17l-10 11l4 7l-7 -1q-6 9 -6 16q0 5 1 7l6 20l6 5q8 8 20 8h3l8 10l16 -3
q13 10 28 10h5q0 6 6 12h20l9 5l16 2l14 -11l-1 9h15l14 4q8 2 34 7l12 -1q18 5 42 5h13l-4 -3h5q8 0 15 -4l11 4l21 -2q7 0 20 1h18v-8l23 -8l28 -5l13 -19l19 -14l9 -22l-5 -22v-2q-2 -6 -11 -21q-13 -22 -39 -31l-8 -10l-26 -12l-23 -4l-14 -10l-22 -6l-16 -7l-20 3
l-24 -8l25 -8h27l14 1h11q15 0 23 -7q18 -6 42 -6q3 -3 7 -6q1 0 2 1q1 0 11 -2l23 -2l15 -11h12l24 -24l6 -24l14 -14l-4 -12z" />
    <glyph glyph-name="four" unicode="4" horiz-adv-x="628" 
d="M615 241q-4 -32 -28 -42l-3 -13q-19 -16 -34 -16q-6 -8 -28 -11l-8 -4l-40 -9l-12 5l-14 2l-15 -3l-19 7v-2l-7 -8l1 -11l-2 -11l1 -7l-8 -16l5 -4l-5 -6l6 -19l-9 -10l5 -14l-6 -18q4 -5 4 -12q0 -5 -4 -9l2 -10v-5q11 -16 23 -40l-12 -10q-11 -9 -26 -9q-16 0 -31 7
l-2 24l-9 12v12l-13 11l5 9l-5 5l4 10l-4 19l-4 8l8 15l-3 11l6 26q-4 5 -4 13q0 5 3 11l2 8q2 8 2 14v6q-1 4 -1 6l-15 8q-28 0 -50 7h-25l-6 4l-19 -5l-12 9l-21 -2l-8 6h-9q-13 -3 -22 -3q-27 -10 -28 -10t-11 -5l-3 -8l-11 -2q-9 -4 -25 -4h-9q-7 -4 -16 -4q-10 0 -18 4
l-2 5l-7 2l-12 29q8 20 29 33l1 4l10 10l24 11l35 2v-5l22 16l16 -3l6 12l9 7l-2 10l26 7q5 11 14 20l2 1q7 10 12 14l4 2q5 3 6 7l10 10l7 13l11 5q7 17 11 20q3 8 12 17q-3 0 -3 2q0 4 8 12q2 2 19 12q-1 6 -1 18l18 11q12 40 31 40q4 0 21 -5l6 -12l5 -3q4 -2 4 -10v-28
l-12 -22l-3 -2l-3 -17l-12 -4l-4 -9q-1 -13 -34 -49q0 -18 -20 -28l-3 -2q-10 -13 -14 -17q-7 -11 -23 -18l-6 -4l-2 -7l-14 -8l-4 -4l5 -1l16 1l15 -6q11 -7 19 -7h3q46 -7 40 -7q6 0 13 3l15 -4l4 8v9l10 11q0 3 3 15l-3 21l8 2l-3 8q10 9 10 13q0 1 -6 15q5 6 15 12l1 33
l4 1l-1 5q6 9 10 13q-5 8 -5 17q0 5 1 8l7 11l-2 12l4 22l-1 14q10 28 39 28q21 -9 36 -34q4 -12 4 -31l-9 -11l1 -26l-3 -8l-3 -9l-7 -13l3 -18l-7 -4l-1 -9l-9 -18l2 -16l-11 -42l-20 -44l1 -4l5 -2l24 -8l13 2q2 0 6 -0.5t6 -1.5l46 16l10 7l25 6q13 16 31 16h6z" />
    <glyph glyph-name="five" unicode="5" horiz-adv-x="609" 
d="M690 484q0 -17 -31 -26l-26 -1l-27 -10l-19 4l-16 -4l-25 -5q-7 2 -12 3l-11 -3l-25 3q-22 -7 -87 -15l-31 1l-14 -5l-7 4l-36 -5l-20 5l-18 -5l-9 2l-8 -7l-9 -1l-13 -29v-18l-15 -6l-5 -10q0 -7 -5 -14l-17 -7v-8q0 -4 -13 -15q34 7 44 7q8 0 14 -2l6 2q4 2 14 2
q7 0 18 -4l18 3l61 -2l10 -4q2 0 5 1h4q10 0 18 -4l26 -1l22 -5l36 -14l16 -21l21 -12l10 -35l9 -10l-3 -18l2 -30q-8 -4 -10 -25l-9 -6q-13 -37 -34 -44l-11 -11q-8 -8 -8 -21v-4q-8 -1 -20 -4h2q-13 -18 -37 -21q-4 -2 -21 -13q-10 -8 -21 -8q-1 0 -4 1h-4l-31 -16l-30 -2
h-2q-2 1 -3 1q-8 0 -23 -10l-19 6l-16 -6l-21 3l-6 -2q-14 0 -22 8q-18 2 -20 2q-1 0 -6.5 -1t-10.5 -1h-5l-13 9q-25 5 -34 12h-18l-19 16l-37 14l-10 19l-13 15l-13 37q0 2 -1 4v4q0 7 3 14l4 5v7l-10 -12q2 1 17 21q13 8 23 8q30 0 30 -38q0 -11 -1 -22l7 -11l5 -5l18 -6
l8 -12l15 -2l18 -10h14l10 -6q16 -3 20 -6l33 -2l23 1l12 -2q21 7 24 7q2 0 14 -3q4 2 11 5h20l6 1l7 5q10 7 32 12l4 13h28q4 3 11 7q4 16 25 19l3 1q3 4 7 14l15 29l8 -2q8 10 8 15q0 4 -6 16l8 4l-1 8l1 4l-3 4v16l-1 3l-31 16l-5 4q-7 3 -9 3l-14 -2l-8 4l-11 -5l-14 10
l-7 -1l-30 4h-23l-9 3l-23 -7l-14 6l-3 1l-14 -5h-20l-36 -7l-9 4l-25 -7l-6 2l-5 -4l-9 -10l-27 -5l-24 12q-6 12 -6 17v1l3 10v29l8 6v13l21 6q10 10 14 15q10 6 10 9t-3 4q11 26 30 36l3 8l7 15l-11 7l-9 22l-22 14l24 33l54 10l5 5l22 -3q12 5 25 5q22 0 56 -3l2 2l41 2
l15 -6l75 8q33 -9 54 -9q17 0 27 7l50 2l31 3l26 2l13 5q39 -12 39 -28z" />
    <glyph glyph-name="six" unicode="6" horiz-adv-x="636" 
d="M601 199l-3 -16l-9 -17l-7 -6q-3 -11 -14 -19l-5 -6l-2 -14l-30 -12l-5 -5l-12 -3l-12 -9l-3 -1l-2 -9l-19 -2l-3 -4q-22 -13 -40 -18l-33 -16q-18 -9 -35 -10q-4 -4 -13 -11l-10 4q-14 -10 -74 -18l-23 -7l-18 -8l-18 3l-3 -4l-13 -2l-14 -6l-29 9l-8 10l-9 -3l-15 13
l-29 12l-31 35l-8 27l-6 24v9q0 6 1 12v6q0 3 -2.5 10.5t-2.5 12.5q0 12 10 21l7 18q4 1 4 3q0 4 -4 8l9 19l3 13l11 18l3 10l10 16l-1 3l22 29l6 21l3 3l3 8l15 20q23 17 24 17q-1 1 -1 3q0 3 7 15l14 4v8l17 5l14 14l5 2q49 41 70 45l7 8l19 5q10 13 29 13q12 3 22 3
q5 0 17 -2h25q35 -31 35 -49q0 -11 -11 -19q-3 -10 -45 -30l-21 13l-4 5l-11 -2h-8l-9 -4h-17l-13 -8l-13 -13l-21 -11l-15 -11q-5 -2 -19 -29h-13l-16 -18q-3 -8 -12 -14l-3 -2q-9 -6 -15 -12v-16l-8 -5q-3 -13 -18 -19q-6 -6 -10 -24l-10 -18l2 -16l-9 -23l-6 -10l1 -12
l-9 -11l-3 -11v-7l-2 -4l2 -10l1 -7l7 -8l4 -7q1 3 1 7t-1 5l2 8l9 5l8 27l14 16l41 32l9 4q10 16 33 19l6 -1l16 14l21 8l17 3l9 12l22 1l27 16l33 4q10 11 25 11h4l12 2l9 -3l52 2l7 -3l17 3l29 -16q27 -9 38 -32l13 -12v-20zM532 199v5l-2 6l-10 5l-2 7q-5 1 -14 6
q-7 0 -22 5l-3 1l-26 -6h-10q-9 -1 -17 -1l-6 3q-29 -7 -34 -12l-22 -13l-24 -4l-8 -6l-9 -1l-8 -6h-4q-14 0 -20 -14l-23 -5q-13 -16 -33 -22l-12 -18l-17 -7l-14 -20v-5q0 -12 -6 -21l-5 -3q-9 -7 -16 -10l23 -2l8 -4l7 1l18 -6l5 8q12 2 22.5 3t55.5 12q9 6 28 9l6 1
q14 8 33 10l32 11l14 4l12 9l12 4l14 10l11 4q1 1 5 6t7 8l30 16q6 10 9 14l9 6l2 3z" />
    <glyph glyph-name="seven" unicode="7" horiz-adv-x="682" 
d="M709 243l-44 -8l-35 -15l-30 4q-14 -2 -19 -2h-6l-7 -7l-36 -2l-13 5l-13 -4l-18 -1q-28 3 -51 3h-2q-2 -1 -7 -6l-5 -8l-5 -4l-5 -20l-13 -9q-8 -13 -23 -43l-11 -3q-2 -5 -8 -13l-1 -6l-14 -10l-11 -16l-5 -3l-5 -17h-9q-3 -7 -9 -11q-10 -28 -26 -32q-5 -15 -23 -28
l-14 -28l-19 -8l-7 -11h-5l-7 -6l-4 -13l-17 -7l-5 -9l-22 -10l-4 -5q-21 -26 -24 -27.5t-18 -3.5q-4 -7 -13 -9l-1 -2l-19 -18l-11 1l-6 -8l-17 -4l-23 -11l-35 -1l-34 13l2 15q2 13 16 16q10 4 32 18l14 -1l8 12q5 0 8 -5q11 17 26 17h3q12 12 24 15q9 10 26 16l2 1l5 -6
l2 19l20 13l8 20q7 10 11 10q2 -1 2 -3l6 11q11 6 26 15q4 7 11 11l12 17l12 8q7 10 9 17q15 12 19 26l12 27q3 0 14 2q6 23 26 38h5l4 4l9 24l18 13l7 21l-4 2l-7 -3l-30 3l-17 -3l-29 8q-8 4 -11 4q-7 0 -16 -9h-22l-12 7h-15l-27 28l8 6l-1 9q3 24 33 31q10 0 16 -3
q24 4 31 4q10 0 17 -7h3q17 -6 33 -6h7l27 4l62 -7v8l12 3l2 4q2 15 15 24q4 22 12 31l-3 22l18 7l4 16l9 6q5 10 7 17q-12 -3 -10 -3l-7 -11l-30 5l-23 -7l-14 -16l-22 11l-17 -6l-14 5l-19 -1l-16 -8q-18 5 -28 5h-8q-6 -1 -10 -1h-22l-36 -2l-10 7l-11 1q-9 -3 -17 -3
q-9 0 -21 5q-6 0 -16 2l-3 -1l-30 6l-12 -4h-5q-24 0 -41.5 14t-17.5 38q0 15 8 39l24 -5l19 9l12 -12q15 -1 29 -12.5t18 -11.5h2l25 6l27 -8l15 4l33 -6h55l9 -2l22 12l5 -8q8 3 15 3q3 0 11 -2l10 7l29 1l39 5l26 8h2q11 9 29 9q10 5 20 5q7 0 10 -1l-3 5q16 19 39 24
q12 5 16 5q13 0 36 -16l13 -45l-33 -18l-6 -6l-16 -12l-3 -22l-10 -8l-7 -28l-12 -6l-4 -8q-1 -7 -9 -13l-3 -3q3 -6 9 -24q-10 -2 -22 -5l-15 -35l17 3l11 -6l34 -5q1 5 10 12l25 -1l12 -3q9 3 18 3q5 0 9 -1q14 2 20 2v-7l15 12l53 -5z" />
    <glyph glyph-name="eight" unicode="8" horiz-adv-x="565" 
d="M552 413l-5 -6l3 -13q-15 -27 -27 -36q-7 -10 -18 -21t-22 -18l-33 -21l-19 -19l-28 -10l-53 -29l-12 -13l-10 -2q-2 -2 -8 -7v-10l-10 -2l20 -13l48 -37l36 -21v-9l4 -4l13 -9l9 -17q18 -16 18 -39l-3 -19q-3 -22 -19.5 -36t-35.5 -14q-10 -6 -32 -12q-21 1 -34 3
q-10 -4 -28 -8l-4 4l-22 4l-18 -6l-15 5l-9 -2l-32 2l-10 5q-21 1 -61 6l-15 14l-15 3l-14 -4l-6 15l-14 2v17l-8 8q-8 8 -8 17q0 7 6 16q1 2 1 8q14 20 14 33l7 5l2 12l14 7q8 9 11 11l2 2q4 2 16 7l-7 -2l15 14q4 8 14 11q10 10 24 12.5t17 7.5l-20 8l-14 12q-14 5 -26 22
l-9 1l-3 10h-4l-9 16l-11 8l-18 38l-8 10q-16 12 -16 25q0 8 13 14l8 20l-3 -2q1 8 7 19l8 7l2 11l20 23q6 10 15 15q2 2 23 20l22 6l35 27l20 2l23 8l15 6l-6 -1l4 1q36 9 57 9l17 2l26 -3q6 -3 14 -3q5 0 8 1l57 -9q12 -3 20 -10l17 -2l7 -11q21 -4 33 -22l14 -20l17 -19
l-3 -10zM484 419q-12 12 -16 21l-22 23q-20 4 -21 4q-6 0 -12 -3l-35 14h-2l5 -4l-5 -13l6 -11q-5 -33 -41 -33q-9 0 -23 8l-7 11l-8 -2l-8 8l-7 -1l-14 -11l-8 4q-9 1 -17.5 4t-9.5 3q-11 -14 -52 -20q-8 -12 -25 -14q-5 -9 -12 -13l-7 -19l-8 -4l-3 -8l12 -13l13 -43
l16 -7l2 -11l8 -8l4 -7l14 -4l16 -13l18 -4l13 -6l36 17l15 18l22 4q11 11 17 13q6 10 21 13l16 5l19 18l9 1v4l13 7q6 9 17 12l2 7h11q8 18 14 22l6 9q13 15 18 22zM391 60q0 11 -15 27l-17 8l-13 17l-31 16l-20 20l-33 15l-10 9q-14 -1 -26 -9q-4 -1 -22 -19l2 1l-42 -20
l7 -12l-29 -15q-5 -19 -21 -23q7 -3 9.5 -11t3.5 -9l5 -4l19 -8h23l8 -6l18 4l21 -5l15 1l19 -3l29 3l14 -1l20 1l20 -7l18 10q1 -1 5 -1q8 0 22 14q1 2 1 7z" />
    <glyph glyph-name="nine" unicode="9" horiz-adv-x="545" 
d="M466 225l-3 -27l-1 -4q0 -17 -9 -28l-3 -8l4 -11q-12 -13 -12 -29q0 -4 2 -14l-10 -3l-9 -28v-23h-6l-12 -10l-5 -18l-11 -8l-1 -15l-9 -6l4 -8l-24 -22l-12 -25h-3v-3l-11 -8q-12 -14 -23 -20l-34 -47l-22 -13l-48 -38l-13 -5l-8 -10l-15 -4l-10 -11l-42 -19l-10 -1
q-19 -10 -32 -12l-9 -9l-28 -2q-21 -9 -41 -9l-13 -12l-31 1q-20 -9 -40 -9h-5q-4 1 -5 1l-2 -1q-3 -1 -10 -1l-21 -4l-14 4l-18 -1l-13 3l-19 1l-18 10l-14 -2l-44 26l-11 19q-4 7 -4 16q0 22 22 22q15 0 27 -16l14 -1l10 -8l14 2l22 -10q18 0 37 -8q19 0 40 3q27 7 48 7h7
q17 9 61 14q5 2 15 8q12 3 32 9v-3l8 9q25 3 40 24l20 2l40 30q15 3 21 16l13 9q9 6 20 9l10 17q13 11 18 26l21 24l9 4l8 13l10 11q4 6 5 9t5 14q20 20 20 44l20 22l-5 19l17 7l13 42q4 13 4 14v8l8 47l3 7l-4 29l4 10l-4 14v20l-4 12l-6 -15l-17 -14l-4 -18l-20 -8l-13 -8
l-24 -11l-7 -12l-35 -9l-3 -7l-26 -5l-38 -9l-51 -3l-20 3h-5q-25 0 -43 14l-1 10q-8 5 -21 14q-8 13 -8 30q0 9 3 19l-5 16l7 26v15l8 15l2 24l12 13l6 17l13 8l3 16l12 4q6 13 17 24q1 1 6.5 5t12.5 11l17 20h12q10 17 29 20l2 6l33 6l2 1q6 6 14 16l18 -5l31 2l3 3l19 6
l20 -6l37 -37l20 -39l20 -25l4 -15l14 -11l-4 -14l4 -7l2 -12l11 -13q-1 -4 -3 -9.5t-2 -7.5q13 -9 13 -27l3 -20l-2 -7l1 -14l4 -10l-2 -11zM350 375l-4 18l2 15q-13 12 -16 27l-33 15q-6 12 -6 18l-1 3q-33 -10 -39 -12q-12 -3 -19 -16l-22 -3l-15 -14l-9 -4l-19 -29
l-9 -2l-8 -13l-10 -8l2 -10l-18 -17l-3 -12l-6 -6l6 -6l-9 -33l3 -10l-2 -13v-3l4 -5q22 -4 25 -4q9 4 47 5q10 4 33 6l4 3l17 6l8 14h9l9 10h15q5 5 17 11q8 19 21 20l15 15l4 15z" />
    <glyph glyph-name="colon" unicode=":" horiz-adv-x="265" 
d="M196 325q-5 -40 -24 -55q-1 -1 -23 -21l-41 1l-11 8l-16 4l-5 12l-8 13l-2 26l9 17l12 20h3l13 16l15 -7q9 5 23 5l24 -4l10 -18zM199 49l-15 -32l-16 -7q-14 -14 -36 -14h-9l-18 3q-13 8 -24 15.5t-11 17.5v2l2 28l4 4l-1 5q11 25 19 28l5 3l3 3q9 6 24 8l12 -3l23 -3
l13 -14l14 -6v-9l7 -12l-2 -13zM134 -5h-3l-5 1z" />
    <glyph glyph-name="semicolon" unicode=";" horiz-adv-x="265" 
d="M211 322v1l-5 -10v-13q0 -21 -28 -37l-22 -15l-17 2l-17 -6l-11 9l-16 -1l-4 16q-20 8 -20 26v5l6 7l-2 11l-1 30l13 12l11 3l13 16l24 -9l8 6l2 5l5 -2q8 2 11 2h3l5 -14q28 -20 42 -44zM195 57l-15 -25l-14 -7l-6 -10l-15 -13l-6 -10l-18 -11l-34 -37l-18 -9
q-7 -18 -18 -25l-5 -3l-7 -15l-14 -14q-16 -4 -25 -4q-10 0 -15 1v14q0 10 3 22l3 12l2 4q4 18 21 27l1 2l11 27l2 -5l6 17l11 5l2 4q3 11 14 16v11l9 2q0 13 6 26l10 8q0 3 2 11q0 2 1 5v4q15 30 43 30q13 0 37 -11l3 -4l19 -4z" />
    <glyph glyph-name="less" unicode="&#x3c;" horiz-adv-x="833" 
d="M704 31l-575 236v63l575 236v-75l-473 -193l473 -192v-75z" />
    <glyph glyph-name="equal" unicode="=" horiz-adv-x="833" 
d="M709 361h-585v68h585v-68zM709 167h-585v68h585v-68z" />
    <glyph glyph-name="greater" unicode="&#x3e;" horiz-adv-x="833" 
d="M704 267l-575 -236v75l474 192l-474 193v75l575 -236v-63z" />
    <glyph glyph-name="question" unicode="?" horiz-adv-x="392" 
d="M344 421l-7 -23q0 -4 -2 -13l3 -21q-20 -15 -35 -30l-4 -5l-11 -18h-8l-13 -9l-2 -8l-10 -5v-9l-23 -5l-9 -17h-2v-2l-7 -4l1 -3l-25 -19l-5 -12l-10 -17l4 -19l-2 -4l9 -7l10 -1q19 -9 19 -28v-31l-46 6l-24 15l-10 12q-10 6 -15 18l-14 3v20l4 10l-11 14l6 16l1 12
l16 16q1 5 9 10q3 3 5 7q1 9 11 20h3l6 11l7 2q8 13 21 16l-1 -3l10 11h-1q0 -1 -1 -1q0 1 -1 2q0 2 5 10l12 9l4 4l20 9v8l14 7l2 15q8 1 18 4l-2 12l-4 13l3 8l-6 10l-2 -1l-18 11l-3 8l-10 9l-4 6h-8l-3 2l-6 -2l-14 2l-2 -3q-15 0 -19 1h-5q-16 -2 -25 -4l-2 -1
q-2 1 -9 10q-4 -11 -14 -11q-35 -11 -46 -11q-24 0 -33 29q25 25 51 28l7 -6l4 14l6 2l14 14h12l9 5l21 6l15 -6q8 2 13 2h5q3 -1 4 -1l12 4q7 -10 14 -10q1 0 3 1h2l13 -4l5 2l3 -3h14q8 -3 12 -12l15 -15l17 -22l15 -22l10 -9l2 -15zM219 25q0 -17 -15 -25l-14 -4l-27 -6
l-36 14l-18 13l7 20l-4 37l11 8l2 12l34 -9l3 2l18 -7l27 -24l12 -27v-4z" />
    <glyph glyph-name="at" unicode="@" horiz-adv-x="685" 
d="M666 317q0 -14 -5 -27l-4 -10l2 -17l-12 -11q-8 -7 -12 -23l-7 -29l-19 -18q-4 -17 -25 -37q-27 -25 -35 -37l-18 3q-12 -16 -33 -21l-27 -6l-8 6h-5l-2 -5l-8 -2l-9 -5l-3 3l-5 -3l-25 21l1 15l-4 5l3 25v44l3 12l4 35l-11 -22l-8 -6l-4 -8l-7 -3l-10 -17l-18 -18l-7 -8
l-14 -14l-4 -9l-23 -15l-25 -28l-12 -3l-10 -8q-13 3 -19 15q-26 12 -29 41l6 3l-1 7v11l-6 7l8 9l3 17l7 24v4q0 3 2 9v5q0 7 3 16l5 1q3 1 3 4t-3 6l-3 6q4 16 11 17q2 6 3 8v13l13 13q0 19 14 27l1 13q3 10 6 14l1 9q2 -2 3 -2t1 1q0 2 -2 5q11 11 26 31l8 3q11 0 14 7
l16 8l44 1v-5l20 -5q1 0 13 -3q2 -7 9 -7h3l6 -6l19 -5l1 4l-5 -3l24 2l4 -13l8 -8l-6 -4l4 -17l-9 -10l-5 -15l-4 -6l3 -9l-9 -18q0 -1 2 -7l-2 -4l1 -5l-3 -7v-8l-5 -6l1 -15l1 -3l-3 -3l-2 -6l2 -6l-6 -9l-2 -6l2 -10l-6 -7l6 -6l-8 -15l-2 -7l6 -1l-5 -12v-7h-3l2 -12
h12l3 -8l6 1l16 5l5 -6l5 3q3 -1 7 -1q12 0 15 18h8l3 8q8 -3 12 -3q7 0 7 8q10 2 15.5 20.5t19.5 21.5q3 17 11 20v7q0 21 12 28q6 6 6 15v3l6 12l-5 7v12q-3 3 -3 8q0 7 9 16l1 19l-13 12l9 21l-13 10l-4 33l-9 -1l-17 29l-9 2l-12 16l-8 -3l-13 8h-10l-7 10l-9 1l-13 13
h-15l-12 8q-8 2 -22 2t-20 -2q-26 -2 -24 -2q-3 0 -7.5 2.5t-6.5 2.5l-4 -2l-14 -10q-5 -1 -16 -1q-12 0 -18 2q-23 -8 -47 -21l-7 -12l-20 -1l-6 -5q-14 -1 -23 -22l-7 1q-7 -10 -31 -24l-7 -17l-12 -6q-11 -13 -13 -21q-4 -17 -17 -20v-6l-10 -4q1 -3 1 -8q0 -14 -15 -23
l-2 -20l-12 -27l-17 -44l-3 -11q4 -8 4 -11q0 -4 -3 -10l5 -8l-3 -11l-2 -13l7 -26l-2 -18l9 -17l2 -10h2l8 -18l4 -14v-7l4 -4l17 -25l15 -5l4 -7l5 -2q14 -23 36 -23l7 -6l13 1l8 -9h12l11 -8l3 2l17 -5l6 2q6 2 10 2q6 0 16 -5l14 -7l14 -4l23 4l20 6q6 -3 13 -3
q6 0 16 5l19 6l15 1l18 10q36 6 65 25l10 8l26 12l23 -5q1 0 3 1h3q21 0 24 -32q-7 -14 -21 -19l-3 -5q-10 0 -25 -13t-29 -13h-6q-21 -6 -45 -18q-2 1 -6 1q-6 0 -15 -6l-19 -5l-31 -5q-12 -2 -18 -2q-9 0 -21 5h-32l-8 5h-9l-11 -1l-24 1l-17 6l-9 5l-12 1q-2 3 -26 5
l-15 8q-3 -1 -9 -1q-14 0 -23 11q-3 4 -6 4q-1 0 -1 -2l-17 1l-6 16l-20 10l-8 13l-18 7l-3 11l-16 18l-11 18l-5 23l-7 8l-2 9l-8 4l1 13l-3 10l1 13h1q1 0 1 2q0 5 -6 20l-5 21l2 23l3 8l-1 13l8 16l2 11l-2 10l8 14l2 24l23 48l16 44l18 17l18 27l23 25l30.5 35t32.5 22
l29 14l21 15q17 12 26 12h9l12 11l27 9q1 -7 4 -7q-1 0 6 5t20 5h6l6 7l28 -5l13 -4l7 6q10 -4 14 -4q5 0 13 4l12 -4l4 -4q10 0 20 -6l17 -5q26 -3 43 -18q15 -4 29 -19q1 -5 11 -8t14 -10l11 -19l15 -6l4 -20l14 -12l9 -26l-4 -8l7 -14q-5 -5 -5 -16v-6l9 -10l-2 -21v-1
q-1 -1 -1 -2q0 -2 1.5 -8t1.5 -9zM430 331l-1 9l-1 5l-7 3l-15 14h-10l-3 4l-12 2l-6 -2l-3 3q-9 -2 -18 -5l1 -2l-12 -4l-2 -3l-3 -1q-12 -7 -17 -20l-10 -14l-3 -6l3 -8l-8 -8l1 -4q-9 -10 -9 -25l-4 -6l-2 -12l-4 -5l-2 -7l-2 -2l-1 -9l-3 -4l-3 -12l4 -12l-8 -5l2 -3
l-6 -7l4 -13l-8 -9v-13l1 -4l3 -2l5 -3q2 9 9 11v6l13 3l9 9l2 1l-3 -3h-8l32 27l6 2l5 12q7 1 11 7l6 7l4 1l-2 11l7 1l18 23l6 5q1 5 14 15v2l-2 3l16 16l2 9l4 2l-1 3l4 6l2 7z" />
    <glyph glyph-name="A" unicode="A" horiz-adv-x="727" 
d="M714 -16q-1 -25 -33 -35l-38 18h-11l-13 10h-16l-12 20l-10 5l-13 23l-18 19v8l-8 7l-2 16l-13 12l-21 47l-9 11l-4 28l-13 17l-21 3l-23 -13l-5 5l-16 -10l-5 11q-5 -1 -15 -1q-11 0 -16 1h-8l-21 -11l-23 3h-4l-16 -9l-13 5q-19 0 -28 4h-5l-26 -12l-10 11l-18 5l-4 -3
q-22 -29 -32 -41l-16 -4q-38 -55 -48 -59l-4 -1l-32 -39h-4l-20 -31l-38 -21q-10 -2 -16 -2q-19 0 -36 14l12 25v15l4 5l2 20l31 4l8 5q12 7 14 21q18 5 22 20q27 14 35 44l17 6l25 37q-8 11 -12 28l21 17v19l39 -3l10 5q5 17 20 24l2 19l21 11q3 2 11 5v6q0 9 4 16
q21 15 22 41l14 3l5 9l7 1l19 36l5 -2l8 4v27h7q25 27 25 35l5 4l-5 15q24 29 39 30l19 16l22 -22l28 -15l3 -26q5 -6 8 -12q14 -17 16 -35l6 -25l15 -22l9 -33l2 -16l18 -22l-4 -7l8 -7v-20l2 -15q-3 -15 -3 -11l5 -5l6 -8q13 1 19 3h30q8 -2 12 -2q6 0 12.5 4.5t20.5 4.5
q10 0 30 -10l30 -2q2 -8 2 -12q0 -15 -15 -23l-15 5l-28 -20l-23 3l-10 -5l-22 -2v4l-26 -6l-1 -6l2 -23l13 -18l2 -18l23 -32l-2 -11l9 -9l24 -37l17 -17l4 -8l18 -9l7 -16zM467 254h-1l-11 11l12 10q-8 7 -8 21l-7 4l-5 41l-12 17l-3 17l-2 4h-7l-3 36l-9 13l-5 2l-3 4
l-4 -7l-24 -30l-8 -17l-20 -18l-4 -18l-23 -10q-5 -30 -30 -43l-7 -20l-13 -13h9q18 -6 30 -6h4q6 3 12 3q7 0 16 -4l4 -1q6 1 19 1q16 0 24 -1l35 4l23 -12q17 7 20 14q0 -1 1 -1v-1z" />
    <glyph glyph-name="B" unicode="B" horiz-adv-x="685" 
d="M666 165l-4 -12l-4 -20l-18 -15l-4 -13l-12 -3l-13 -19l-23 -5l-20 -14l-29 -3l-15 -16l-26 2l-11 -9l-14 2q-20 -14 -47 -19l-7 4l-29 -21l-11 6l-7 -5l-18 4l-7 -4l-18 -2l-14 3l-18 -15l-21 9v-1q-2 -2 -11 -5l-6 7q-14 -11 -33 -11h-5q-4 1 -6 1l-16 -17l-19 -6
l-16 9l-4 18l-22 -7q2 2 2 3v3q-1 2 -1 4q0 3 4 4l-16 32l1 18l-2 22l5 16l-3 22l7 16l-4 13l3 22q-3 11 -7 24l-1 14q-33 17 -37 32q5 24 29 38q1 1 11 7l-7 22l8 3l-4 15l3 4l-6 15l3 8l-1 23l-12 24l2 10l-6 4l2 23l-5 8l-7 24l-1 1l-11 -9l-10 7l-11 -7l-4 5l-17 -11
l-10 15l-20 -12q-50 29 -50 51q0 20 21 24q10 16 29 16h4l11 -5l2 1q44 0 64 -4q17 4 30 4l5 -4l7 2l28 -10l58 -7q5 1 15 1q13 0 19 -2l11 2q17 -2 27 -9l8 -4q20 -4 27 -4l24 4l5 -6q13 0 23 -10l29 -1l12 -11q13 -5 22 -5l20 -6l8 -8h23l6 -14l21 -13l7 -31l-16 -29
q-22 -25 -44 -29l-16 -9l-8 2l-21 -14q-7 1 -12 1l-21 -7l-2 1l-13 -17l-19 -3q-26 -13 -52 -13l-20 -11h-21l-17 -10l-13 -2l35 -11l20 3l33 -4l38 6l2 -4q7 1 20 1q24 0 31 -10q7 5 16 5q17 -6 23 -6q7 0 19 5q13 -7 49 -7l9 -5q27 -4 44 -12h16q12 -12 27 -12
q6 -6 33 -23q15 -10 15 -22zM435 393v8l-3 1l-7 8h-11l-10 5q-8 2 -14 4l-11 -8l-20 15l-17 5l-7 -4l-19 10h-5q-10 0 -33 3l-23 -3l-12 11l-11 -2l-4 1l-6 -5l-19 7l-4 -2v-24l7 -19l-6 -15l6 -23l-2 -21l6 -16l-5 -17v-2l16 1q5 2 15 4l-1 -3l12 9l2 8l25 1q31 8 40 19
l12 -1l5 4q16 16 34 16h4q5 0 9 5l27 8h3q11 9 27 12zM578 153l-3 2l-16 2l-4 5h-5l-23 10l-19 -2l-9 8l-20 -2q-6 5 -13 7q-9 -5 -17 -5q-7 1 -16 6q-17 0 -37 3l-34 1q-17 5 -31 5q-6 0 -15 -2l-22 -5l-15 10l-1 -6l-44 4q-9 6 -11 8q-17 0 -17 -17v-6l-1 -9l6 -14l-5 -15
l2 -7l-2 -14l7 -12l2 -19l-7 -16l1 -5l3 -2l2 -15l28 1l17 6l29 -1l7 -3q3 3 10 5l17 8l28 -1l28 9l24 10l14 -1l24 11l34 2q25 1 37 17l14 -1l11 5l8 11l22 6l7 12z" />
    <glyph glyph-name="C" unicode="C" horiz-adv-x="629" 
d="M638 193l-13 -30q-4 -33 -30 -36l-7 -14l-34 -21l-8 -10l-17 -16q-9 -1 -23 -4q-26 -24 -62 -36l-18 -9q-18 -2 -55 -15l-19 -12l-19 3q-18 -7 -32 -7q-11 0 -23 4q0 -6 -11 -6q-9 0 -28 8h-8l4 4l-18 -5l-8 2l-10 -3l-30 12l-13 8l-25 8l-5 11q-31 4 -35 27v4l2 -2
q-10 10 -20 36q-8 1 -17.5 19.5t-9.5 37.5q0 12 1 26q-4 9 -4 26l5 17v23l8 4l1 6l13 45l13 29l8 21q2 14 17 33l4 5l-5 20l22 11q9 9 14 13l4 23l15 7l5 18q20 2 27 9q11 16 28 23l9 8l26 7l15 9l19 -9q23 5 30 5h11l6 -2l12 -1q25 -12 48 -17l13 -11l59 -33l7 -14l10 -9
l7 -21l6 -15l4 -19l-1 -24q0 -2 -2 -14v-3q0 -31 -58 -45l-20 13l-11 15l-6 21v15l-3 16v25l3 11l-5 8q-4 3 -13 9l-3 2q-29 8 -30 16h-19l-8 5l-5 -11l-19 12l-5 -3l-12 2l-12 -8q-10 3 -19 3l-13 -18l-28 -25l-24 -33l-5 -2l-7 -22l-12 -8v-9l-19 -29l-9 -40l1 -4l-9 -16
l6 -16l-11 -9v-4l-4 -3l1 -28l-4 -21l8 -13l2 -6l9 -8v-14l11 -15l-4 -7l14 -14l1 -5l36 -13l-1 -6l26 -3l10 -9l23 8l11 -12l6 1q12 10 23 10q3 0 11 -2h13l7 -5l9 4q10 0 15 1q14 13 35 13q8 8 28 8q5 6 29 14q12 0 19 5l8 13l15 4l14 7l12 12l18 8l53 51l32 17z" />
    <glyph glyph-name="D" unicode="D" horiz-adv-x="646" 
d="M620 200v-3q-1 -2 -1 -3l-4 -10l-3 -15l-20 -27l-7 -15l-21 -9l-7 -9l-28 -8l-18 -10h-9l-6 -9h-26q-12 -15 -37 -15q-4 4 -5 4q-2 0 -13 -7l-17 2l-7 -3l-19 2l5 -3q-24 -6 -35 -6q-5 0 -7 1q-29 -9 -47 -9q-1 0 -5 1h-5l-15 -4l-13 5l-7 -3l-13 -13l-18 4q-3 1 -11 4
l-2 -1l-12 -3l-2 -20l-6 -16l-31 -36l-13 12h-21l5 35v12l-7 5q-4 -2 -14 -8h-27l-19 13l-8 23l14 13q17 16 47 23l-1 2q-2 6 -2 10q0 7 4 14l-3 46l5 12v21l5 11l-12 20l14 28l-5 60l2 23v15l-9 22v31l-6 14l-6 3l-22 -10l-38 -3q-18 0 -26 34l-7 31q25 21 46 21h2
q29 8 52 8q3 0 9 -2.5t11 -2.5q-1 0 25 6l4 -11l14 3l9 -3l13 3l39 -9l13 -8l29 5l11 -17l6 -1l17 -11l10 -1l12 -5h4q16 0 28 -9q29 -8 45 -26q8 -2 14 -5q13 -10 27 -11l28 -20l27 -23l-3 -3l23 2l10 -7l3 -15q27 -22 53 -54q1 -3 2 -7l16 -9v-25l9 -9q0 -8 1 -10l3 -2
q10 -12 10 -20zM542 193l-3 19l-31 39h-10l-11 27q-22 10 -30 16l-3 12l-5 4l-30 9l-9 16l-71 39h-5q-3 -1 -5 -1q-15 0 -27 9l-3 8h-19l-5 4l-13 3q-3 -1 -8 -1q-9 0 -11 4l-1 3l-12 8l-18 1q-10 10 -21 10l-7 -16h-5l11 -24l-6 -8q8 -19 8 -24v-5q0 -7 -2 -12l9 -26l-9 -3
l1 -6v-33q0 -2 -4 -22l7 -6l-11 -30l3 -22l-9 -19l9 -14l-2 -20l5 -12l-6 -14l1 -4l10 1l34 5q12 4 26 4q15 0 26 -4q20 0 45 14q48 3 37 3q4 0 9 -1t7 -1q11 0 15 5l16 4q15 10 28 10q5 0 12 -3q8 3 12 3l11 15l16 -4l7 3l14 10h6l26 19z" />
    <glyph glyph-name="E" unicode="E" horiz-adv-x="621" 
d="M606 327q0 -23 -14 -42q-27 -11 -45 -11q-4 0 -11 2t-9 2l-26 -13l-24 2l-14 -5l-7 2l-18 -10l-15 5q-27 0 -43 -1l4 1l-18 -6h-3l-7 -6l-14 4l-8 -7l-22 9l-13 -8q-24 7 -28 7q-11 0 -27 -7l-45 -4l-4 2l-17 -3l-1 -4l10 -50l-4 -5l4 -10l-1 -13q5 -15 7 -30l12 -12
l-2 -6l20 -25q31 -22 47 -22h2q2 0 5 1h4q4 0 11 -3l9 1q13 3 37 7l11 6l2 4l7 1l8 5l5 -3l16 5l13 8l5 7l17 13l13 2l24 18q25 4 36 40l3 -1l1 3l13 1l19 16l7 1q3 1 7 1q19 0 23 -37l-44 -52l-11 -3l-4 -6l-19 -20l-27 -16l-22 -21l-7 1l-8 -8l-45 -17l-18 -20l-13 5
l-5 -9l-9 3l-5 -5l-33 6l-34 -14l-34 11l-43 20q-55 26 -85 144l1 11l-9 23l9 10l-6 28l-1 9l-17 19v12q0 29 16 40q3 8 11 15l-2 3v28l-3 14l13 32l3 16l-10 -1h-4q-14 0 -24 9.5t-10 22.5q0 15 19 34l7 7l9 4q16 7 25 7h5q2 1 10 1h4l10 16l45 -3l3 -3q9 2 27 2l20 5h5
q13 4 25 16l15 -8h5q5 0 11.5 -1t8.5 -1l100 9l10 -4l14 3l8 8l20 -11l7 5l22 -9l15 4l8 -5l32 3l7 -5l16 -3q23 -4 23 -22q0 -12 -8.5 -21t-17.5 -9h-4l-11 -6l-20 6l-9 -1q-3 -1 -8 -1q-10 0 -18 4l-3 4q-10 -2 -13 -2q-4 0 -10 2q-10 -7 -37 -12q-14 0 -31 1q0 1 4 7
l-26 -7q-1 1 -2 1q-7 0 -26 -16l-13 6l-6 -4l-24 7l-14 -7h-20l-30 -6l-25 -11l-7 4l-13 -9h-13l-3 -5l3 -12l-17 -20l8 -1v-28l11 -12l-9 -8q-10 -17 -10 -23q0 -4 6 -6l12 4q5 1 10 1q15 -2 22 -4l18 7l16 -5l9 2l11 -1l16 3q8 -2 13 -2q4 0 16 7q8 -4 23 -4q2 0 7 1h8h2
q-2 0 -4 1h3q6 0 36 -3q3 1 31 2q16 1 20 1q15 0 29 -1l9 1q14 8 26 8q9 0 18 -3l14 3l12 -5l40 10v-9z" />
    <glyph glyph-name="F" unicode="F" horiz-adv-x="565" 
d="M572 486q0 -19 -29 -20l-18 -8l-18 4l-26 -14q-22 11 -32 11q-1 0 -8.5 -1.5t-13.5 -1.5q-8 0 -12 1l-22 -7l-5 1l-2 -1l-55 -1l-6 -10l-25 8l-10 -5l-24 -2l-15 3q-9 -1 -17.5 -2.5t-9.5 -1.5l-13 -2l-6 -4l6 -18l8 -21l-4 -16l10 -8l-8 -12q2 -8 2 -13q0 -9 -5 -22
l-3 -33l16 -1l32 8l14 -8h8q4 -1 5 -1h3l6 6l31 5l22 -8q16 4 23 5h33l19 4l11 -6l15 2q8 1 12 1l58 7l7 -3q3 1 7 1q7 0 17 -4q13 -18 13 -32q0 -5 -1 -8l-19 -3l-17 -9h-15l-8 -7l-28 2l-25 -7l-29 -5l-6 1l-2 -2l-38 4l-13 -5l-18 2q-15 -7 -37 -7h-9q-5 -1 -21 -6
l-21 12l-6 -5t-14 -7l-19 2h-12q-2 -10 -6 -60q4 -12 4 -21l-10 -25l6 -12l-8 -16l3 -15l-5 -9q-13 -68 -18 -87q-8 -30 -18 -35l-22 11h-27l7 31v14l6 6l2 13l1 5l-2 1v12l-9 10l2 6q0 21 8 37l-4 4l2 12l-3 14l6 16l-2 36l7 35l-5 12v5l-16 -6l-23 12l-10 -2
q-10 -2 -12 -2q-28 0 -28 33q0 42 42 42q21 0 30 -1l28 -3l-2 8l1 32l-6 2l4 61l-10 27l-1 9l-7 4l-32 -18l-16 22q-18 8 -18 31q6 9 6 14v23l28 -2q21 15 38 15q-1 0 29 -4q18 2 66 5l36 -5l27 1l4 3q7 4 15 4q7 0 11 -2l4 -1q9 1 27 3.5t27 3.5l1 -3l6 -5h4q5 0 14 1.5
t13 1.5h3l27 -4l29 -3q15 3 28 3q10 0 19 -3h17q9 3 20 3q29 0 29 -32z" />
    <glyph glyph-name="G" unicode="G" horiz-adv-x="749" 
d="M709 179l-37 -49l19 -26l-16 -10l-3 -26l-6 -15q0 -17 -5 -27l11 -10l-6 -24l5 -21l-3 -8l11 -11l-13 -14l5 -19l-7 -16q7 -19 7 -32v-4l12 -21q-2 -36 -31 -36q-13 0 -34 25l-4 23q-14 17 -15 26l-11 25v13l-5 8v4l-11 4l2 3q0 15 4 23v9q0 7 2 15l-3 10l-10 4
q17 11 17 21q0 2 -1.5 7t-1.5 7l-4 33l5 12q-32 -10 -56 -10q-1 0 -4 1h-5t-8 -2l-15 -14l-39 -7l-19 -10h-23l-17 -8l-21 1l-16 -9l-10 2q-12 -5 -34 -8q-16 -2 -21 -8q-10 3 -15 10q-3 -1 -10 -1l-22 -11l-15 11q-14 0 -40 6l-8 -5l-18 8h-28l-15 13l-23 9l-45 44l-6 29
l-14 19l6 15q0 2 1 6v6l-11 15l14 24l5 1l24 40v9l6 2l3 3l6 -3q11 1 12 22l7 -3q5 8 18 19l-3 4l3 7l12 9l2 1l12 21l7 -5h9l12 20l25 5l9 9q-2 2 -2 4l2 8l11 2l6 5l4 -5l7 6l3 9l21 2l17 15l19 3l7 7l10 -3l6 10l8 -7l1 6q0 10 13 13q13 14 31 14h18l3 2l17 15l10 -2
l17 9h7q13 5 21 5l18 10l10 -3h7l5 9l24 -2l7 1l5 11l31 -13h18l21 -15q18 -7 37 -19q-1 -48 -63 -56l-26 13l-8 -3l-17 6l-10 -6l-19 5l-32 -16l-14 8l-16 -5q-9 -2 -13 -7q-18 -15 -37 -15h-7q-42 -25 -69 -32l-4 -10h-12l-8 -12l-16 -2q-16 -14 -35 -23l-18 -8l-27 -24
l-15 -11l-17 -21l-26 -21v-19l-8 -7l-16 -37v-13q17 -17 20 -36l3 -3l23 -11l24 -6l32 1l40 -8l7 1l8 -1l55 4l3 1q10 3 40 8l17 6l42 3l66 15q17 11 40 13l14 -1q17 -9 18 -18l10 22l-10 -9v18l10 2l12 16q-3 3 -7 11q0 5 1.5 10.5t1.5 6.5q0 11 -11 36q17 10 36 10
q18 0 33 -7l9 -9q16 -7 25 -17z" />
    <glyph glyph-name="H" unicode="H" horiz-adv-x="758" 
d="M811 346l-12 -10l11 -14l-38 -24h-4q-5 0 -13 3l-12 -10l-17 2l-18 -15l-17 10l-21 -6l-20 -12q-2 1 -5 1q-8 0 -9 -5l-8 -33q4 -7 4 -12q0 -7 -3 -15l-3 -8l4 -2q0 -17 -8 -30q6 -14 8 -22l-9 -7l1 -36l-9 -52l-1 -10q2 -12 2 -16v-5l4 -10l1 -18q-1 -5 -5 -15
q-1 -34 -49 -36l-2 22l-8 13l-6 18v35l-7 21l3 2l-3 15v25l3 39l-2 35l6 20v23q0 7 2.5 19t2.5 18q0 10 -6 19l-2 3l-3 -2l-13 4q-18 -5 -34 -5q-11 0 -16 1l-43 -13l-46 5q-18 2 -25 2q-13 0 -36 -7h-4l-23 -10l-16 11l-25 -5l-3 2l-4 -2l-20 1l-2 -8l-28 11l-25 -3v-46
l-3 -23l5 -19l-8 -15l7 -14l-7 -43l4 -13l-2 -24l9 -20l-4 -9l2 -12q-1 -22 -25 -22q-41 0 -41 74l-14 17l-5 12q0 13 6 22l2 17l-3 10l-5 78v21l-2 3l-20 11l-3 49l28 16q5 16 5 40q0 23 -5 39l6 -3l-1 14l6 21l-6 35v23l7 35l39 21l19 -14l21 -7l3 -22l9 -13
q-5 -14 -9 -29q3 -16 3 -34q0 -28 -7 -55l9 -19l-10 -14v-12l9 -3l24 3l17 -2l27 3l8 -3q5 1 11 1q4 0 12 -2l2 -1h15q1 0 15.5 1t29.5 1l16 10l15 -9l15 -1l5 -1q8 2 13 2h5l106 11l15 -1l5 3l-5 17l5 15l-7 41l7 13l-18 48l-2 7l-4 5q1 2 4 9l2 4v4q0 8 16 15l10 28l28 -5
l12 -7l28 6v-14l12 3v-47l-5 -8l8 -20v-13l5 -16l-8 -19l3 -13l-5 -46v-7l21 1l39 9l19 -2l12 2h22q8 4 17 4q6 0 15 -4h25z" />
    <glyph glyph-name="I" unicode="I" horiz-adv-x="279" 
d="M199 473l-3 -1l-6 -38l1 -22l4 -3l-10 -23l2 -17l-9 -19q-4 -13 -7 -21q3 -6 3 -13q0 -8 -4 -15l9 -34h-12l-1 -2l7 -14l-7 -27h-3l-5 -20q5 0 7 1l-3 -20l7 -18l-7 -14l1 -31l-3 -13q9 -10 9 -19q0 -6 -4.5 -13t-4.5 -9l9 -6.5t17 -17.5l-12 -10l15 -8q-4 -40 -29 -40
t-33 22l-5 7q-16 22 -16 31l-20 21l9 10l-6 8l2 21l-2 7q-3 10 -3 16t3 13l-2 8l-1 32l3 4l-2 57l8 48l-4 50l3 5l-5 3l6 20v7l-7 1l5 22q-12 14 -15 39h13l12 30l2 -2l6 16l-5 -6v27h17l3 9l19 7q25 -2 39 -8q15 -14 15 -33v-5z" />
    <glyph glyph-name="J" unicode="J" horiz-adv-x="279" 
d="M195 172l-14 -2l-1 -7l3 -20l-5 -4v-4q0 -7 -5 -17t-5 -15l3 -20v-6l4 -18l-9 -19v-4l-2 -14v-21l-8 -10l6 -8l-14 -14v-20l-6 -6l3 -14l-10 -4v-3l-8 -11l-10 -2v-27l-17 -10l-25 -45l-48 -32l-19 -10l-18 -13l-9 2l-30 -11l-30 3l-36 -15l-34 10l-23 -3l-4 1l-21 -16
l-15 19l-8 -1l-26 8l-38 -10l-7 19l-34 -3l-12 15l-27 1v4l-15 7h-11q-21 10 -21 40q0 13 30 13t68 -18q25 0 49 -9l8 -1h17l7 -6l25 3l22 -5l7 2l17 -5l12 4q44 0 55 3h34l5 12h18l6 8h12l8 6l5 1l7 5l14 13l5 19l15 6l4 20l14 10q0 11 1 16l3 3l-7 10l13 13l-1 10
q4 5 14 16l4 19v38h10l1 14v4l5 2l-10 30l6 2l9 23l-2 14l7 81l5 17l-6 34l6 12l-7 10l7 28l-11 39v44l-9 25v5l-10 2q9 103 55 103q23 0 29 -17l3 -6l19 -12l-11 -18l7 -10l-2 -13l6 -3v-21l6 -16l-6 -34l4 -50l-2 -15v-44l-2 -22l4 -31l-3 -7l2 -20l-8 -8l1 -3z" />
    <glyph glyph-name="K" unicode="K" horiz-adv-x="755" 
d="M770 107l-11 -17l-30 -37l-23 -18l-29 -15l-31 -11l-28 -6l-8 3l-13 -4l-19 3l-23 -4l-5 4l-4 -2l-16 3h-24l-15 14l-25 5l-5 7l-8 -2l-22 20l-21 6l-11 13h-33l-7 13h-10l-6 10l-16 6l-2 -2l-19 20l-17 12l-18 18l-19 12q-12 9 -37 24q-5 11 -9 11l-15 1l-4 4l-14 -3
l4 -29l-6 -1l3 -10l-8 -38q4 -7 7 -24l-6 -11l-1 -12l-1 -22l-7 -17l-3 -21l-14 -27l-26 -39q-35 0 -39 28l7 24l4 18l1 3l2 5q-1 2 -3.5 7.5t-2.5 9.5q0 6 4 13l-4 5l15 19l-8 16l4 10q-5 10 -5 17q0 5 4 17l2 6q-2 24 -2 31q-4 7 -4 21l3 4l-6 17l8 9l-2 2v26l-5 31l8 7
q-1 5 -1 16v16h-2l-5 61q2 6 10 15q0 7 1 12l2 6l1 6q-8 18 -8 33q0 21 13 44q23 6 30 6q13 0 31 -9l23 -27l-4 -22l10 -11l-6 -13l4 -13l-13 -20l6 -28l-8 -24l3 -33l-5 -7l12 -18h7l18 -5l8 5l8 -4l7 5l24 -4l9 6l28 9v3h22q11 10 27 13q-1 1 -1 2q0 5 28 8l25 10l9 14
q6 3 15 6l2 12h9v4l17 3l10 18h10q3 18 23 25l6 8v11l18 2q6 18 19 27q4 8 5 12l13 17l10 9q3 32 39 32q2 0 23 -29l-9 -25l5 -2l-2 -6l1 -7q-2 -1 -8 -6l-3 -17l-11 -4l-8 -23l-13 -15q-9 -19 -24 -24q1 -1 1 -4q0 -5 -7 -19l-24 -5q-4 -6 -12 -11v-6l-20 -7l-20 -20
l-29 -15l-21 -15l-20 -4l-16 -9l-26 -5l-24 -14l-29 -14l-10 -3q12 -7 23 -20l21 -17l33 -19l3 -8l21 -5l26 -16l31 -16l17 -14l18 -5l27 -19l34 -10l25 -3l47 6h18l4 2q9 9 20 9q5 3 12 6v2l17 19l7 5l1 7q13 7 25 11l-3 -1l25 5l15 -8z" />
    <glyph glyph-name="L" unicode="L" horiz-adv-x="637" 
d="M666 94q0 -26 -35 -28q-11 -8 -23 -8l-37 -5h-18l-14 -10l-23 -1l-9 -7l-49 -2l-28 -13h-5q-7 0 -10 -1l-5 -5q-10 -5 -19 -5q-6 0 -16 4l-22 -5l-23 -1l-24 -7h-59l-33 8l-27 -2l-9 8l-19 1q-44 33 -61 69q-7 24 -15 48l-8 19l10 34l-6 41l9 6l2 38l7 20l5 30v62l9 16
l2 8l-2 36l8 8l-9 7l12 36l3 1l-6 16l22 9q15 13 25 15l26 -4l23 -48l-14 -11q5 -7 5 -16l-11 -30v-34l-11 -31l-3 -29l-15 -60v-8q0 -11 -3 -19l-2 -14l-2 -18l2 -31l-3 -8l8 -44l14 -31v-3l37 -22l54 -5l16 1l38 6h27l7 5l55 2l12 7l40 1l18 6l65 3l27 7q10 -1 24 -1l10 8
q13 5 24 5q32 0 32 -24z" />
    <glyph glyph-name="M" unicode="M" horiz-adv-x="878" 
d="M839 2q-6 -17 -38 -27l-32 20l-31 35l-10 23l-3 19l-4 10q-13 32 -13 58q0 6 3 15l2 2l2 19l-12 22l4 12l-2 16l1 14q-3 12 -3 21v5q0 18 -5 36v28l-7 18l-2 14l-10 -5l-32 -40l-28 -31l-11 -20l-31 -34l-34 -23l-4 -19l-20 -7l-4 -11l-24 -11l-8 -19l-18 -6l-20 -32
l-12 -7q-1 -5 -4 -19q-15 -8 -32 -8h-6l-10 19l-15 20l2 11l-10 14l5 7l-1 1l-5 16l-8 6q-19 19 -30 35l-6 19l-10 11l-19 35l-20 22l-7 12l-19 20l-21 29q-2 8 -10 16q-3 -36 -13 -53l-18 -30l5 -22l-9 -22l-20 -62l-8 -20l-2 -13l-16 -33l-14 -22l2 -20q-6 -16 -17 -35
l6 -24q-29 -29 -44 -29q-16 0 -24 15q-7 8 -9 18v4q18 74 24 74q1 0 1 -1v17q0 26 20 39v6l6 20l-1 7q0 5 9 28l4 4l1 27l10 17l15 50l-5 31l13 11v3l2 39l3 17q3 8 3 14v4l-17 32l5 19l8 2l7 10l-1 8l13 12l9 -4l12 10l14 -2l25 -17v-7l9 -6l4 -23l7 -6l6 -19l-2 -4l9 -7
q6 3 11 3q6 -3 16 -13l2 -14l9 -10l7 -21l46 -44l8 -25l15 -10l16 -40l31 -54q1 -1 6 -7l2 -3h10l8 17l24 15q23 25 23 27q0 1 -2 1h-1q5 4 13 7q2 3 14 9q7 15 24 23l4 6v9q24 30 39 35q0 16 31 29l18 25l6 17h11q12 20 17 30l14 6l7 -1l-2 20l-9 20l14 21l8 25q9 0 17 1
t7 1q6 0 28 -10l2 -8l11 -9l1 -8l10 -8l-5 -5q15 -6 15 -17q0 -4 -2 -10v-16l12 -18l-6 -5l-1 -5l2 -1l3 -16l14 -11l-11 -14l-5 -22l7 -16l-2 -23l9 -30q6 -20 6 -32q0 -7 -9 -19q7 -4 7 -12q0 -7 -6 -18l4 -4l-3 -56l11 -31v-33q6 -9 10 -20q2 -3 22 -24q11 -12 12 -22z
" />
    <glyph glyph-name="N" unicode="N" horiz-adv-x="781" 
d="M716 409l-3 -5q-8 -48 -17 -58l-2 -6v-47l-10 -20l3 -12l-10 -40l4 -11l-7 -35l1 -17l-7 -22l9 -26l-17 -23l4 -13l-8 -14l3 -3l3 -46l13 -23l-17 -13l-10 -16l-37 10l-6 45l-6 2q-4 35 -4 72l-3 5l-17 3l-5 -6l-15 17l-14 -4l-22 16q-24 2 -35 4l-9 8l-4 -1l-72 43l-6 7
l-22 8l-13 17l-11 5l-16 14l-47 19l-30 36l-16 2l-10 14q-22 14 -39 33v-9l-8 -43l9 -29l-15 -49l3 -15q4 -7 4 -18q0 -13 -4 -22l9 -2l-12 -35v-22l-4 -21l7 -13l-13 -17q3 -4 3 -11q-6 -22 -21 -41h-18q-31 0 -32 43l11 34l-5 16l6 15q-1 5 -1 14q0 7 1 10l-7 9v7
q0 5 1 12v11q0 10 -8 30l8 12l5 17l-5 28l8 29l-6 19l8 47l-2 34l4 29l-4 9l2 58q-2 10 -2 14q0 7 3 13q3 16 24 17l9 -2l8 10q23 -12 32 -34h9l3 -31l13 -9l1 -12l15 -9l8 -28l5 -5l28 -19q10 -5 12 -18l2 -4l24 -15l27 -27l72 -56q21 -4 34 -25l30 -9l25 -20l12 -3l30 -14
l29 -9q16 -15 30 -21l3 15l10 20l-4 4l5 55l9 17v3l-12 16l12 41l-4 34l9 60l-13 13l13 39l-8 9l10 13l-3 11l48 23l5 -11l30 -5q-8 -19 -8 -29q0 -5 1 -8q8 -11 9 -20l-6 -16z" />
    <glyph glyph-name="O" unicode="O" horiz-adv-x="720" 
d="M693 264l-10 -21l-4 -33l-10 -9q-6 -40 -31 -51l-7 -3l-60 -42l-18 -10l-29 -32l-18 3l-11 -8l-20 -7l-50 -26q-6 2 -16 9q-7 -10 -22 -13h-4l-20 -16l-4 2h-19l-9 -7l-38 1l-50 -8h-6q-7 0 -17 -2l-28 4l-5 5l-40 6l-17 8h-24v11l-19 20l-25 11l-11 31l-1 23l-6 7l-1 45
l13 40l-2 24l5 5v19l14 14v10l6 11v10l4 5l-5 11l16 11l19 40l41 59l10 5q3 5 9 13l10 8v16l15 3q15 12 33 18l5 6q9 4 52 10l27 4l32 -4l19 1h27l6 -1l3 -1h5l6 2l32 -1l-2 -6l15 -4q6 2 6 8q5 -9 22 -9l8 -8h30l67 -29l8 -22l6 -9l18 -7l27 -44l16 -20q27 -63 27 -75v-11z
M618 258l-5 28l5 8l-7 17q1 2 1 6q0 3 -2 5l-18 12l-6 16l-8 3l-3 14l-25 23l-15 12l-6 -3q-23 21 -85 35q-8 0 -10 1l-5 -3l-18 5l-10 -5q-15 5 -18 5q-1 0 -7.5 -2t-11.5 -2t-8 1q-7 -13 -33 -23l-13 2l-14 -7l-18 2q-18 -14 -42 -29l-5 -7l-5 -22l-23 -10l-4 -5
q-6 -12 -16 -22v-17l-14 -6l-3 -2l-9 -30l-14 -8q-3 -51 -17 -71q-8 -11 -9 -30l-4 -11l3 -7l3 -15l12 -13l2 -13l10 -10q28 -16 50 -17l42 11l9 -9h12l2 2l30 5l32 -5q8 8 19 8q23 14 39 14l21 12l16 1l13 10l31 1q4 1 9 1l2 3q7 10 21 13l12 28l8 -5l8 4l14 13l5 -2l17 12
l30 30l13 4l6 15l8 5l-2 9z" />
    <glyph glyph-name="P" unicode="P" horiz-adv-x="570" 
d="M576 349l-10 -31l-18 -16v-13q-8 -2 -20 -7l-3 -1q-5 -13 -16 -14q-12 -13 -43 -20q-15 -17 -32 -18l-14 -7h-20l-11 -7l-5 -1q-4 -4 -12 -7l-11 -8h-23l-12 -10l-43 -9q-7 0 -24 -2l-21 -16q-9 4 -18 4h-6l-7 -4l-13 -3l-9 -6l-7 -2l10 -17l-6 -25l9 -33l-1 -23l4 -9
q21 -3 21 -27q0 -23 -37 -35l-28 -9l-31 37l-13 41v38l-14 25l10 11l-3 12l1 8q-27 2 -40 5l-34 48l75 5v10l5 12l4 42l5 6l-1 38l3 16l2 54l11 23l2 2l-1 3q4 13 16 20l22 1h7q43 0 43 -32q0 -13 -14 -36v-5q0 -15 14 -31l-15 -4l-1 -25l-12 -10l4 -14l-8 -15l4 -19l-4 -9
l1 -9l7 4h20q14 11 33 12l14 12q7 -7 13 -9q11 5 38 16l13 2l16 10h8l1 2h7q20 0 36 14l22 -2l1 5l14 6l7 9q4 -1 10 -1l9 17q5 4 8 4t4 -4q3 5 14 9l1 5l7 5l1 8l-5 13l-8 9l-8 2l-19 16l-37 14q-25 15 -46 23l-16 -9l-28 17l-23 -2l-15 9h-16l-14 8h-4q-3 -1 -5 -1
q-12 0 -25 8l-24 3l-18 -2l-19 6l-21 -5l-3 2l-15 -8l-12 7v-5h-24l-18 -10l-21 -3l-27 -13l-18 25q-12 17 -12 40l11 12q4 17 22 21.5l37 9.5h8l4 -1l7 -1l-3 -3l21 6l3 -2q3 1 9 1q9 0 19 -5h40l30 -2l55 -8l15 -11l14 4l26 -7l30 -1l4 -5h21l23 -14l22 -2l5 -7
q18 0 36 -13l20 4l8 -20l11 -8h17l13 -19l38 -22v-15z" />
    <glyph glyph-name="Q" unicode="Q" horiz-adv-x="737" 
d="M846 43q0 -11 -16 -30l-20 -5l-21 -16l-13 5l-22 -6l-15 -18l-4 1l-2 -3l-14 3q-16 -6 -23 -6l-45 -15l-20 13v-9l-22 -7l-13 6l-8 -5l-13 1q-10 0 -29 4l-7 -6l-28 15l-18 3l-15 11l-26 12l-9 15h-12l-16 17l-15 7l-4 10l-15 -9h-8l-15 -14l-16 2l-14 -9l-14 2l-17 -7
h-13l-26 -16l-19 7l-15 -6l-21 7l-9 -2l-35 8h-24l-8 9q-18 6 -27 15l-4 12l-5 5l-27 30l-19 15l5 17l-8 14l5 28l-2 42l13 29q7 0 7 3q0 2 -2.5 8t-2.5 11q0 7 3 13l-5 14l19 7l12 19q0 1 2 3.5t3 4.5l1 8l-8 12l26 19l2 7l2 2h-3l31 40v4q-1 2 -1 3q0 20 28 20q5 6 15 14
l-2 6l17 9l6 16l18 3l63 25l30 -7l42 11l3 -5l56 14l54 6q31 -1 65 -6t40 -5t18 -9l4 -3q19 0 33 -16l13 -5v-14q30 -31 33 -36q14 -19 14 -46v-25q-3 -22 -7 -62q-19 -6 -22 -21q-6 -21 -10 -26l-6 -1l-5 -16l-9 -3l-3 -4l-3 -3q-4 -3 -11 -11l-6 -6l-13 -23l-12 -6l-4 -12
l-32 -13l-16 -23l-11 -4l-5 -7l-24 -10l-17 -6l-7 -14l28 -26l9 3l29 -20l32 -10l47 -2l19 13l9 -10l36 6h8q42 13 71 20v6l22 3l11 10l24 4l9 -13q8 2 10 5q11 -9 11 -19zM630 346q0 33 -33 67q-25 5 -19 5l-28 21l-54 9l-15 -6l-19 5l-3 -4l-4 4l-7 1l-17 -7l-17 3l-15 -5
l-11 -10l-19 -2q-14 -7 -21 -15l-19 2l-14 -3l-4 1l-12 -14q-3 1 -9 1q-12 0 -18 -11l-10 3l1 -5l-3 -4l-14 -8l-18 -26l-33 -10l-17 -32l-4 7q-1 -3 -4 -11v-12l-15 -15v-5q-12 -13 -21 -38q-2 -21 -16 -48l1 -39l-3 -9l7 -32l27 -24v-3h5l27 -11q18 3 11 3q13 -2 20 -8h61
l22 9l23 1l3 4l9 -3v4l-5 -2l16 10q12 0 21 3l3 3l-13 24l-17 18l-2 18q-35 62 -35 103q0 13 1 20h8q16 0 22 22q38 -22 49 -36l11 -39l1 -10l8 -13l7 -24l26 -31v-5q-1 -3 -1 -4h14l8 15l19 4l7 18h4q6 0 6 -4q7 4 14 4l12 21h14l9 6l3 14l14 6q6 16 23 20l5 7q6 23 21 26
l5 5l-3 7l9 8v4q15 24 15 52z" />
    <glyph glyph-name="R" unicode="R" horiz-adv-x="762" 
d="M810 63q0 -10 -48 -43l-6 2l-9 -13l-23 -3l-20 -7l-28 6l-5 -2l-19 -13q-7 6 -17 10l-18 -17l-14 14l-6 -2q-3 3 -6.5 6t-4.5 4h-43l-7 8l-20 5q-15 4 -29 9h-12l-9 10h-4q-8 0 -17.5 10t-12.5 11l-41 21.5t-32 31.5q-21 11 -32 24l-28 22l-33 32l-7 3l-19 18l-7 1l-3 -1
q-6 -2 -12 -2t-13 2.5t-10 32.5l9 10q6 21 20 34l28 3v-2q0 -3 3 -6h14q1 -6 16 -6t40 3v6q12 -2 36 -2q32 0 54 5l13 6l22 4l28 3l4 -1l5 2q8 3 27 7l8 3l9 5h4l11 8l29 9q10 5 10 8q0 4 -5 8l-25 22l-10 2l-6 4q-6 6 -17 9h-13l-21 8h-14l-13 10h-20l-10 3l-57 4l-3 1
l-4 -1l-14 3l-9 -2l-31 3l-33 -5l-17 5l-16 -2l-12 2l-16 -6l-8 3l-15 -9l-7 1q-2 -8 -2 -12q0 -2 1 -4v-4l-3 -50q-3 -9 -3 -18q0 -16 11 -30l-12 -14l6 -26l-7 -26q-6 -22 -6 -45q0 -8 2 -26l-2 -20l7 -59l2 -8l-7 -38v-8q0 -26 -66 -26l7 53l-4 10l-12 51q-3 8 -3 14
q0 8 5 20q-6 6 -6 13q0 10 9 26q-3 8 -3 18q0 5 2 17v11q8 14 8 16t-10 19l8 20l-3 17l4 4l1 10l-10 40l5 18l-5 33h-24l-24 -27q-9 14 -32 24q-16 13 -16 28q0 13 14 29l23 15l36 3l34 2q10 23 42 23h27l6 -17l17 6l28 -5l38 5l55 -5l75 -2l36 -7h36l3 -3h10v3l66 -25
l27 -12l21 -2l8 -9q45 -34 51 -72l-1 -5q-4 -19 -18 -33l-41 -41l-25 -2l-5 -2q-16 -9 -39 -12l-8 -7l-31 -8h-5q-10 0 -16 -4l-24 -21l-21 12l-3 -1l-11 -6l-7 7q-2 -5 -10 -12l-19 7l-18 -7l-5 4l-6 -2l3 -2l8 -11l38 -29l11 -16l10 -10l6 -14l23 -1l33 -31l15 -6l21 -12
l20 -5l25 -9l14 1l12 7l5 -13l17 3l3 -6l12 -3l34 3l14 -3l44 8l32 7l5 9h14l19 23q24 -27 24 -42z" />
    <glyph glyph-name="S" unicode="S" horiz-adv-x="743" 
d="M699 117q0 -12 -13 -29q-16 -21 -39 -33q-8 -7 -17 -8q-18 -12 -35 -13q-7 -7 -24 -13l-18 1l-18 -15l-19 4l-6 -1l-15 -2q-15 -2 -25 -2q-2 0 -7 1h-8l-14 -5l-20 -2l-23 1l-11 -5l3 -3q-23 0 -36 -4l-5 1l-41 3l-58 2l-19 3q-9 -4 -21 -4q-14 0 -29 9l-19 -7l-10 9
q-42 1 -49 8l-4 2q3 0 -17 -2l-39 26l-18 4q-17 8 -29 28q-10 17 -10 33q0 11 10 39l20 22l24 -1q8 11 23 11q32 0 32 -51q-21 -5 -25 -8q-5 -6 -15 -13v-3l9 -5l12 -13l39 2l33 -10l52 1l19 -12l9 5q6 0 15 -3l26 -3l2 -5h16q23 7 26 7q5 0 12 -3q9 2 23 2q10 0 18 -2
q7 4 16 4q11 0 19 -4l22 6l11 12l38 -4q29 9 46 9h5q7 5 12 5q3 0 7 -2l10 4v8h21q7 9 25 10q14 13 23 14l8 12q0 9 -64 39l-8 6q-21 2 -33 7q-7 0 -13 1h-2q-5 0 -39 12q-11 8 -23 8q-4 0 -12 -2h-20l-3 3q-16 3 -25 9l-12 -4l-31 15h-20l-13 8h-20l-3 5h-16l-14 16h-7
q-31 0 -48 12l-2 2q-22 7 -32 22l-17 16l-11 26l-12 16l5 41l24 28q6 1 9 13q3 1 10 5l51 28q10 -2 14 -2q14 0 29 10h6v-2l10 9h5q32 12 53 12h5l9 -1l15 9q6 1 16 1h6q7 0 24.5 2t27.5 3l18 1l27 14q3 -2 13 -15h22q6 0 22 -6h7q24 0 40 -10q53 -13 53 -53q0 -34 -55 -41
l-8 12q-3 1 -10.5 4t-11.5 4h-22l-10 11l-16 -2l-9 -10l-24 17l-26 -4l-31 7q-29 -2 -49 -12l-2 -1q-3 -2 -6.5 -3.5t-4.5 -1.5l-14 6l-28 -13l-52 -14l-12 3l-22 -14h-10l-6 -9l-21 -14l2 -6l11 -11l10 -3l16 -10l31 -11l15 -1l27 -16l8 3q29 -6 39 -16l3 -3h2l20 -12l7 7
l24 -1l4 -2h14l14 -11h7q17 0 30 -5q1 0 10 1q18 0 40 -16l12 3l9 -4h17l29 -20l30 -3l12 -16q34 -21 44.5 -36.5t10.5 -44.5q0 -2 1 -6v-7z" />
    <glyph glyph-name="T" unicode="T" horiz-adv-x="612" 
d="M703 487l-25 -47l-23 -3h-31l-17 -3l-13 3l-63 -5l-18 4l-4 -1q-10 -4 -34 -8h-36l-8 3h-3q-10 0 -29 -5q-15 -4 -37 -4l-16 4l-3 -12h-12l-3 -47l5 -8l-2 -15v-26q0 -41 -8 -55l8 -11l-6 -29l6 -8l-11 -16v-8l-6 -11l4 -22l-3 -42l-6 -19q1 -1 1 -5q0 2 -3 -13
q0 -1 1 -4v-5q0 -11 -7 -21l3 -14q0 -7 -1 -9l-1 -3q-2 -6 -2 -12q0 -19 4 -32q-22 -4 -25 -4q-9 0 -15 2l-2 1q-26 6 -26 48q1 5 1 14q0 8 -2 22.5t-2 21.5q0 10 3 17l4 41q-8 11 -8 18q0 2 2 8q-4 8 -4 12q0 8 5 13q0 9 8 25q-2 8 -2 17q7 0 7 7q0 2 -2 6.5t-2 9.5l3 -4
l-4 9q0 19 5 33v29l-5 21l5 39l-5 29l2 10l-15 -1l-11 -6l-8 1v-4q-21 0 -41 3l-3 -8l-39 13l-52 1l-33 -9q-40 34 -40 49q0 9 3 18v-3l22 19l19 -1l67 -12l17 5l51 -1l40 -5l26 10l9 26l40 -10l2 2l2 -3l14 -17l4 -1l14 5l29 -7q43 8 51 8q12 0 25 -5q3 0 12 -1q14 2 18 2
h7l34 4l29 -5l4 -2l15 5l21 -5l50 2l22 -3h53z" />
    <glyph glyph-name="U" unicode="U" horiz-adv-x="737" 
d="M779 -3l-14 -26l-28 -8q-18 -10 -32 -12l-12 -8q-2 0 -7 -1h-8q-38 0 -59 25l-6 7l-7 1q-20 3 -31 17l-15 25l-5 7l-7 25l-12 17l-8 26l-9 18l-16 90v31l-6 -6l-15 -10q-1 -17 -15 -17l-10 -11l-14 -8l-10 -10q-4 -13 -18 -19l-12 -13l-16 -7l-12 -15l-81 -57l-35 -21
l-22 -16l-14 -4l-25 -20l-20 -9l-33 1l-19 21l-14 9v18l-8 7l-10 61l-3 8l-4 43l6 19l-3 12l3 15l-4 44l-5 8q2 16 11 24l-3 4l4 21l-7 13v21l7 10l-3 15l7 28l-5 35l4 14l-4 19l10 11q6 11 19 11h8l24 -7q10 -4 15 -17q8 -5 16 -26l-10 -14q-13 -49 -13 -63v-3
q2 -14 11 -22q-14 -59 -14 -96v-7l9 -12l-4 -22l-2 -30l6 -18l-15 -13q16 -37 16 -52h27q2 4 6 9l15 1l12 14q10 9 20 14q6 8 18 11l26 16l-1 10l23 4l17 18l1 2l2 1l7 8l8 -4l10 8l8 20l8 -1q10 8 22 15l3 4l6 6v16l17 5l11 13l11 5l2 14h7q4 5 13 9v10l13 4l17 32l8 24
l3 23l11 17l2 12l2 26l7 18l25 21l29 -15l7 -8q16 -10 29 -23l-9 -16l1 -13q-3 -19 -18 -26l-7 -13v-16l-7 -16l1 -27q-4 -6 -9 -6q-1 0 -3 1q15 -9 15 -29q0 -7 -1 -10l-8 -1l3 -10l-3 -26l7 -16l-3 -22q1 -4 1 -13q8 -10 8 -20v-4q-1 -2 -1 -4l4 -12q7 -32 24 -70l10 -15
l3 -6l10 -10l23 -22l16 -3l6 10l16 -6l4 2q12 9 27 9q7 0 39 -5z" />
    <glyph glyph-name="V" unicode="V" horiz-adv-x="654" 
d="M635 442l-4 -24l-11 -12l-8 -20l-12 -11l-12 -19q-5 -5 -5 -16l-4 -8q-4 -13 -19 -25q-6 -25 -29 -39l-7 -10l-24 -24l-14 -29l-20 -22l-12 -21l-10 -8l-9 -13l-36 -40l-17 -27l-19 -14l-1 -7l-9 -12l4 -31l-8 -19q-17 -14 -30 -14q-10 0 -18 4q4 -7 6 -11q-10 12 -41 65
l-8 19l-15 19l-8 17l-11 28l-12 20l-1 20l-14 34l-24 40l-27 40l-10 26l-13 8l-15 27l-8 6l-17 27q-8 8 -12 17q-24 14 -45 39l-3 20l4 17l9 16l16 5h14q13 0 26 -6l7 -8l5 2l3 -6l4 -1l3 -4l7 -15l10 -8l14 -21q6 -5 18 -25l9 -8l3 -8l10 -8l2 -14l17 -28l2 -8l9 -14
q14 -13 17 -30l-2 -3l4 -1q3 -11 10 -18l8 -17l7 -19l18 -29l-2 -11l7 -8l12 -35q3 -10 14 -27q6 5 14 14l13 7l13 15q9 10 23 32l7 5v4l12 3l1 6q5 8 12 23l13 13l7 15l11 13l11 18l14 12l15 16q4 2 9 24l5 5l3 10l12 7l-2 14l7 8v14l11 10l5 12l6 8l5 26l8 13v14
q8 11 20 16l24 10l4 -1q22 0 32 -15q11 -5 11 -17v-6q0 -5 1 -8z" />
    <glyph glyph-name="W" unicode="W" horiz-adv-x="983" 
d="M988 453q0 -10 -7 -21q-6 -15 -6 -24q0 -1 -21 -45l-11 -23l-9 -16v-5l-43 -53l-8 -21l-21 -23l-15 -33l-15 -5l-5 -8q-8 -4 -12 -14l-9 -21l-11 -9l-4 -9l-25 -31l-6 -18l-13 -15v-14l-9 -15l7 -34q-6 -19 -34 -27q-8 -4 -20 -4l-26 11l-15 41l-24 37l-1 24l-17 14
l-12 26q-7 17 -19 39q-1 13 -11 24l-11 16l-3 17l-10 7l-8 42l-19 36l2 6q-3 6 -8 13l-3 12l-35 -34q-4 -15 -29 -25l1 4l-11 -9q-3 -1 -7 -2l-12 -12q-7 -10 -23 -22l-21 -25l-26 -39l-18 -13q-2 -2 -8 -12q-3 -13 -15 -23l2 -11l-8 -5l-5 -15l-6 -7l-16 -30l9 -8l-3 -18
l3 -5q-2 -1 -7 -5v-5q0 -31 -33 -31q-14 0 -28 12l-29 40l-6 13l-29 47l-11 39l-19 35l-3 21l-11 21l-11 39v11l-27 79l2 7l-3 3l-9 26v19l-4 35l-11 13l15 38v2q8 30 31 30q7 0 26 -6q25 -22 25 -54v-4l4 -5l-7 -20v-11l11 -77l-4 -6l6 -3l9 -17l11 -61l5 -11l7 -32l10 -4
v-20l7 -13l1 -12l4 -2l6 -25l4 -1l4 -7q4 -12 6 -13v1l9 21l9 11l8 17l7 8q1 3 9 19l14 9l3 15l24 22l8 20l15 5l1 3l2 4q7 15 17 17l15 10l7 8l3 10q22 7 29 31l19 2l8 26h11l8 16l14 1v14l13 16l5 28l20 14l1 -6l14 19h25l18 -18l16 -7l3 -25l-2 -25l2 -24l26 -60l-2 -12
l7 -12l3 -12q10 -14 21 -63l13 -23l2 -13l10 -9l19 -43q1 -3 9 -14l7 4q6 12 13 19l12 6l4 9l4 16l21 23q-3 0 -3 1q3 3 15 7l10 14l9 15l26 26l22 36l15 20l12 25l16 17l12 21l11 26l-6 8l12 23q2 5 6 13v8q-6 15 -6 28v6l5 8l9 11l3 13q12 17 29 17q14 0 27 -13l20 -20
l-2 -29q2 -3 2 -10z" />
    <glyph glyph-name="X" unicode="X" horiz-adv-x="653" 
d="M648 45q0 -38 -64 -47l-20 6q-5 -2 -13 -2q-7 0 -16 4t-15 4q-30 1 -47 21l-2 1q-19 6 -36 22l-15 9l-17 16l-20 23l-45 48l-23 37l-2 5q-6 -9 -12 -21l-14 -2l-35 -28l-18 -13l-12 -22l-72 -53l-14 -23l-30 -11l-11 -12l-12 -1l-22 -23l-14 -5l-15 -9l-6 -2l-4 -5
q-14 -17 -27 -17q-27 0 -27 33q28 21 35 38l8 2q0 1 2 11q31 9 40 33l22 10l9 7q8 5 23 25l22 12l12 14q12 4 13 17l17 4l19 21v10l17 9l9 21l13 1l12 18l11 3l1 8l15 10q-11 23 -25 36l-9 10q-5 5 -14 18l-5 9l-15 12l-38 40l-8 12l-11 11l-22 10q-52 33 -52 66q0 5 2 11
l8 3l3 13l24 10l33 -4l14 -14l22 -1l7 -13l11 -5l6 -15l13 -5l10 -15l21 -10v-21l32 -30l4 -10h4l19 -26l10 -25l8 -6q12 12 24 18l5 9v6l30 26l16 20l5 9l13 17l21 21l4 11q2 2 11 12q1 5 3 16l21 28l15 14l24 5q38 -10 38 -47q0 -6 -14 -32q-7 -7 -17 -22v-6l-3 -6h-5
l-7 -13l-6 -4l-15 -15l-8 -10l-4 -13l-9 -4l-4 -11l-11 -7q-6 -4 -12 -15t-11 -16l-6 -2l-13 -19l-16 -14l-11 -16l-8 -5l10 -14l8 -19l22 -25l25 -31l3 -12l25 -18l20 -20l19 -8l19 -17q13 -4 35 -12h12l5 6l10 19q21 -4 47 -22q18 -16 18 -30z" />
    <glyph glyph-name="Y" unicode="Y" horiz-adv-x="681" 
d="M678 504q0 -6 -11 -15t-12 -20q-5 -9 -14 -16q-3 -12 -20 -15l-18 -14l-13 -24h-10q-7 -10 -18 -19q-3 -1 -17 -8l-21 -23l-28 -20l-9 -3l-9 -16l-22 -13l-11 -11l-10 -25l-37 -41l-12 -18l-5 -10l6 -10l-8 -18l5 -17l-8 -23l2 -14l7 -28q-15 -18 -15 -33q0 -7 2.5 -21
t2.5 -20l-8 -44l2 -25l-4 -9l7 -36l-8 -12l7 -18l-6 -9l4 -8q3 -6 3 -13v-5l-7 -25l6 -27l-9 -19l9 -12v-7q0 -40 -11.5 -56.5t-41.5 -16.5l-9 48l-9 29l-1 19l-13 8l9 20l-4 14l4 30l-6 32l3 25v7q-1 5 -1 8t1 7v6l-5 46l5 22l-3 24l6 40l-9 16l5 24l-1 19l-8 18q8 18 8 28
q0 6 -2 9l-4 18l-6 17l-10 8l-6 9q-17 9 -45 44l-16 10l-14 26l-40 36l-8 14l-16 20l-30 24v10l-15 10q-4 25 -21 25q-41 23 -42 70l5 26h12q7 6 22 6t42 -9l7 -16l16 -5l18 -28l26 -19l1 -9l21 -33l15 -11l55 -76l18 -23q36 -37 56 -60v3q0 12 12 25l-1 -5q7 16 17 26
q3 14 14 22q2 7 19 22l9 4l3 4q9 26 36 26l2 -4l9 17q12 3 10 3l15 18l7 13q17 22 43 26v12l7 8l10 8l6 21q3 -5 8 -5q9 0 16 24l30 13l16 16l28 -2l21 6l9 -21q3 -16 3 -26z" />
    <glyph glyph-name="Z" unicode="Z" horiz-adv-x="907" 
d="M850 134l-3 -23l-10 -33l-19 -43q-4 -3 -10 -16t-17 -19l-11 -14q-10 0 -13 -1l-1 -3q-9 -12 -24 -12h-4l-9 6h-3l-13 -11l-12 5l-9 -5q-16 8 -17 9q-6 -1 -26 -11q-4 16 -22 16q-11 0 -23 -4l-20 8l-17 -8l-13 11l-11 -7l-22 14l-44 4l-13 5q-30 1 -53 8q-1 1 -5 1
q-2 0 -8 -1.5t-10 -1.5q-7 0 -14 4l-24 -1l-16 9l-41 5h-16l-38 9l-10 -4l-5 4l-8 -1l-7 1q-12 -2 -17 -2q-9 0 -17 3l-22 2q-2 0 -12 2l-11 -6l-4 2q-23 -9 -37 -10l-30 -23l-16 6h-22l-6 16l-11 14v22l6 12h9v10h4l4 3l2 -3l13 13l24 7q18 18 40 27l8 8h5l4 13h15q4 4 5 8
l14 17l2 8q16 2 23 3q9 14 24 15l13 13l18 20l22 9l1 12q16 15 33 23l-2 -2l8 3l21 27l15 1l6 5l6 12l5 2q14 14 27 16q3 5 8 8l5 14l12 3l1 3l11 2l17 23l18 11l6 16l13 8l18 20l-1 3q-10 -6 -25 -6h-5l-7 5l-16 -2l-8 3q-5 -1 -28 -1l-26 -10l-10 10l-21 -2h-6
q-4 -1 -6 -1q-13 0 -22 4l-29 -11l-7 5l-7 -4l-15 6q-7 -5 -14 -5q-6 0 -12 3l-8 -6l-13 10l-9 -9l-26 8l-9 -3q-47 3 -47 63l28 17q14 -1 38 -1q22 0 31 1l7 -3l20 5l49 -6l10 6l27 -1l2 -6l3 4q5 0 8 -1l9 5l20 -4l20 7l16 -8h29l19 4l8 -4q5 1 15 1q16 0 25 -1h4l4 -3
q9 6 15 6l27 -3q21 4 38 4q5 5 12 6q6 6 16 6q2 0 12 -2q31 -18 34 -51l-9 -18l-31 -9l-8 -8q-4 -3 -10 -3h-4l-4 -12l-9 -4l-17 -16l-20 -12l-4 -7l-18 -18l-12 -19l-13 -2l-6 -12l-12 -6v-13h3l-37 -19v-8q-20 -8 -29 -13q-4 -16 -22 -22l-4 -10l-17 -7l-6 -5l-9 -15h-25
l-5 -5q-5 -20 -29 -32l-2 -1v-4l-18 -12l4 1l-10 -5l-12 -7l1 3l-8 -3l-27 -33l-35 -20l-2 -4l24 1l53 -3v-1q0 -2 4 -3.5t5 -4.5q6 -2 7 -2q-1 0 15 2l24 3q14 -1 24 -13q6 1 21 1q17 0 43 -10l9 1l14 -4l11 7l10 -8q23 -2 46 -5q19 -2 25 -8l2 -1l67 -2l25 -6l45 -2l13 -4
l41 3q10 1 13 2.5t6 10.5l16 10l12 22l5 34l9 9q18 26 35 26q13 0 23.5 -8.5t11.5 -20.5z" />
    <glyph glyph-name="bracketleft" unicode="[" horiz-adv-x="418" 
d="M448 -63q-16 -24 -54 -27q-19 2 -39 9l-17 -4l-7 2q-13 -5 -21 -5q4 0 -14 3q-9 -4 -21 -4h-21q-3 -1 -10 -2l-13 -1l-8 -4l-17 -26l-45 17q-19 -6 -36 -6q-25 0 -25 28q0 6 1 10l30 16l-1 19q9 6 9 17q0 2 -2 12l3 -2l-5 21l8 12l-4 17l4 7l-10 5l16 31l-3 18l6 13v17
l3 7l-4 18l3 10l-3 19q8 26 8 46q7 6 7 13q0 4 -2 10q-5 5 -5 14q0 11 5.5 27t6.5 21l7 46l-7 21l6 39l-4 25v17l5 6l-8 28l9 8q-2 3 -2 8q-4 6 -4 11v31q0 7 3 13l-5 -3v2l-4 -1l-76 17l34 44h11q10 0 32 2l-1 -4l15 10l21 -3l2 -5h2l19 3l6 -1l3 1h5q4 -1 5 -1q19 0 29 10
l12 -3l15 11l12 -5q9 2 23 2l26 5l22 -19q-2 -6 -2 -7q0 -9 21 -33l-46 -8l-13 -9l-18 2q-10 -8 -32 -8q-14 0 -22 2q-3 0 -10 -1t-11 -1q-10 0 -16 1l-9 -4v-6l9 -17l3 -16q4 -7 4 -17q0 -6 -1 -9l2 -35l4 -27l-4 -15l4 -28l-4 -12l4 -26l-5 -12l5 -19l-5 -3q-1 -21 -5 -44
l1 -20q3 -5 6 -5h1q-3 -12 -6 -18l1 -8l-3 -1l-2 -4q-4 -12 -4 -28l4 -31q-6 -10 -6 -17q0 -2 1 -5v-6q0 -1 -2.5 -8t-2.5 -14v-34l-3 -16v-24l4 -18v-33q0 -15 -9 -25l21 5l28 2l27 9l11 -4l16 3l23 13l8 -13l17 -1q10 7 22 7q6 0 18 -4q22 -11 26 -30z" />
    <glyph glyph-name="backslash" unicode="\" horiz-adv-x="432" 
d="M443 -14q-6 -27 -27 -27q-18 0 -28 23l-7 6l-15 25l2 5l-3 9l-14 7l-7 15l-14 17l-4 7l-20 18v14l-17 24l-12 4l-6 17l-25 30l-20 2v29l-2 5l-57 70l-5 15l-42 49q-1 8 -7 14q-11 9 -11 10l-14 20l-13 16l-6 16l-27 33q-23 41 -36 55q-22 14 -22 29q0 14 7 29l19 5l13 9
l48 -5l3 -21l4 -2v-16h2q8 0 15 -5l2 -26l9 -15l14 -5l-5 -18l28 -27q-8 -12 -8 -11q1 -1 4 -1h4q15 -13 18 -24.5t5 -21.5l-3 1l18 -11l7 -12l15 -13l12 -19l2 -11l7 -9l16 -4l3 -17l15 -6v-14l13 -11l3 -8h6l17 -32v-13l12 -21q9 -12 13 -20l18 -23v-3l14 -8l7 -24
q14 -8 17 -26l11 -12l-1 3l4 -5q16 -7 19 -27l23 -36z" />
    <glyph glyph-name="bracketright" unicode="]" horiz-adv-x="418" 
d="M327 -53l-34 -44q-30 0 -43 -2v3l-14 -9l-21 3l-2 5h-2l-20 -3l-5 1l-3 -1h-5q-4 1 -5 1q-17 0 -29 -10l-12 3l-15 -11l-12 5q-20 -2 -23 -2l-26 -5l-22 19q1 2 1 7q0 10 -20 33l46 7l13 10l18 -2q11 8 32 8q14 0 22 -2h2q4 0 6 1q10 2 15 2q4 0 14 -2l8 4v5l-8 18l-3 16
q-4 7 -4 16q0 6 1 9l-2 36l-4 26l4 15l-4 28l4 12l-4 27l5 12l-5 18l5 4q1 21 5 44l-1 20q-5 5 -6 5l-1 -1q1 3 2.5 9t2.5 9v8l3 1l2 4q4 12 4 29l-4 30q6 12 6 17v5q-1 4 -1 5t2.5 8.5t2.5 15.5v33l3 16v24l-5 19v33q0 13 10 25l-22 -5l-28 -2l-26 -10l-11 4l-16 -2
l-23 -14l-9 14l-16 1q-11 -7 -20 -7q-2 0 -20 4q-24 14 -26 29l-14 14q18 24 54 27q17 -2 38 -9l17 4l8 -2q12 4 21 4q4 0 14 -2q9 3 21 3h21q2 1 5.5 2t4.5 1l13 1l8 3l17 27l39 -15l6 -3q23 7 35 7q26 0 26 -30q0 -6 -1 -9l-30 -15l1 -19q-9 -7 -9 -18q0 -4 2 -12l-3 3
l5 -21l-8 -13l3 -17l-3 -6l10 -6l-16 -31l3 -17l-6 -14v-16l-3 -8l3 -17l-2 -10l2 -19q-7 -28 -7 -47q-8 -6 -8 -13q0 -4 4 -10.5t4 -12.5q0 -10 -5 -26q-6 -19 -7 -23l-8 -45l8 -21l-6 -39l4 -25v-18l-6 -5l9 -28l-10 -8q3 -9 4.5 -10t2.5 -9v-31q0 -7 -3 -13l5 3v-2l3 1z
" />
    <glyph glyph-name="asciicircum" unicode="^" horiz-adv-x="1000" 
d="M797 438h-48l-250 205l-251 -205h-47l251 276h95z" />
    <glyph glyph-name="underscore" unicode="_" horiz-adv-x="412" 
d="M406 -145h-400v39h400v-39z" />
    <glyph glyph-name="grave" unicode="`" horiz-adv-x="500" 
d="M325 514l-16 -23l-34 9l-7 5q-3 3 -8 7q-17 2 -21 10q-2 0 -9.5 1.5t-13.5 1.5l-9 12q-7 5 -10 11q-7 2 -18 12q-16 6 -23 18l-10 10q-10 2 -21 18l-1 3l-20 5l-2 21l7 8l9 15l16 5l14 14l22 -10l14 -4l11 -15l20 -21l10 -18l11 -8l6 -12l13 -5l7 -10l14 -6l4 -5
q8 -4 15 -12l3 -2q13 -6 16 -13z" />
    <glyph glyph-name="a" unicode="a" horiz-adv-x="515" 
d="M442 405l-10 -13l8 -24l-13 -15l-5 -21l-3 -5l2 -5q0 -14 -7 -21l-2 -3v-4q3 -7 3 -13q0 -5 -1 -7l1 -4l-4 -11l3 -12l-8 -8l3 -14l6 -7l-9 -8v-16l-7 -16l5 -16l-6 -8l10 -7l-14 -23l-1 -3l10 -2l-7 -23v-4q0 -7 -1 -11l1 -3l16 -2l13 -20l-7 -15l11 1q6 -12 7 -21
l-15 -15q-7 -7 -20 -14l-17 -9l-5 5l-10 -6l-31 36v17q-6 20 -6 37v6l-6 59l8 42l-6 24l-17 -28l-9 -26l-8 -4l-14 -22l-25 -23l-7 -12l-22 -19l-5 -13l-32 -20l-34 -38l-19 -4l-13 -10q-25 1 -38 19q-45 22 -47 63l5 3l-1 6l-1 12l-6 13l6 14l2 21l7 33v4q-1 2 -1 4
q0 4 2 10q-1 2 -1 8q0 7 6 23l7 3q-6 5 -6 11q0 4 1 6q-1 3 -1 7q0 12 12 18q3 10 11 20l-5 8l12 15v4q0 19 13 35l-1 18l4 4v3q-1 2 -1 3q0 6 4 10v6q4 10 21 30t25 35l5 -5l11 5l5 2l33 15l77 -4v-7l24 -5q23 0 30 -15q0 3 1 7v4l21 -19l19 -4l36 9l13 -25zM347 353l-4 7
l-8 2l-31 25l-20 3h-16l-2 2l-8 -3l-9 5h-26l3 -4l-23 -8l-4 -5l-3 -1q-18 -15 -25 -25l-7 -24l-4 -9l10 -14l-17 -13l2 -4q-11 -19 -11 -37l-8 -10v-18l-8 -9l-2 -9l-3 -2v-14l-3 -5q0 -12 -2 -19l2 -5l-9 -19l4 -6l-7 -10l7 -19l-11 -14l2 -19v-3l4 -2l5 1q5 5 10 9l-2 8
l14 2l3 7l59 48l6 2l7 17q6 2 17 8l6 16h8l-3 17l14 2q2 4 6.5 10t9.5 11l51 68l8 15l-1 4l7 11l2 11l9 8z" />
    <glyph glyph-name="b" unicode="b" horiz-adv-x="485" 
d="M435 156l-9 -9l3 -24l-23 -28v-12l-8 -8l6 -9l-20 -19l-13 -22l-21 -12q-12 -12 -26 -13l-8 -18l-10 9l-10 -13q0 5 -8 13l-7 4l-8 -9h-3l-8 -10l-13 8l-21 -9l-13 12q-3 -1 -9 -1q-16 0 -40 9l-14 7l-5 5l-16 6l-7 21q-17 1 -35 8l-21 45l3 7l-5 8v18l-6 10l4 12
q-3 11 -3 19q0 2 1 4v4v31l4 10l1 59l3 14l-5 6l9 28l-3 9v22l5 6l-1 14l-4 10l9 32l-7 40l3 3v13q1 5 1 16q0 14 -2 22l2 7l-8 29q2 7 7 10q-2 3 -5 7q3 6 3 12q0 8 -7 18q0 9 3 16l-4 10l5 11l-16 34l16 3v2l35 18l18 -21l2 -10l15 -11l-1 -15q0 -8 -2 -22q7 -7 7 -13
q0 -3 -2 -7l4 -4l-4 -16l7 -18l-1 -7l13 -6l-7 -13l-6 -26q-1 -6 -4 -18q3 -6 3 -27l-2 -8l3 -8l-5 -16q0 -9 -3 -18l-1 -3q5 -5 11 -13l-11 -21l3 -12l-2 -6q0 -8 -3 -19l1 -4l-1 -11l-1 -15l-3 -32l13 -3l2 31l7 21l4 -2l6 15q4 18 16 34q2 4 6 8l3 3v-2l4 12l12 13l7 7
l1 4l6 8q0 13 9 19l2 8l13 4l5 3l2 6l-1 14l15 3l8 3l-7 7l16 4l17 13h31l19 -11l6 -1l17 -24l1 -10l8 -1l3 -21l10 -8v-15l6 -7l7 -4l4 -32v-3q0 -5 6 -13.5t6 -14.5t-3 -12l12 -5q-2 -14 -7 -22l3 -22q4 -10 4 -15q0 -3 -2 -11l-1 -43l4 -9l-4 -16zM368 231l-2 18v17
l-7 46l-9 33l-13 29l-22 35l-5 -2l-4 -5h-5q-4 -18 -22 -19l-21 -30l-12 -11l-4 -15l-10 -12l-10 -25q0 -17 -13 -37l-6 -9l1 -16l-16 -22l-8 -35l-7 -4q0 -1 1 -4v-5q0 -18 -9 -36l6 -18l-12 -5l-2 -4l-8 -8l22 -5l13 -7l20 3l18 -8v-14l4 -4h24l16 3q6 9 18 9h3l8 3l-4 12
h28q9 26 33 46v10l12 22v23l3 26l-2 16z" />
    <glyph glyph-name="c" unicode="c" horiz-adv-x="431" 
d="M415 156l-19 -18l-1 -6q-3 -18 -17 -29q-24 -45 -67 -66l-15 -12l-13 -2l-16 -12l-11 -1l-25 -16l-16 2l-18 -8l-14 4l-7 -6l-19 3l-19 -3l-7 6l-20 4l-29 22l-16 20q-15 19 -15 32v3l-10 15v13q-3 12 -3 22v7l-5 17l5 12l-4 8l12 19l-3 16l8 26l4 6l4 24l-2 4l12 13
l2 10l8 23l13 28l18 16l4 9l6 11l2 10l16 19q6 2 14 4q4 19 50 22q39 -8 50 -21q11 -2 17 -9l21 -1l14 -18q5 -10 7 -20l8 -8l-3 -15q1 -7 1 -22l5 -4v-15l4 -31q-21 -21 -48 -24q-14 26 -35 39l-2 33l-6 11v8l-10 12l-5 4l-9 -3h-13q-13 -3 -25 -19t-24 -34l-1 -10l-6 -5
v-18l-13 -14l-16 -44l1 -12l-8 -18l3 -22l-6 -3l-2 -28l1 -5l12 -12l5 -21l14 -4l1 -8l17 -3l13 -3q7 4 17 4h7q12 5 22 5q7 3 18 6q12 16 34 16h6q5 0 7 5q11 17 35 22q28 25 32 40q14 8 18 25l6 4l3 23q46 -7 46 -46v-8z" />
    <glyph glyph-name="d" unicode="d" horiz-adv-x="567" 
d="M511 72l-12 -42l-8 -12q-16 -24 -31 -24q-12 0 -32 17l-20 29l-9 18l-4 18l-9 30v44l-3 38l3 21l-2 6l-25 -35h-3l-1 -3l-17 -27l-28 -30l-21 -29l-22 -21q-9 -16 -21 -28l-20 -14l-12 -16l-22 -7l-9 -11l-22 -4l-18 -11l-3 1l-2 -5l-31 4l-37 26q-15 17 -19 37
q2 1 4 3.5t3 3.5q-1 1 -11 5l-9 20l5 7l-5 12l5 14l-2 18l7 29v31l7 9v21l7 13l2 15l2 2v13l10 16l2 14l6 10l3 6l4 24l7 21l5 5l2 13l13 14q2 5 9 21l25 11l16 17l46 13q11 0 17 1l7 -4l2 8l23 2l8 -3l7 1l6 -5l19 -1l4 3l5 -4l10 -1v-7l4 -3l20 -4l15 -17l20 -15l5 -10
l1 -1l4 14l6 13l-2 23l4 42l-6 16l8 12l-4 11l3 28l-3 24l-9 7l14 16v11q0 17 -13 37h6l11 16q15 3 27 3q14 0 23 -6q16 -5 16 -48h-5l-1 -4l9 -8l-6 -16l9 -19l-5 -6q3 -7 3 -14t-3 -15l5 -6q2 -4 2 -13q0 -11 -5 -20q-5 -63 -9 -78q1 -3 1 -9q0 -8 -3 -17v-6q0 -12 -4 -27
l-3 -30l-5 -8l3 -9l-5 -15l5 -13l-8 -31l5 -23l-3 -13l2 -20q3 -7 3 -13q0 -5 -1 -8l6 -6l-8 -20l8 -21l-3 -6l3 -6l-3 -6l3 -3l9 -8l17 -2zM362 316l-4 2q-7 4 -12.5 13l-10.5 18q-10 3 -17 13h-6l-18 11l-23 5l-22 -3l-23 -6l-7 6l-8 -3v-4l-9 -2q-9 -16 -28 -28l-8 -17
l-8 -6l-7 -16l-3 -33l-9 -8v-18l-10 -7l2 -24l-17 -33l-3 -16l-2 -26l6 -11l-7 -11l6 -7l-10 -18l5 -9l4 -12l6 -4h7l9 8l8 -1l17 7l2 6l19 7l2 6l12 7v2l25 26l12 5l6 13l13 2l16 18l-3 2l7 7l10 21l9 9l5 22l16 5l11 16l4 3v18l15 7z" />
    <glyph glyph-name="e" unicode="e" horiz-adv-x="377" 
d="M359 82q0 -12 -18 -30q-5 -16 -15 -26l-6 -1l-11 -19l-18 -3l-19 -12l-10 -18l-11 2q-11 -5 -18 -6l-6 -9q-3 1 -9 1q-13 0 -25 -18l-14 12q-4 -1 -12 -1q-13 0 -22 4h-17l-8 5q-38 6 -48 29v3l-12 6l-6 17l-12 8v15l-12 44l2 36l4 16v21l5 16l-1 7l7 12l-2 -2q0 9 5 19
v5l-3 24q0 17 15 30q1 2 1 6t-3.5 16.5t-3.5 17.5q0 12 6 25q8 -12 23 -12h3q2 4 9 9q8 25 22 42l4 4q0 4 6 23h8l2 5l8 2q5 8 6.5 9.5t21.5 12.5q4 7 12 13q4 2 10 4l4 6q27 9 34 9q8 0 15 -4l5 1l7 -4q12 -9 24 -15l17 -13v-4q23 -18 23 -51l-3 -10l3 -33l-9 -6l-10 -26
l-19 -21l-1 -16q-32 -23 -59 -37q-9 -14 -28 -14h-3l-19 -12h-16l-24 -10l-18 9h-2q-2 -8 -4 -24l-8 -6l-1 -12l-6 -17q3 -24 3 -31l-4 -3q0 -13 -1 -19q0 -1 -1 -3v-3q0 -8 8 -13q3 -12 10 -15l7 -6l22 -6v-3l8 -2l34 -2l20 3l10 7l6 2l10 15l5 1l25 8q4 7 13 12l3 5
q20 4 23 21q14 14 36 14h4q19 -22 19 -36zM260 370q0 3 -3 12l-5 1l-2 -1h-4q-2 -1 -4 -1q-1 0 -3 1h-3l-10 -7l-9 -1l-5 -2l-17 -22l-11 -8l-16 -28l-9 -6q-3 -17 -14 -29l-4 -7q11 7 25 7l7 3l3 9l14 -1l8 12h6l11 -4l5 15h7v11l13 3l3 3l2 9l13 19q2 5 2 12z" />
    <glyph glyph-name="f" unicode="f" horiz-adv-x="412" 
d="M494 597q0 -20 -24 -40l-8 5l-16 -9l-20 39q-2 15 -8 25l-6 -3l-17 9l-6 1l-13 -8l-21 6l-7 -3q-9 -10 -18 -10q-4 0 -7 1v-10l-25 -39q-1 -10 -7 -37l-9 -6l-4 -11l-5 -9l5 -20l-12 -18l-4 -15l-4 -8l1 -14l-14 -36l2 -17q-1 -4 -12 -28l-1 -4q10 4 17 5l6 -1q2 1 9 3h3
l34 -2l3 2q12 2 14 2q10 0 22 -5q12 3 21 3q8 0 14 -3h9l13 -3q36 -1 36 -29q0 -8 -3 -19l-45 -13l-26 4q-11 -3 -37 -7l-5 5q-7 -7 -19 -7h-11l-28 -13l-14 7h-5q-8 -10 -20 -13l1 -6l-4 -14l6 -17l-13 -26l3 -40l-5 -14l3 -14l-10 -22l3 -12q1 -1 1 -5q0 -1 -4 -21.5
t-4 -40.5v-9q1 -1 11 -13l-7 -17l7 -20l-5 -16l11 -49l3 -54l16 -20l-9 -22q12 -21 12 -34v-3q0 -2 1 -5v-5q0 -38 -44 -40l-8 16l-12 7l-2 18l-20 56v11q-4 18 -4 21q0 5 1 7l-3 17l3 17l-3 11v22l-10 63l2 2l-2 11l2 14l-7 13l6 11v52l5 6v36l3 8l-3 31l4 12q2 17 12 76
h-4l-13 4h-15l-28 -4l-17 4l-29 -6l-10 2q-5 -1 -12 -1q-44 20 -47 31l-5 17q13 39 36 39q1 0 34 -7l58 -2l28 6l24 -1l9 -1l3 13l2 29l5 12l-3 20q0 11 8 19l-1 11l11 12l5 30l4 5l-3 13q12 14 12 23l-1 6q0 -8 15 46l7 5l1 22l2 -5v3q0 17 14 25l6 9l12 29h2q11 0 11 13v4
l28 10h8q13 4 27 4h7l5 2l22 5l26 -6q2 -1 8 -3q10 4 14 4q14 0 26 -21l14 -10l10 -20l15 -15l4 -28v-3z" />
    <glyph glyph-name="g" unicode="g" horiz-adv-x="600" 
d="M526 124l-8 -37l2 -12l-2 -3q4 -9 4 -18q0 -6 -3 -12v-2q0 -12 -9 -98l-2 -19v-4l-2 -4l-1 -4l1 -6l-3 -3l-3 -6h-4l1 -5l-2 -6q0 -7 -5 -14l-5 -16q-3 -11 -10 -20q-7 -13 -25 -35l-17 -13l-19 -16l-15 -7l-12 -9l-8 -2q-20 -11 -45 -13l-6 1l-9 -4v-2q-17 -4 -29 -4
h-39l-24 5l-21 -4l-10 9l-30 3l-20 18l-15 8q-40 15 -46 53l2 4l-3 16q12 19 22 20q8 5 16 5l18.5 -3t38.5 -4l-2 -15l12 -8v-12l-8 -10l46 -14l23 5v-7l7 2h2q1 0 13 -2l1 -4l10 5q12 6 48 6q6 4 10 8q1 0 5 -1h6q6 0 12 12q1 -3 4 -3q2 0 5 2t4 2h2l32 28l15 23l1 13
l11 14l1 13l6 12l5 27l8 25q-1 6 -1 18q0 22 6 44l-4 16v49l-8 17v28l-8 21l1 32l-1 5l-7 -2l-6 -15l-15 -13l-18 -29l-26 -18l-28 -29q-24 -25 -56 -44l-10 -12l-15 -9l-14 -7l-13 -13l-16 -8q-8 -8 -23 -11q-22 -15 -50 -15h-11q-5 -1 -14 -1q-8 0 -12 1l-18 1l-26 25
l-19 25l-8 21l-7 40l4 29l10 34l-2 11l9 31l9 18q4 13 4 31l22 41q3 8 15 17l10 17l12 13q4 13 16 23q8 4 11.5 15t37.5 20l-5 -1l5 2q3 5 14 20l12 -2l9 6q16 14 34 14h7l26 10l15 -5h18l11 -6q10 -1 16 -9l14 -14l4 -2l2 -4l9 -14l1 -5l-3 -16l2 -11l-13 -20l-29 -4
l-15 24l-14 5l-7 7h-10q-5 -2 -21 -10l-1 -8h-25q-10 -15 -22 -16q-6 -4 -12 -7l-8 -19l-7 -1l-1 -9h-14l-13 -21l-11 -7l-4 -14l-15 -21l-2 -20l-12 -12l-11 -43l-8 -8l1 -11l-12 -38l3 -12l-1 -12q7 -10 7 -21l7 -2l3 -6q17 0 22 -4q9 7 49 15q6 14 17 20.5t45 24.5l3 -1
q0 8 6 15q15 6 18 8q8 5 9 13l16 4l10 9l25 34l7 -4q1 3 22 27l24 28l2 13q12 11 28 64l-5 21l-8 14l6 15l-8 11l-2 14l-3 10l10 18q16 8 23 8q9 0 24 -9l7 -13l13 -10l2 -22q3 -9 7 -27q5 -9 5 -21v-7l2 -6l11 -16l-3 -18l6 -8q3 -7 3 -15q0 -7 -1 -11l9 -3l-7 -25l4 -19
q5 -10 5 -18t-5 -20l6 -5z" />
    <glyph glyph-name="h" unicode="h" horiz-adv-x="533" 
d="M468 10q0 -40 -43 -40q-21 0 -31 17q-10 14 -17 53v14q3 5 3 10q0 2 -1 5l-14 21l10 19l-4 21l4 12v13l2 12l-4 18l4 9v33l1 43l-7 33l4 12l-7 25l-8 -7l-22 -9l-30 -38l-12 1l-18 -29l-3 -12l-11 -5l-11 -17l-5 -11l-11 -35l-18 -22l-4 -14l-10 -8l-4 -24l-20 -18
l-3 -37h-9l-3 -6l-18 -31l-17 -18l-15 -20l-16 5h-13l-12 16l-11 36l-2 53l-3 17l3 20l-2 47l8 2l5 69l4 13l-3 21l5 3l4 32l4 11l-4 14l3 5l-2 3l3 28l-8 7l7 14l-1 29l-11 29l8 9l-7 27v16l-3 7l-5 32l-5 15l-15 29l11 14l10 17h9q22 0 33 -16l14 -11l6 -18l15 -13l-3 -14
l7 -21l-1 -2l2 -2l-1 -33l1 -44l7 -28l-5 -12l2 -17l-5 -14l3 -24l-5 -20l2 -4l-2 -61l3 -14l-6 -7l-3 -33l-4 -15l4 -27l-4 -8l-1 -20q11 3 11 12l8 8l7 13l2 19l11 16l6 20l15 16l4 19l10 1v9l1 12l12 7v8l10 2l2 16l-1 8l18 8l5 4l-2 10l9 3l7 17h12l11 7q0 7 1 10l11 5
q18 15 34 18v2q26 13 36 13q15 0 27 -14q11 -4 14 -15l9 -6l3 -14l15 -23v-80l-1 -35l4 -9v-74l-3 -13v-20l3 -22l-4 -19q4 -15 5 -25l11 -11v-8l4 -3q5 -17 5 -24z" />
    <glyph glyph-name="i" unicode="i" horiz-adv-x="328" 
d="M215 676q0 -12 -16 -22v-2q-19 -23 -33 -26l-15 -18l-10 -13l-23 -6l-10 -14l-16 -8l-26 -23l-16 15l3 25l11 18q1 14 16 24v4l6 4l1 15l16 4v9l12 2q4 20 17 29l3 2l6 6l8 24q66 -16 66 -49zM317 146q0 -23 -8 -29l-5 -4l-5 -14l-16 -5q-7 -16 -21 -25l-9 -3l-13 -14
l-12 -3q-7 -18 -29 -19q-2 -3 -9 -12q-15 -10 -31 -12l-5 -1l-7 -9h-20l-16 -12l-41 30l-19 39l-1 49l-4 12l12 88l4 4q-3 15 -3 29q0 9 6 37l5 23q-2 6 -8 13l6 19l2 23l2 3q-4 9 -5 20q1 2 2 5.5t1 5.5q-3 9 -3 17q0 24 27 22l12 -1q12 6 15 6q20 0 27 -22v-4q4 -12 4 -23
q0 -9 -2 -13l-7 -50l7 -14q0 -18 -12 -32l4 -12l-13 -38q-2 -25 -5 -38v-25l-6 -14l1 -10l-2 -23l2 -18l15 -12l12 2l2 3l8 -1l13 4l11 11l4 6l7 1l2 5l3 4l6 -4l10 10l6 -1l2 7h2l3 8l9 4l19 9q23 16 45 16h4q11 -7 15 -18z" />
    <glyph glyph-name="j" unicode="j" horiz-adv-x="272" 
d="M199 678l-20 -12l-5 -9l-8 -3q-5 -11 -21 -20l-22 -28l-12 -6l-5 -15h-3q-11 -20 -47 -43q-10 21 -10 45q0 13 3 28l10 16l7 17l16 14l8 19l6 13l-2 20l21 7l5 17l8 -2h9q14 2 23 2h10v-7l5 -4q14 -1 21 -15zM176 -15h-8l-2 -24v-35l2 -7l-2 -31l5 -27l-5 -11l3 -13
q-2 -5 -5 -36.5t-17 -55.5q-5 -21 -21 -35h-7l-7 -12l-4 -5l-22 -11l-3 -4q1 -1 1 -3q0 -4 -5 -11l-17 -3q-1 -1 -4 -1.5t-5 -0.5l-16 -9l-11 2l-2 -2h-12l-12 -7l-13 10l-20 10l-11 2l-7 6l-21 3l-9 9l-6 3l-30 17l-9 7l-6 9l-8 3l-3 4q-7 1 -12 9l-2 3l-11 19l-16 11
l-8 13l-8 2l-12 27q-4 9 -4 17q0 10 6 18l32 -2l14 -20l19 -12l4 -9l16 -7v-11l5 -1l4 -7l16 -8l6 -4l7 -4l9 -9l24 -12l14 -1v-7q6 -3 12 -5h4q6 0 13 -4q7 0 12 -4h7q4 0 12 2q12 9 20 12l17 11l2 6l12 9l-1 5l1 4v2l6 9l10 24l-5 10l15 40v18l-10 8q8 19 18 27
q-6 19 -8 39l1 3l-3 2v5q0 13 7 31l-8 21l5 13l-11 24l10 7l-3 4v51q-4 9 -4 19q0 11 6 23v3l2 31l-12 35l5 16l-5 26l4 7l-8 48v49l-5 11l1 7l-6 15l10 10q3 4 7 8q8 29 29 29q18 0 26 -20q23 0 25 -24l2 -24l-7 -11l1 -13l-1 -3l4 -11l-7 -24l4 -16l-4 -30l4 -40l-3 -13
q2 -12 2 -18q0 -9 -3 -17q1 -17 8 -56v-14l-4 -33q7 -17 7 -37q0 -9 -2 -23z" />
    <glyph glyph-name="k" unicode="k" horiz-adv-x="626" 
d="M632 74l-6 -11q0 -29 -20 -45q0 -10 -7 -16l-5 -11l-13 -9l-6 -11l-40 -21l-19 -5l-29 -2l-16 7l-13 -1l-13 9l-10 1l-40 21l-36 30l-48 40l-22 30l-18 15l-3 7l-9 11q-13 16 -31 34l-17 6l-19 38l3 15q6 32 32 36l19 -6l16 -16l17 -11h16l4 -3q8 0 13 -1q10 5 35 11l9 2
l6 13h24q11 9 23 10h2q3 7 8 17l19 9l8 8l15 25h7q4 10 8 28l9 6l-7 4l4 17q-2 4 -11 7l-12 -4l-4 8l-10 4l-3 4q-15 2 -43 4v4l-6 -4q-8 2 -12 2q-13 0 -38 -14h-14q-38 -13 -43 -19l-22 -7l-31 -25l-29 -29v-4l-19 -33l-6 -19l-4 -2v-4q-3 -6 -5 -11l-6 -3l2 -3l-3 -5
q-1 -2 -1 -5q0 -5 4 -9q0 -21 -10 -27q-2 -4 -2 -8q0 -3 1 -5q0 -17 -7 -28q-5 -5 -6 -7l3 -15l-3 -20l1 -16q-8 -18 -8 -29q2 -10 2 -11q0 -11 -12.5 -23t-23.5 -12q-14 0 -29 17l-11 31l3 18l-3 39l3 10v32l2 13v11q0 20 2 40.5t2 21.5v17l1 9v28l3 8l-3 12l4 33v35l-4 20
l5 8l-1 4l-4 54l-7 33v9l6 34l-4 13l-2 24q-2 24 -2 21q0 35 55 37l22 12l-4 -49l4 -28l-7 -29l2 -32l5 -18l-3 -17l2 -24l-3 -20l5 -21l-2 -5l4 -10l-5 -28v-6l5 -19q-5 -2 -5 -15l-3 -24l2 -9l12 21l6 23l14 23q0 10 7 18h11l8 17l23 11q14 14 32 20l6 5l16 8l13 3
q21 18 91 24l78 -6l16 -9l8 -1l17 -18l1 6q13 -6 19 -19q5 1 4 1q4 0 8 -3l21 -43l-1 -5q5 -10 5 -18q0 -14 -11 -28v-6l-14 -37l-21 -29l-6 -1l-12 -16q-11 0 -17 6v-16l-8 -5l-6 -11l-18 -5q-4 -1 -9 -9q-69 -27 -77 -27q-3 0 -11.5 1.5t-14.5 1.5q-4 0 -6 -1q1 -3 11 -22
l13 -8l18 -32l27 -16l2 -4l9 -5l13 -15l24 -19l32 -13l18 -5l13 1l7 3q20 3 38 16l17 31l10 12l6 18q15 5 24 5q23 0 30 -26z" />
    <glyph glyph-name="l" unicode="l" horiz-adv-x="327" 
d="M322 109q0 -11 -8 -18q-8 -12 -26 -25l-10 -7l-9 -12l-9 -4l-14 -9l-10 -1l-4 -4q-20 -6 -31 -20q-7 -5 -13 -5q-4 0 -7 1q-17 -10 -44 -10q-23 0 -30 4l-18 10l-6 10v3q0 13 -11 21l-4 20l-8 9l-5 37l-1 22l1 16l2 6q-3 6 -3 13q5 42 5 53l-9 18l9 15l3 25l-2 17l6 15
l-6 20l9 14l1 9v35l3 7l-1 42l3 43l-4 8l-1 30l3 27l-3 10l6 60q42 10 37 10q16 0 26 -17l2 -8l15 -15l-8 -21l2 -4q-2 -19 -5 -25l2 -21l5 -19l-7 -21q0 -17 -5 -31q0 -5 -2 -16l-1 -6l9 -11l-4 -11q2 -8 2 -11q0 -6 -4 -16l2 -9l-6 -32v-21l-7 -21l4 -19l-4 -44l3 -5
l-5 -23l-2 -28q-2 -6 -2 -7q0 -17 -1 -28l5 -14l-2 -15l6 -13l-1 -5q6 -5 11 -16h9l13 -4l6 8l9 1q6 2 9 2h3q10 2 16 10l6 3q7 11 23 15q5 4 19 16q0 14 17 21q15 0 20 5q20 -3 25.5 -10.5t5.5 -28.5z" />
    <glyph glyph-name="m" unicode="m" horiz-adv-x="901" 
d="M889 118q-5 -14 -13 -21q-3 -11 -9 -16q-5 -10 -12 -14l-4 -6q-4 -6 -11 -6l-5 -10h-7l-5 -9l-8 -3l-6 -7l-5 -4q-15 0 -25 -9q-13 -5 -27 -5t-28 7q-16 1 -16 5l-14 2l-3 3l-6 12l-11 9q-11 13 -12 24q-7 10 -14 38l-10 16v9l-7 30l1 12l-6 31l3 25l-5 7l-10 -25
q-19 -21 -22.5 -25.5t-8.5 -4.5q-1 0 -4 1l-6 -11q-1 -1 -1 -4q0 -6 7 -7q-2 -2 -10 -14q-4 -8 -7 -11l-3 5l-2 -14q-13 -10 -18 -30q-10 -13 -31 -37l-13 -14q-5 0 -5 -2v-2q-6 -14 -21 -22l-12 -15h-7l-24 -9q-30 2 -37 26l-1 11l-6 13v11l-8 29v9l-6 10l4 31q-1 5 -1 14
q0 8 1 11l-1 6v4l-5 11l8 19q-2 8 -6 26l3 9l3 29l-8 21l2 17l-3 9q-1 3 -7 19l-7 -4l-13 -16l-12 -11l-24 -30l-2 -11l-17 -18l-7 -14l-7 -8q-3 -22 -22 -31l-1 -14q-6 -6 -12.5 -16t-9 -11.5t-8.5 -6.5l-12 -17q0 -17 -13 -24v-6q-6 -8 -16 -16l-1 2l-3 -14q-8 0 -15 -19
l-3 -4q-1 -16 -17 -24l-14 -13q-16 -8 -21 -8q-26 0 -34 43l-4 22q-1 2 -1 6q0 7 3 14l-5 19l2 16l-2 16q2 21 7 26q-3 21 -3 24v18l10 18l-6 6q-2 8 -2 9q0 7 12 24l-7 19l4 12l-6 29l2 14l-5 22l1 15l-9 18q20 39 43 39q12 0 23 -10l2 -10q17 -9 17 -27q0 3 -3 -21l-4 1
l9 -17l-6 -8l-1 -4l6 -46l-2 -39l-3 -7l4 -16q3 -4 3 -10q0 -8 -8 -16q0 -14 -5 -23l3 -30v-12l1 2l6 9l14 25h3q6 0 13 19l7 19q2 6 15 19l4 18l12 18l4 14q5 3 10 7l1 3q3 4 22 21l6 3l2 10l5 3q5 21 25 28l-4 3l4 2q-1 1 -1 3t2 6l16 7l3 16h11q0 1 2 7l20 16q14 4 19 4
q12 0 33 -7l10 -14l4 -2l5 -12l14 -19v-13l9 -10v-15q11 -24 11 -41l-3 -12l6 -17l-11 -11l4 -22l-1 -6l-1 -5q-2 -10 -2 -15t5 -20l-3 -11l3 -14l-3 -3q2 -14 6 -47l-1 -4l32 35l10 19l13 19v2q4 16 13 22q0 6 10 15l8 5q4 17 21 28l5 14l9 12l10 10q9 7 14 22l8 12l4 15
l11 6l11 14l11 24q-4 0 -4 2l2 4l7 6l8 16q17 6 19 6l4 -2l18 -1l16 -7l14 -16l3 -14l-1 -11l-5 -4l-11 -21l-4 -23q5 -5 5 -18q-4 -5 -4 -13l-4 -8q2 -5 2 -16q0 -9 -1 -13l-4 -5l4 -7l-7 -9q6 0 6 -13q2 -6 2 -8q0 -3 -2 -7q2 -10 2 -19v-2q0 -2 13 -41l2 -10l11 -12
l6 -14l6 -3l4 -6l5 -1l9 -2l5 1h3q10 0 24 8q4 10 21 21q1 5 12 19l17 12l6 12q8 5 17 5q11 0 24 -6q6 -10 6 -30z" />
    <glyph glyph-name="n" unicode="n" horiz-adv-x="670" 
d="M682 162q0 -8 -13 -21l-11 -17l-4 -20l-9 -3l-2 -6q-16 -5 -23 -25q-11 -14 -24 -20q-5 -5 -9 -7l-5 -9l-9 -2l-26 -14l-34 -4l-9 2l-15 -3l-6 7q-14 7 -20 14q-12 3 -18 19q-17 20 -17 32v3l-7 12l-2 2l-6 18l-9 19l2 23l-10 13l-15 86q-3 17 -3 29l-2 5l-5 7l-9 -12
l-36 -38l-13 -21l-7 -14l-11 -16l-8 -8l1 -5l-14 -31l-8 -10l-10 -2l-9 -9q0 -20 -19 -26l-2 -2q-9 -22 -20 -27l-9 -14q-22 -20 -29 -25q-3 -10 -11 -17q-2 -3 -7 -8q-3 -17 -28 -24l-11 -3q-20 1 -33 23l-15 25l5 24l-2 13l2 2l1 13l-11 24l8 12l-4 13l7 14l2 23l-4 4
l8 14l-3 7l-1 16l4 30q-2 10 -2 13q0 2 1 4v4l-5 8l3 32l-1 11l3 16l-4 27l18 30q31 -5 43 -13.5t12 -30.5v-9l7 -12l-3 -21l4 -40l-7 -19l3 -21v-17l-8 -11l6 -18l-6 -11l-1 -11l6 -11l-8 -21l-3 -9v-9l5 -10l17 17q0 15 10 20q1 10 8 15l-3 3l13 12l3 4v9l16 12l4 10l9 6
l39 44q-5 -6 -33 -37v-2l2 7l13 15l9 17v10l15 5l2 13l4 4l1 5v7l14 14v5q-1 3 -1 4q0 18 20 20q9 18 27 21l6 9l2 2q9 13 27 18l9 11h24l12 -14l11 -6l1 -3l7 -2l2 -21l17 -10l-7 -22l11 -24v-28l8 -38l2 -36l9 -21l6 -26q6 -6 9 -17l18 -5v-20l10 -11v-3l4 -1l4 -6l4 5
q-2 0 5 -1q11 0 23 20l12 3l3 5q3 8 12 12l7 -1l4 4l1 5l3 4q10 7 13 21l11 12l2 9l7 16l19 7l27 -9l9 -29q0 -1 1 -2v-3z" />
    <glyph glyph-name="o" unicode="o" horiz-adv-x="427" 
d="M396 234l-6 -18q0 -26 -3 -41l-6 -10v-11l-5 -7l-3 -14l-11 -11l-7 -25l-8 -3l-4 -11l-12 -7l-8 -17l-12 -6l-1 -12l-19 -7q-13 -18 -32 -23l-4 -1q-14 -21 -37 -21q-10 -6 -23 -6l-10 -7l-10 -3l-13 -10l-13 1l-14 -4l-17 7l-43 3l-15 23l-22 23l5 16l-15 34l7 13l-5 24
l5 15q-2 14 -2 20q0 19 10 28q1 10 13 33h5l-2 7l3 14v15q8 9 9 12l-3 14v4q7 14 7 29l21 29l2.5 2t4.5 4l-1 4h4l15 17l1 23l25 9q14 9 18 30h13q11 6 20 6t17 -4l11 -1l26 10l14 -13l11 -7h8l15 -8h8q13 -12 30 -33l2 -5l7 -4l21 -27l19 -47v-10zM330 210l-1 5q-7 7 -8 15
l3 5l-9 19l2 19l-4 5q-13 10 -14 16q-9 4 -9 20l-6 1l-12 20l-9 7l-21 8l-8 2q-6 0 -8 4l-20 -22l-13 -28l-21 -11l-3 -11l-10 -5l-4 -26l-12 -6q-4 -14 -4 -26l-16 -15l5 -3q0 -12 -9 -21q-3 -9 -8 -20v-8l-3 -4l1 -12l-11 -27l2 -5v-28l-4 -14l1 -14l9 -13l14 -5l5 -2l8 4
l26 -2l4 10h4q6 0 7 -3l9 3l8 -3l13 9l2 3l9 2q7 11 33 22l2 5l20 14l11 16l16 8l1 5l5 11v13l12 10l4 7l5 6q-4 12 -4 17q0 9 6 19z" />
    <glyph glyph-name="p" unicode="p" horiz-adv-x="468" 
d="M431 148l-12 -30l8 -20l-4 -6l-4 -16l-8 -14l-4 -2l-2 -19l-18 -2q-14 -13 -29 -21l-6 1l-15 -5l-9 -1l-19 -7l-22 10l-3 2l-17 -1l4 -2l-28 4l-25 -6l-10 9l-21 -2l-8 6q-1 0 -8 -1v-6q0 -9 -3 -18l3 -19l-8 -10q2 -22 2 -33l-3 -25l4 -38l-8 -10l4 -15l-3 -10l6 -3v-15
q2 -6 2 -9q0 -9 -11 -15l4 -14l-5 -8l-2 -40q-3 -70 -31 -70q-6 0 -35 8l3 30l-6 44l10 18l1 22l-4 30l8 13l-9 23l7 12l-6 20l8 18q-2 6 -7.5 11t-5.5 7q0 3 7 6q-1 3 -1 10q0 13 6 34l-6 10l3 13l-7 9l9 11l-4 29l6 41l-7 13l11 19l-12 11l7 19l-7 5l1 17l6 21v4l1 4v11
l1 4l-5 16l5 17l-5 13l4 15l-4 4l3 20l-3 11l2 10l-3 7l-36 -16v6l-7 -1l-11 -10h-9l-12 -16l-10 4l-5 -10q-49 29 -49 46q0 12 9 20l-1 15q28 16 53 17l7 7l32 13l7 7l28 -2l5 2l9 35l24 -5l16 -26l9 9l18 -13q13 0 25 -5l5 -9l7 3l8 -6q7 0 11 -1l-1 -6l22 7l11 -12l19 -6
l13 -16l24 -15l1 -2l19 -6v-6q8 -6 12 -16l8 -5l6 -11h12v-20l7 -7l2 -7l10 -2q2 -23 13 -39v-7l10 -10l-2 -16l8 -18l3 -21zM356 133l-1 5l1 4l-6 18l4 9l-4 8l-1 10l-8 16l-4 11l-15 26l-12 10l-7 17l-9 4l-16 21l-16 -2l-12 16l-10 -2l-7 13l-4 1h-14l-10 -5l-8 8l-10 -2
l-4 7l-18 3l1 -12l-2 -19l4 -11l14 -13l-11 -24l1 -15l-5 -30q3 -19 12 -32l-4 -11q1 -1 1 -2q0 -3 -8 -9l7 -9l-5 -12l-2 -13l3 -14l-1 -13h21q4 2 11 2q9 0 16 -6q1 0 4 1h3q3 0 11 -2q6 3 11 3q8 0 15 -4h9l8 -2l20 6l16 -10q9 -3 7 -3l19 19l2 14l5 2l-3 8l7 8z" />
    <glyph glyph-name="q" unicode="q" horiz-adv-x="603" 
d="M616 -281l-12 -8l-14 -16l-19 7l-14 -10l-14 9h-29l-1 2l-30 21l-3 5l-10 2l-7 19q-11 15 -12 22l-10 11l-14 48l2 2l-6 11l5 9l-5 17l-3 30l-5 27l2 9l-2 8l4 19q-1 6 -4 22l4 16l-3 8l3 33v40l-3 8l3 13l4 61l-1 18l-9 -5l-3 -6l-7 -6l-3 -6q-5 -10 -13 -17l-21 -18
l-21 -29l-17 -8l-2 -12l-15 -11l-17 -14l-12 -4l-12 -12h-10l-7 -4l-14 -4l-8 -11l-13 -3l-14 -2l-5 -3l-9 -11l-15 1l-3 -2l-13 3l-11 -2l-16 -8l-13 7q-8 2 -12 6h-16l-1 4l-17 14l-14 6l-7 19l-6 11l-4 14l-5 9l1 16l-4 16l5 20q0 28 7 38q-1 1 -1 2t1 5t1 6q0 6 -2 9h4
q6 0 6 4l-1 3l3 4v7l4 5l-2 6l10 11l9 20h5l8 26l5 3l1 11l10 2q1 1 8 6q7 16 23 20l14 16l-3 -2l8 5v9l18 14l8 2l8 4l3 9h9l5 7q18 5 23 5l5 15h28q8 2 11 2h4q2 -1 3 -1l6 6q5 2 14 2t13 -1h6l3 3q15 0 27 -7l13 -3q8 2 11 2q9 0 16 -7l12 -15q0 2 1 -5q0 -9 -8 -20v-4
q0 -11 -9 -20l-23 -7l-4 3l-10 3l-10 -7l-13 7l-11 -3l-11 3l-17 -14l-9 7q-8 -5 -10 -5q-3 0 -3 4h-10q-3 -4 -3 -9l-9 -5l-8 -10l-8 -1l-8 -3l-10 -10l-10 -4l-9 -13l-13 -12l-37 -48l-10 -31h-7l-15 -35v-18l-6 -9l2 -34l2 -8q11 0 22 1l17 5l6 2l8 -1l7 7l11 1l5 -6h5
q2 0 3 -1l8 7l12 4l2 10l22 5l5 4l10 5l16 4h4q11 0 11 5q-1 6 -1 5q0 1 1 3q6 1 21 21l5 3l5 11l8 5l11 2l10 8l9 13h7l13 18v2l10 7q3 13 15 17l7 9v7l3 2l-2 15l13 9l6 6l-1 3l-3 4l5 16l-4 11q3 10 5 10q-1 3 -1 8q0 8 3 29q1 0 4 1h5v15l9 8l19 9l15 -8q13 -1 13 -5v-1
h2q3 0 15 -13l6 -17l-2 -16v-7q0 -19 -8 -39l-2 -5q-3 -12 -3 -15l-4 -34l3 -35l-6 -6q1 -16 1 -41l-5 -15l2 -27l-9 -40l2 -14q5 -14 5 -37l-4 -5l3 -17l-6 -18l3 -14l-2 -17l7 -14l-2 -12l2 -14l-2 -4l4 -4l-2 -20q8 -24 9 -40l3 -12l6 -2v-19l9 -4v-14q4 -4 16 -24l19 -8
h12q10 2 15 2q18 0 38 -14v-36z" />
    <glyph glyph-name="r" unicode="r" horiz-adv-x="391" 
d="M424 372l-8 -33l-37 -5l-20 -13l-13 6l-14 -8l-15 -6l-10 -7v-4l-21 -10l-14 -18h-7q-16 -17 -23 -21l-14 -23l-5 -2q-3 -8 -7 -24l-14 -5l-6 -12l-8 -10l-2 -15l-8 -3v-15l-3 -3q3 -5 7 -11l-15 -6l-2 -13l-10 -17l6 -13l-13 -18q2 -10 2 -14v-4q-1 -3 -1 -5l2 -9
l17 -18l-13 -23l-12 -9l-28 -14l-37 15v23l-4 9l3 15q-2 16 -2 24q0 3 1 8v7l-1 10q-7 7 -7 16q0 8 7 18q0 5 -2 30l3 3l-3 13l2 12l-2 7l3 23l-6 10l4 11l-4 13q1 6 1 16q0 15 -4 20l4 6l-4 18l-9 13l5 16l-4 6l-4 24v8q-5 6 -5 15q0 20 44 34l25 -5l5 -19l10 -13l-3 -27
q3 -20 7 -44l3 -16q1 -2 2 -11q0 -6 -5 -13l3 -20l-2 -22l-4 -10l3 -4l2 -10q6 7 7 15l4 15q3 6 9 9l4 15l14 8l2 12l11 12l8 15q13 14 25 18l2 3l9 14l10 2l3 3l4 6l11 6l6 7l6 -1l8 4l4 6l12 6l17 11l24 8q14 2 15 2v-1q-1 0 -1 -1h1q4 0 12 4q5 4 14 4q4 0 14 -2
q26 -1 29 -24z" />
    <glyph glyph-name="s" unicode="s" horiz-adv-x="454" 
d="M418 82l-12 -14l-11 -26l-8 -6l-7 -14l-20 -2l-13 -13h-20l-12 -10l-11 3l-13 -3v-8l-37 3l-16 -1l-12 -6l-10 6q10 1 16 1q-8 -1 -48 -4l-3 1l-8 1l-13 -7q-6 4 -22 9q-22 2 -29 2h-8q-7 1 -15 1t-16 -4l-14 9l-8 2q-3 0 -11 3q-37 4 -37 62v9l19 14l24 9l18 -9h14v-3
q10 -4 16 -16l8 -1v-13l13 -3l3 -2l128 8l31 5h3l2 5l14 2l2 3q21 3 39 12l1 5q-1 1 -4 7l-5 -1l-13 10h-9l-5 7l3 4l-11 -2l-8 9q-3 -1 -10 -1q-13 0 -26 5h-9l-7 3l-14 -5l-8 9h-3l-14 11l-31 12l-10 8l-38 7l-4 7l-28 18l-15 33l-12 17l-4 52l4 6q2 23 16 40q15 8 15 23
l15 3q4 8 16 15l15 12l63 24l11 3l20 2l33 9l63 -4l2 -5q9 -3 20 -16v-5l16 -10l-7 -24l-2 -9q-6 -25 -28 -25q-18 0 -27 17v3l-12 1l-14 -4l-13 9l-7 -5q-13 0 -24 -8q-15 0 -29 -12h-13l-9 -7l-14 -3l-2 -2l-6 -3l-9 -9l-3 -1l-9 -14l-11 -6q-4 -13 -5 -22
q1 -14 3.5 -18.5t13.5 -9.5v-5l13 -7q16 -6 24 -13h20l13 -11l23 -3l9 -6l39 -11l5 -11l4 7q13 0 35 -12l18 -3l2 -7h16l28 -16q5 -13 22 -24l11 -7l-3 -12q7 -10 7 -21v-3z" />
    <glyph glyph-name="t" unicode="t" horiz-adv-x="352" 
d="M353 359q0 -9 -18 -17q-4 -5 -15 -9q-14 -6 -20 -10l-21 7q-16 -12 -41 -12l-12 3l-9 -8h-27l-17 -11q-11 4 -21 4q-3 -2 -14 -4q-5 0 -11 3l-3 -38l1 -28l-3 -35l2 -38l3 -18v-14l14 -30q-3 -3 -3 -7q0 -7 22 -11l2 -12l7 -3l12 -8l8 -6q10 2 14 2q9 0 18 -3q4 2 17 14
q9 8 17 8h3q2 -1 3 -1q9 19 32 25q21 0 35 -13v-7q0 -34 -24 -43q-9 -21 -38 -27l-12 -11h-13l-23 -6q-8 -2 -23 -2q-8 0 -17 4h-13l-35 19l-9 3l-21 28l-12 13l-22 50l-8 47l2 12l-8 11l5 14l-5 22l7 7l2 13l-3 12l2 18l-4 16l5 5v16l-7 3l-19 -4l-18 13h-3q-30 0 -30 32v3
l-12 19l19 18l25 -4l13 2l19 -5h21v20l-13 28l13 7l-5 15l1 31l-8 13q-7 11 -7 20q0 11 5 18l3 14l8 8q27 5 36 5q32 0 35 -29l-3 -5q6 -9 6 -17q0 -1 -1 -5l-2 -6l-1 -7l4 -13l-1 -5l2 -14l-9 -12l5 -20l-4 -24l8 -9l-8 -18l31 4l55 -5l44 7l15 -1l5 1h39q31 0 31 -22z" />
    <glyph glyph-name="u" unicode="u" horiz-adv-x="618" 
d="M602 58q0 -12 -18 -29l-8 -3l-7 -9l-18 -5q-5 -7 -10 -7q-1 0 -2 1h-3q-22 -11 -53 -11h-8l-25 5l-17 8l-38 32l-8 27l-16 13q3 4 3 13q0 6 -8 20l3 24v4q0 12 -7 31l6 30l-13 -26l-15 -2l-2 -21q-8 -4 -19 -4l-11 -24l-13 -15q-8 -9 -14 -10l-3 -2l-36 -37h-4l-19 -22
l-18 -9l-10 -13l-23 -7l-33 -13l-20 10q-20 0 -28 18l-9 5q0 3 1 8v7l-16 14l4 6l-12 28l4 4l-2 2v6q-1 3 -1 5q0 11 3 21l1 26l-4 21q5 8 5 14q0 7 -6 13l11 8v12l-4 33l11 64q0 16 -9 47q3 32 42 35l8 -3l14 -2l18 -20l-6 -26l-2 -43l3 -33l-6 -12l3 -8l-5 -16v-10l-2 -3
q1 -3 1 -9q0 -13 -4 -27l5 -7l-4 -15l2 -12v-14q5 -6 5 -15q0 -8 -4 -16v-4q5 -17 5 -22l9 -9q6 4 14 10q3 10 14 13v10q6 0 19 3l2 9l17 7l3 3q7 7 23 13v4l19 14q7 19 25 25q11 11 15 13l13 17v3l4 2l9 4l5 14l21 9l4 1l7 7v9l6 2q3 16 16 24l15 34l5 18l2 4h4l7 5l-6 2
q11 18 17 38l29 1l23 -19l10 -16l-11 -43l-15 -20l-12 -39l-10 -6v-15l-6 -11l3 -18l-8 -7l4 -32l2 -45h5v-26l14 -17l13 -7l1 -5q7 -1 17 -5l25 -2l15 4l27 13q8 4 20 4q30 0 30 -26z" />
    <glyph glyph-name="v" unicode="v" horiz-adv-x="494" 
d="M513 464l-10 -17l3 -19l-15 -9l-4 -21l-9 -7l-3 -22h-3q-3 -14 -17 -22l-9 -32l-9 -14q1 -6 1 -13l-16 -14l-23 -53l-19 -31v-10q0 -14 -16 -24l-2 -18l-7 -4l-12 -16l-3 -11l-7 -5q0 -3 2 -13l-11 -9l-18 -11l-6 -10l-20 -21q-31 -54 -65 -54q-27 0 -49 28l3 -7l-35 51
l-2 12l-6 4l-1 24l-11 11v25l-26 58l2 10l-8 14l-2 11l-5 7l-7 18l-18 14l-8 33l-14 12l-8 13q-25 8 -25 41q0 28 43 45q55 -37 65 -74l3 -23q4 2 14 4v-9l16 -12l-6 -16l2 -12l9 -24l5 -5l1 -9l8 -4v-17l11 -39l2 -15l16 -32l13 -39l10 -10h2q4 0 7 8l8 3l-3 8q3 6 7 6
t8 -3q7 20 10 20q1 0 1 -3q4 12 19 20l13 19l8 20l10 8l6 13l4 3l-2 13l11 5l2 5q0 4 5 11l7 18l5 -6l4 2v3q0 13 11 22v2l7 13l5 22l7 2l13 31l9 12q3 15 14 23l9 28l7 9v21h5q12 8 20 24.5t12 19.5l5 3l28 17z" />
    <glyph glyph-name="w" unicode="w" horiz-adv-x="678" 
d="M678 404l-5 -19l2 -10l-12 -39l-2 -14l-14 -15l-5 -19l-11 -16l-16 -35l-19 -32l-29 -43l-5 -13l-15 -27l-17 -35l-30 -54l-6 -24l-16 -23l-30 10l-17 10l-16 47l-20 34v10l-12 28l-5 6l-42 88l-13 21l-11 -17l-16 -13l-23 -32l-16 -17l-9 -26l-22 -27l-2 -9l-15 -31v-15
l-10 -14l-1 -14l-10 -3l-22 -23l4 2q-10 -6 -27 -8l-7 8l-15 6v11l-6 8l-6 27l-8 18v13l-1 4l-15 43l-4 27l-10 11l2 13l-10 24v9l-8 22l-14 19l2 22l-1 7l-11 26l-2 16l-6 10q-6 10 -9 20l-17 43l14 18q6 11 25 14l21 3l7 -10l13 -6l9 -18l8 -7l-3 -16l4 -10l-3 -9l10 -16
l-2 -15l13 -45l-2 -11l6 -27l14 -32l6 -38l10 -12v-24l7 -21l1 -8l14 9l23 37l7 17l8 14q0 10 4 15h6l3 18l11 2q2 8 9 12v2q0 6 6 12l-2 7l5 2l-1 6q9 16 20 24v20l14 8l4 3l2 2q-5 10 -5 22q0 18 16 35q9 4 22 4q8 0 12 -1l19 -17l10 -15l6 -24l9 -16l-2 -11l7 -22v-9
l17 -30v-3l4 -3l20 -48l1 -13l10 -11l23 -52l5 9l18 37l11 9l8 21l10 5v15q6 5 16 10q6 3 6 5l-1 21l12 12l5 3l15 25v3q2 11 13 25l-2 11l18 22l9 22q-11 30 -11 51q0 31 32 35l27 -8l4 6l7 -9l10 -7l-3 -11z" />
    <glyph glyph-name="x" unicode="x" horiz-adv-x="481" 
d="M480 14q-24 -28 -43 -28h-2l-16 -8l-18 9l-15 4l-24 18l-24 4l-30 26l-30 39l-31 31l-1 6q-17 20 -26 36l-3 7l-10 9q-2 9 -5 13l-5 -5h-8l-11 -17l-3 -8l-15 -10l-5 -21l-17 -13q-3 -15 -11 -24l-12 -5l-1 -9l-13 -18l-21 -17v-3l-32 -33l-25 -35l-11 -17l-10 -7
l-38 -33l-22 22l6 23l10 10l2 11l11 9l7 19q1 -1 3.5 -1t6.5 -2l12 26l8 4l11 21l5 23l14 5q3 9 12 17v2q0 14 15 24q11 0 12 20l7 4l3 8l5 2q7 12 17 17l9 21l6 4v14l11 4l11 8l4 14q2 5 10 11l-7 9l-2 7l-4 2l-19 36l-17 29l-12 25l-21 23l6 13l-6 27l37 8l32 -6l4 -18
l20 -21l-2 -9l9 -20l15 -20l2 -20l8 -19l8 8v8q6 2 8 3l4 1q7 7 10 14v4l11 5l-1 3q5 5 17 14v10l13 1l12 8l3 12l15 6v3l4 -1l3 -8q12 25 25 31l8 9l17 3l33 9l14 -23l9 -8q0 -30 -27 -39l-3 -1l-63 -52l-9 -15l-15 -6l-12 -13l-14 -16l-20 -8l-4 -11h-6l13 -19l4 -16l4 -6
l10 -5q4 -8 10 -24l1 -5l24 -15l6 -25l15 -12l10 -15l16 -10l3 -7l8 -5l4 -5l11 -3l13 -20l11 2l17 -9l55 -6z" />
    <glyph glyph-name="y" unicode="y" horiz-adv-x="661" 
d="M567 189q-3 -11 -9 -25l1 -6l7 -36l-7 -38l3 -18l-6 -13l4 -44l-4 -7v-29l-1 -23l3 -10l-2 -63l8 -18l-6 -8l3 -17l-5 -5l5 -17l-9 -10v-7l-4 -9q-3 -17 -22 -49l-7 -25q-8 -4 -10 -6l-3 -3l-9 -12l-10 -15l-17 -9q-12 -22 -28 -25q-5 -5 -7 -6l-3 -3l-14 -6l-8 -8h-10
l-5 -8l-18 4l-19 -12l-18 4l-33 -5l-7 1l-5 -2l-33 6h-15l-6 6l-40 13l-34 5l-5 9l-18 2l-6 17l-12 3l-8 15l-19 7l-16 23l-29 18l2 19q-2 1 -9 39q0 16 7 39v9l10 5l6 17l4 -2l10 16l18 14l14 4l27 22l26 -2q10 10 26 10q23 -11 23 -27q0 -10 -9 -20l-14 -7l-15 -11l-15 -4
l-9 -17h-15l-6 -10l-13 -11l1 -15l-8 -14l4 -10l7 -16l22 -14l5 -15l27 -21l15 -1l18 -14h18l11 -11l14 1l8 -6l48 2l31 10l19 -1l21 12q8 3 14 3q2 1 7 4l5 8l10 -3l4 4v8q1 6 13 10q4 10 16 17q3 5 5 22l14 8l3 7q4 8 8 17l1 3l3 39l4 3v16l-4 15l6 12q-2 20 -2 27
q0 9 1 20.5t1 13.5v51l-7 13l7 21l-2 20v51l-3 13l4 7v13q0 7 1 9l-8 23v35l-11 -18l-12 -9l-12 -12l-8 -3l-3 -12l-9 -5l-1 -3l-14 -12l-19 -23l-27 -28l-10 -3l-3 -5l-30 -22h-9l-10 -10l-4 -10l-22 -7l-4 -7l-15 -2l-21 -14l-17 -4l-8 -6l-11 -2l-3 -2q-13 -14 -41 -14
q-30 0 -47 19l-22 33l-1 19l-12 36v30l-4 12l6 10l-5 22l7 6l1 10l6 12l-2 21l4 8v7q0 21 7 49l-3 27l3 25l-9 36l2 7l-4 6l12 32q4 16 4 32q12 6 24 6q9 0 18 -3l9 -20l17 -12q-3 -15 -5 -24l9 -15l-4 -10l13 -11l-12 -22l6 -26l-7 -11l1 -2l-6 -43v-39l-6 -6l-4 -35
l-9 -11q0 -5 1 -13v-10l7 -18l-7 -13l2 -16l-2 -4l2 -12l9 -8l7 2l1 -6l7 10h29q6 6 15 10q23 16 41 18l1 13l71 39l4 8q-3 -2 -5 -3l14 9l4 13l7 11l14 5l8 12l5 -1l6 4l12 13l5 1l1 3l18 19l11 18q11 3 19 14l14 29l-2 31l10 4v3l-6 18l1 4q-7 11 -7 17q0 11 12 27v-3
l4 10l1 4v-3q8 20 40 21l32 -31l3 -26l10 -17l-6 -16l1 -7v-5q-2 -3 -5 -9l3 -6v-16l-4 -16l4 -22v-16l3 -7l-2 -19z" />
    <glyph glyph-name="z" unicode="z" horiz-adv-x="556" 
d="M521 71q0 -13 -6 -19l-20 -25l-6 -16l-17 -5l-5 -9l-26 -6h-20l-39 5l-15 -6l-19 6l-27 -5l-7 8l-8 -2q-10 -2 -23 -2l-19 3l-33 2l-25 -2q-18 7 -29 7q-8 0 -32 -8l-22 8q-3 -1 -11 -1q-9 0 -13 4l-16 -17l-15 -4q-8 -5 -15.5 -9t-12.5 -6l-23 11l-10 17l1 21l7 13
l13 10l6 10l15 13l11 3l6 5l12 11l1 2l2 3l2 2q1 1 1.5 2t2.5 3l6 3l30 24l3 5q17 17 26 18l5 7l2 6l12 12l7 11l13 2l7 14q7 2 8 8q10 12 21 15l1 5l15 9l16 21l7 4q-5 0 -8 -1l33 25l6 12l12 8l16 25l15 10l3 6h-18l-13 -4l-18 3l-16 -5l-10 5l-29 -10q-12 4 -29 4
q-13 0 -26 -3l-11 5l-21 -3l-8 3l-18 -5l-34 7l-26 -2l-15 5l-28 5l-20 -5l-15 13l-9 33l16 22l11 -2l7 3l19 2l15 -5h15l11 -7h26l13 -4l18 4l14 -4q6 2 13 2q6 0 12 -2l-1 2l17 -2h45l59 3l6 -2l10 4h21l36 8l18 3l15 -2l21 7l17 -1q7 1 12 1.5t8 0.5q34 0 37 -46l-18 -10
l-10 -10l-15 -5l-32 -29l-7 -2l-21 -26q-17 -5 -29 -18l-4 -13l-16 -14l-19 -27l-12 -5l-42 -49l-15 -6l-12 -16l-6 -2l-10.5 -11t-12.5 -11l-9 -15l-22 -17l-18 -21l-13 -11l-1 -3l34 4l10 4l25 2l10 -5l51 4l48 -8q10 2 12 2q6 0 12 -3l14 8l21 -8l15 4l20 -3h8q4 4 15 7
q7 9 13 11l4 8l2 2v7l15 23l28 -3q18 -24 18 -42z" />
    <glyph glyph-name="braceleft" unicode="{" horiz-adv-x="412" 
d="M392 626l-8 -38l-28 -13l-20 6l-14 -3l-7 3l-23 -3l-3 -1l-2 -11l-13 -9l-5 -9l1 -16l-8 -17l2 -28l-9 -28l4 -37l-7 -3l-1 -12l5 -32l-5 -9l4 -15l-2 -2l5 -5l-14 -30l-3 -4l7 -13l-18 -12l5 -7l8 -20v-22l-3 -14l5 -18l-7 -15l-4 -15l9 -22l-4 -14l-3 -25l-2 -3l5 -10
l1 -19l2 -24l-2 -8l8 -22l-2 -14l1 -8h15l1 -7h3l18 -14l12 -3l10 -2l17 10l3 -4l15 -2l19 8l25 -34l-7 -25l-23 -27l-20 5l-3 -2l-33 3l-10 4l-11 -4l-32 12l-5 8h-13l-16 14l-29 22l-10 38l3 12q-5 13 -5 23q0 9 3 15l-3 13l-10 14l6 24l-5 26l4 21l1 12l-5 16l7 15l1 10
l-7 16l7 15l-5 -1l-4 13l-10 -3l-2 2l-25 -1l-33 11l-14 39l35 17l35 5l3 -4l6 2l-4 11l23 9l3 16l-3 17l10 20l-2 10l4 13l-5 29l7 7l-2 19l-1 1l9 25l-4 23l8 14l3 20l-5 19l16 10l-3 21l20 4q6 7 14 13l7 18l29 7l49 7l9 -2l12 10l28 -8z" />
    <glyph glyph-name="bar" unicode="|" horiz-adv-x="500" 
d="M287 -236h-73v1000h73v-1000z" />
    <glyph glyph-name="braceright" unicode="}" horiz-adv-x="412" 
d="M339 267l-34 -17l-36 -6l-3 4l-6 -1l4 -13l-21 -8l-5 -17l5 -17l-10 -19l2 -10l-4 -14l6 -29l-7 -7l1 -18l-7 -27l5 -22l-8 -16l-2 -19l2 -20l-12 -8l-5 -19l-12 -7l-14 -14l-7 -17l-28 -8l-21 -3l-28 -5l-9 2l-13 -10l-28 7l-14 24l8 38l28 14l20 -6l13 4l7 -3l23 3l3 1
l2 11l13 10l4 8l-1 16l8 17l-3 29l8 27l-4 37l7 3v12l-4 32l4 10l-4 14l2 3l-5 5l13 29l3 5l-7 13l19 12l-6 6l-8 20l-1 22l3 14l-7 21l8 13l4 15l-9 22l3 13l2 25l2 3l-4 11l-2 19l-2 24l1 8l-8 21l3 15l-3 8l-14 -1l-2 8l-21 13l-11 3l-11 2l-16 -10l-4 3l-15 3l-19 -9
l-25 33l6 25l24 23h20l2 2l33 -2l10 -3l11 3l32 -12l5 -8h13l17 -12l28 -22l12 -38l-3 -12q5 -11 5 -25q0 -10 -2 -14l3 -12l10 -14l-6 -24l5 -27l-3 -21v-11l5 -15l-6 -17l-1 -8l6 -16l-6 -17l5 -7l5 -4l8 4l3 -3l20 -1l39 -8z" />
    <glyph glyph-name="asciitilde" unicode="~" horiz-adv-x="833" 
d="M747 300q-99 -69 -190 -69q-42 0 -141 34q-93 32 -141 32q-79 0 -188 -77v76q103 70 189 70q55 0 147 -33t135 -33q82 0 189 76v-76z" />
    <glyph glyph-name="Adieresis" unicode="&#xc4;" horiz-adv-x="727" 
d="M714 -16q-1 -25 -33 -35l-38 18h-11l-13 10h-16l-12 20l-10 5l-13 23l-18 19v8l-8 7l-2 16l-13 12l-21 47l-9 11l-4 28l-13 17l-21 3l-23 -13l-5 5l-16 -10l-5 11q-5 -1 -15 -1q-11 0 -16 1h-8l-21 -11l-23 3h-4l-16 -9l-13 5q-19 0 -28 4h-5l-26 -12l-10 11l-18 5l-4 -3
q-22 -29 -32 -41l-16 -4q-38 -55 -48 -59l-4 -1l-32 -39h-4l-20 -31l-38 -21q-10 -2 -16 -2q-19 0 -36 14l12 25v15l4 5l2 20l31 4l8 5q12 7 14 21q18 5 22 20q27 14 35 44l17 6l25 37q-8 11 -12 28l21 17v19l39 -3l10 5q5 17 20 24l2 19l21 11q3 2 11 5v6q0 9 4 16
q21 15 22 41l14 3l5 9l7 1l19 36l5 -2l8 4v27h7q25 27 25 35l5 4l-5 15q24 29 39 30l19 16l22 -22l28 -15l3 -26q5 -6 8 -12q14 -17 16 -35l6 -25l15 -22l9 -33l2 -16l18 -22l-4 -7l8 -7v-20l2 -15q-3 -15 -3 -11l5 -5l6 -8q13 1 19 3h30q8 -2 12 -2q6 0 12.5 4.5t20.5 4.5
q10 0 30 -10l30 -2q2 -8 2 -12q0 -15 -15 -23l-15 5l-28 -20l-23 3l-10 -5l-22 -2v4l-26 -6l-1 -6l2 -23l13 -18l2 -18l23 -32l-2 -11l9 -9l24 -37l17 -17l4 -8l18 -9l7 -16zM467 254h-1l-11 11l12 10q-8 7 -8 21l-7 4l-5 41l-12 17l-3 17l-2 4h-7l-3 36l-9 13l-5 2l-3 4
l-4 -7l-24 -30l-8 -17l-20 -18l-4 -18l-23 -10q-5 -30 -30 -43l-7 -20l-13 -13h9q18 -6 30 -6h4q6 3 12 3q7 0 16 -4l4 -1q6 1 19 1q16 0 24 -1l35 4l23 -12q17 7 20 14q0 -1 1 -1v-1zM555 646l-13 -28l-7 -2l-1 -4l-8 -4q-5 -7 -8 -7h-2l-14 -7l-4 4l-18 -6q-4 9 -20.5 18
t-18.5 20l-4 22l6 6l-2 5l12 12v2l6 6l10 6q5 8 17 8q7 0 12 -2l5 -3h18l12 -14l13 -6v-7l7 -4l-3 -11zM397 647l-6 -4l3 -11l-6 -3v-7l-14 -6l-12 -14l-17 -1l-9 -2l2 1q-9 -3 -15 -3q-10 0 -15 9q-2 0 -7 5l-7 4q2 2 2 3v2h-4l-4 2l-6 8l3 6l-8 11l5 16q8 17 24 24l4 4
q4 4 13 11l16 -6l8 3l6 -6q9 0 16 -10l14 -7z" />
    <glyph glyph-name="Aring" unicode="&#xc5;" horiz-adv-x="727" 
d="M714 -16q-1 -25 -33 -35l-38 18h-11l-13 10h-16l-12 20l-10 5l-13 23l-18 19v8l-8 7l-2 16l-13 12l-21 47l-9 11l-4 28l-13 17l-21 3l-23 -13l-5 5l-16 -10l-5 11q-5 -1 -15 -1q-11 0 -16 1h-8l-21 -11l-23 3h-4l-16 -9l-13 5q-19 0 -28 4h-5l-26 -12l-10 11l-18 5l-4 -3
q-22 -29 -32 -41l-16 -4q-38 -55 -48 -59l-4 -1l-32 -39h-4l-20 -31l-38 -21q-10 -2 -16 -2q-19 0 -36 14l12 25v15l4 5l2 20l31 4l8 5q12 7 14 21q18 5 22 20q27 14 35 44l17 6l25 37q-8 11 -12 28l21 17v19l39 -3l10 5q5 17 20 24l2 19l21 11q3 2 11 5v6q0 9 4 16
q21 15 22 41l14 3l5 9l7 1l19 36l5 -2l8 4v27h7q25 27 25 35l5 4l-5 15q24 29 39 30l19 16l22 -22l28 -15l3 -26q5 -6 8 -12q14 -17 16 -35l6 -25l15 -22l9 -33l2 -16l18 -22l-4 -7l8 -7v-20l2 -15q-3 -15 -3 -11l5 -5l6 -8q13 1 19 3h30q8 -2 12 -2q6 0 12.5 4.5t20.5 4.5
q10 0 30 -10l30 -2q2 -8 2 -12q0 -15 -15 -23l-15 5l-28 -20l-23 3l-10 -5l-22 -2v4l-26 -6l-1 -6l2 -23l13 -18l2 -18l23 -32l-2 -11l9 -9l24 -37l17 -17l4 -8l18 -9l7 -16zM467 254h-1l-11 11l12 10q-8 7 -8 21l-7 4l-5 41l-12 17l-3 17l-2 4h-7l-3 36l-9 13l-5 2l-3 4
l-4 -7l-24 -30l-8 -17l-20 -18l-4 -18l-23 -10q-5 -30 -30 -43l-7 -20l-13 -13h9q18 -6 30 -6h4q6 3 12 3q7 0 16 -4l4 -1q6 1 19 1q16 0 24 -1l35 4l23 -12q17 7 20 14q0 -1 1 -1v-1zM518 668q0 -27 -48 -57l-5 -1q-12 -15 -32 -15h-3q-24 -6 -28 -6q-5 0 -11 6
q-7 -3 -16 -3q-8 0 -17 3l-27 9q-1 14 -10 27q-4 6 -4 17v5l2 -2l-5 13l5 39v7l2 4l7 4q3 22 20 25q7 5 16 7l10 10l21 5l12 -1h6q9 0 16 -4h5q-9 0 39 -13l13 -16l23 -21l3 -16q6 -13 6 -26zM454 673q-7 23 -7 22l-1 5q-12 7 -19 15q-2 -1 -7 -1q-8 0 -17 -11l-1 -8l-21 -5
l-5 -7l-3 -16l1 -22l5 -5l15 3l11 -4h10l22 13l10 -2h3l3 5l-5 13z" />
    <glyph glyph-name="Ccedilla" unicode="&#xc7;" horiz-adv-x="629" 
d="M627 169q0 -2 -3 -10l2 -7q-3 -28 -32 -34l-6 -12l-34 -22l-8 -11l-17 -15q-11 -2 -23 -5q-27 -27 -62 -36l-19 -10q-6 -4 -23 -4t-31 -10l-19 -14l-19 4q-18 -5 -30 -5q-26 -12 -28 -33h6q12 0 18 5q11 3 14 3q12 0 24 -9l13 -1l7 -8l13 -3l30 -51l-8 -26l-1 -27
l-17 -18l-5 -6l-13 -5l-10 -14q-17 0 -31 -2q-11 -8 -21 -8q-4 0 -12 2l-34 4l-37 11l-8 22l2 24q10 7 23 7q5 0 13 -2l7 -7l11 1q3 0 12 -3t10 -3q8 4 12 4l2 3h14q8 4 12 4l2 11l5 8q-8 7 -8 14q0 6 4 13q-4 -3 -9 -3l-22 6l-18 -7l-3 2l-8 -9l-29 -1l-8 5l-14 -1l-10 16
l6 26l11 15q5 8 16 22l-1 8l8 12l-22 -1l-12 5l-10 -4l-30 12l-13 10l-25 6l-5 12l-13 3q-17 4 -22 25l1 3q-10 12 -19 36q-9 3 -17.5 21t-8.5 37v26q-4 9 -4 27l5 16v24l8 5l1 6l13 46l13 29l8 21q3 13 13 27.5t10 19.5q0 7 -5 13l20 10q5 6 14 14l4 23l15 7l5 20
q17 1 32.5 15.5t23.5 16.5l8 8l26 7l16 10l18 -10q23 5 30 5h11l6 -2l12 -2q21 -9 48 -16l13 -12l59 -33l7 -15l10 -9l7 -21l6 -15l4 -19l-1 -26q0 -2 -1 -9t-21 -48q-10 -7 -25 -7q-8 0 -13 1l-20 14l-11 14l-5 18l-2 19l2 17l-2 20l1 14l-6 11l-15 11q-17 5 -23 8t-7 8
h-19l-8 7l-13 -8l-11 8l-5 -4l-12 2l-11 -6l-20 1l-13 -17l-28 -27l-24 -33l-5 -2l-7 -22l-12 -9v-9l-19 -29l-9 -41l1 -4l-9 -16l4 -16l-9 -9v-5l-4 -3l1 -28l-4 -23l8 -12l2 -7l9 -8v-14l11 -15l-4 -8l14 -14l1 -5l36 -13l-1 -7l26 -2l10 -8l23 7l11 -13l6 3q11 8 22 8
q4 0 12 -2l13 2l7 -5l9 2q5 0 15 2q10 13 35 13q9 8 28 8q10 9 29 15q9 0 19 5l8 13l15 4l14 6l12 14l38 23l33 37l23 15l21 -12v2q3 -5 3 -23z" />
    <glyph glyph-name="Eacute" unicode="&#xc9;" horiz-adv-x="621" 
d="M606 327q0 -23 -14 -42q-27 -11 -45 -11q-4 0 -11 2t-9 2l-26 -13l-24 2l-14 -5l-7 2l-18 -10l-15 5q-27 0 -43 -1l4 1l-18 -6h-3l-7 -6l-14 4l-8 -7l-22 9l-13 -8q-24 7 -28 7q-11 0 -27 -7l-45 -4l-4 2l-17 -3l-1 -4l10 -50l-4 -5l4 -10l-1 -13q5 -15 7 -30l12 -12
l-2 -6l20 -25q31 -22 47 -22h2q2 0 5 1h4q4 0 11 -3l9 1q13 3 37 7l11 6l2 4l7 1l8 5l5 -3l16 5l13 8l5 7l17 13l13 2l24 18q25 4 36 40l3 -1l1 3l13 1l19 16l7 1q3 1 7 1q19 0 23 -37l-44 -52l-11 -3l-4 -6l-19 -20l-27 -16l-22 -21l-7 1l-8 -8l-45 -17l-18 -20l-13 5
l-5 -9l-9 3l-5 -5l-33 6l-34 -14l-34 11l-43 20q-55 26 -85 144l1 11l-9 23l9 10l-6 28l-1 9l-17 19v12q0 29 16 40q3 8 11 15l-2 3v28l-3 14l13 32l3 16l-10 -1h-4q-14 0 -24 9.5t-10 22.5q0 15 19 34l7 7l9 4q16 7 25 7h5q2 1 10 1h4l10 16l45 -3l3 -3q9 2 27 2l20 5h5
q13 4 25 16l15 -8h5q5 0 11.5 -1t8.5 -1l100 9l10 -4l14 3l8 8l20 -11l7 5l22 -9l15 4l8 -5l32 3l7 -5l16 -3q23 -4 23 -22q0 -12 -8.5 -21t-17.5 -9h-4l-11 -6l-20 6l-9 -1q-3 -1 -8 -1q-10 0 -18 4l-3 4q-10 -2 -13 -2q-4 0 -10 2q-10 -7 -37 -12q-14 0 -31 1q0 1 4 7
l-26 -7q-1 1 -2 1q-7 0 -26 -16l-13 6l-6 -4l-24 7l-14 -7h-20l-30 -6l-25 -11l-7 4l-13 -9h-13l-3 -5l3 -12l-17 -20l8 -1v-28l11 -12l-9 -8q-10 -17 -10 -23q0 -4 6 -6l12 4q5 1 10 1q15 -2 22 -4l18 7l16 -5l9 2l11 -1l16 3q8 -2 13 -2q4 0 16 7q8 -4 23 -4q2 0 7 1h8h2
q-2 0 -4 1h3q6 0 36 -3q3 1 31 2q16 1 20 1q15 0 29 -1l9 1q14 8 26 8q9 0 18 -3l14 3l12 -5l40 10v-9zM512 735l-5 -12l-5 -24h-4q-23 0 -33 -21l-9 6l-33 -27h-3l-8 -9l2 -6l-18 -6v-6l-15 -5l-6 -8l-4 -12l-5 -2v-6l-18 -6l-26 -22l-37 24l14 27l5 17l23 10l14 21l7 1
l5 7v10l13 13l11 -7q12 14 16 22q18 10 19 15q3 13 19 20l15 14l21 2l9 -2q33 -7 36 -28z" />
    <glyph glyph-name="Ntilde" unicode="&#xd1;" horiz-adv-x="781" 
d="M716 409l-3 -5q-8 -48 -17 -58l-2 -6v-47l-10 -20l3 -12l-10 -40l4 -11l-7 -35l1 -17l-7 -22l9 -26l-17 -23l4 -13l-8 -14l3 -3l3 -46l13 -23l-17 -13l-10 -16l-37 10l-6 45l-6 2q-4 35 -4 72l-3 5l-17 3l-5 -6l-15 17l-14 -4l-22 16q-24 2 -35 4l-9 8l-4 -1l-72 43l-6 7
l-22 8l-13 17l-11 5l-16 14l-47 19l-30 36l-16 2l-10 14q-22 14 -39 33v-9l-8 -43l9 -29l-15 -49l3 -15q4 -7 4 -18q0 -13 -4 -22l9 -2l-12 -35v-22l-4 -21l7 -13l-13 -17q3 -4 3 -11q-6 -22 -21 -41h-18q-31 0 -32 43l11 34l-5 16l6 15q-1 5 -1 14q0 7 1 10l-7 9v7
q0 5 1 12v11q0 10 -8 30l8 12l5 17l-5 28l8 29l-6 19l8 47l-2 34l4 29l-4 9l2 58q-2 10 -2 14q0 7 3 13q3 16 24 17l9 -2l8 10q23 -12 32 -34h9l3 -31l13 -9l1 -12l15 -9l8 -28l5 -5l28 -19q10 -5 12 -18l2 -4l24 -15l27 -27l72 -56q21 -4 34 -25l30 -9l25 -20l12 -3l30 -14
l29 -9q16 -15 30 -21l3 15l10 20l-4 4l5 55l9 17v3l-12 16l12 41l-4 34l9 60l-13 13l13 39l-8 9l10 13l-3 11l48 23l5 -11l30 -5q-8 -19 -8 -29q0 -5 1 -8q8 -11 9 -20l-6 -16zM568 668q-2 -12 -5 -15v-5q0 -6 -4 -11l-18 -13l-20 -4l-6 -7l-6 -8l-25 -7l-30 -5l-41 15
q-4 4 -4 5v1l-27 15l-1 14l-7 -3v12q-6 3 -15 3l-22 -14q-9 -6 -16 -16q-9 -14 -13 -18q-12 -12 -32 -12l-18 2q-16 18 -16 27q0 14 22 27l13 14l11 5q6 7 22 17l7 1q13 5 24 18l22 4l11 -2l4 1q11 -15 26 -19l12 -7l15 -20l18 -9l2 -5l30 5l4 16v13l10 18q7 12 26 12
q14 0 29.5 -13.5t17.5 -31.5z" />
    <glyph glyph-name="Odieresis" unicode="&#xd6;" horiz-adv-x="720" 
d="M693 264l-10 -21l-4 -33l-10 -9q-6 -40 -31 -51l-7 -3l-60 -42l-18 -10l-29 -32l-18 3l-11 -8l-20 -7l-50 -26q-6 2 -16 9q-7 -10 -22 -13h-4l-20 -16l-4 2h-19l-9 -7l-38 1l-50 -8h-6q-7 0 -17 -2l-28 4l-5 5l-40 6l-17 8h-24v11l-19 20l-25 11l-11 31l-1 23l-6 7l-1 45
l13 40l-2 24l5 5v19l14 14v10l6 11v10l4 5l-5 11l16 11l19 40l41 59l10 5q3 5 9 13l10 8v16l15 3q15 12 33 18l5 6q9 4 52 10l27 4l32 -4l19 1h27l6 -1l3 -1h5l6 2l32 -1l-2 -6l15 -4q6 2 6 8q5 -9 22 -9l8 -8h30l67 -29l8 -22l6 -9l18 -7l27 -44l16 -20q27 -63 27 -75v-11z
M618 258l-5 28l5 8l-7 17q1 2 1 6q0 3 -2 5l-18 12l-6 16l-8 3l-3 14l-25 23l-15 12l-6 -3q-23 21 -85 35q-8 0 -10 1l-5 -3l-18 5l-10 -5q-15 5 -18 5q-1 0 -7.5 -2t-11.5 -2t-8 1q-7 -13 -33 -23l-13 2l-14 -7l-18 2q-18 -14 -42 -29l-5 -7l-5 -22l-23 -10l-4 -5
q-6 -12 -16 -22v-17l-14 -6l-3 -2l-9 -30l-14 -8q-3 -51 -17 -71q-8 -11 -9 -30l-4 -11l3 -7l3 -15l12 -13l2 -13l10 -10q28 -16 50 -17l42 11l9 -9h12l2 2l30 5l32 -5q8 8 19 8q23 14 39 14l21 12l16 1l13 10l31 1q4 1 9 1l2 3q7 10 21 13l12 28l8 -5l8 4l14 13l5 -2l17 12
l30 30l13 4l6 15l8 5l-2 9zM521 646l-13 -28l-7 -2l-1 -4l-8 -4q-5 -7 -8 -7h-2l-14 -7l-4 4l-18 -6q-4 9 -20.5 18t-18.5 20l-4 22l6 6l-2 5l12 12v2l6 6l10 6q5 8 17 8q7 0 12 -2l5 -3h18l12 -14l13 -6v-7l7 -4l-3 -11zM363 647l-6 -4l3 -11l-6 -3v-7l-14 -6l-12 -14
l-17 -1l-9 -2l2 1q-9 -3 -15 -3q-10 0 -15 9q-2 0 -7 5l-7 4q2 2 2 3v2h-4l-4 2l-6 8l3 6l-8 11l5 16q8 17 24 24l4 4q4 4 13 11l16 -6l8 3l6 -6q9 0 16 -10l14 -7z" />
    <glyph glyph-name="Udieresis" unicode="&#xdc;" horiz-adv-x="737" 
d="M779 -3l-14 -26l-28 -8q-18 -10 -32 -12l-12 -8q-2 0 -7 -1h-8q-38 0 -59 25l-6 7l-7 1q-20 3 -31 17l-15 25l-5 7l-7 25l-12 17l-8 26l-9 18l-16 90v31l-6 -6l-15 -10q-1 -17 -15 -17l-10 -11l-14 -8l-10 -10q-4 -13 -18 -19l-12 -13l-16 -7l-12 -15l-81 -57l-35 -21
l-22 -16l-14 -4l-25 -20l-20 -9l-33 1l-19 21l-14 9v18l-8 7l-10 61l-3 8l-4 43l6 19l-3 12l3 15l-4 44l-5 8q2 16 11 24l-3 4l4 21l-7 13v21l7 10l-3 15l7 28l-5 35l4 14l-4 19l10 11q6 11 19 11h8l24 -7q10 -4 15 -17q8 -5 16 -26l-10 -14q-13 -49 -13 -63v-3
q2 -14 11 -22q-14 -59 -14 -96v-7l9 -12l-4 -22l-2 -30l6 -18l-15 -13q16 -37 16 -52h27q2 4 6 9l15 1l12 14q10 9 20 14q6 8 18 11l26 16l-1 10l23 4l17 18l1 2l2 1l7 8l8 -4l10 8l8 20l8 -1q10 8 22 15l3 4l6 6v16l17 5l11 13l11 5l2 14h7q4 5 13 9v10l13 4l17 32l8 24
l3 23l11 17l2 12l2 26l7 18l25 21l29 -15l7 -8q16 -10 29 -23l-9 -16l1 -13q-3 -19 -18 -26l-7 -13v-16l-7 -16l1 -27q-4 -6 -9 -6q-1 0 -3 1q15 -9 15 -29q0 -7 -1 -10l-8 -1l3 -10l-3 -26l7 -16l-3 -22q1 -4 1 -13q8 -10 8 -20v-4q-1 -2 -1 -4l4 -12q7 -32 24 -70l10 -15
l3 -6l10 -10l23 -22l16 -3l6 10l16 -6l4 2q12 9 27 9q7 0 39 -5zM499 646l-13 -28l-7 -2l-1 -4l-8 -4q-5 -7 -8 -7h-2l-14 -7l-4 4l-18 -6q-4 9 -20.5 18t-18.5 20l-4 22l6 6l-2 5l12 12v2l6 6l10 6q5 8 17 8q7 0 12 -2l5 -3h18l12 -14l13 -6v-7l7 -4l-3 -11zM341 647l-6 -4
l3 -11l-6 -3v-7l-14 -6l-12 -14l-17 -1l-9 -2l2 1q-9 -3 -15 -3q-10 0 -15 9q-2 0 -7 5l-7 4q2 2 2 3v2h-4l-4 2l-6 8l3 6l-8 11l5 16q8 17 24 24l4 4q4 4 13 11l16 -6l8 3l6 -6q9 0 16 -10l14 -7z" />
    <glyph glyph-name="aacute" unicode="&#xe1;" horiz-adv-x="515" 
d="M442 405l-10 -13l8 -24l-13 -15l-5 -21l-3 -5l2 -5q0 -14 -7 -21l-2 -3v-4q3 -7 3 -13q0 -5 -1 -7l1 -4l-4 -11l3 -12l-8 -8l3 -14l6 -7l-9 -8v-16l-7 -16l5 -16l-6 -8l10 -7l-14 -23l-1 -3l10 -2l-7 -23v-4q0 -7 -1 -11l1 -3l16 -2l13 -20l-7 -15l11 1q6 -12 7 -21
l-15 -15q-7 -7 -20 -14l-17 -9l-5 5l-10 -6l-31 36v17q-6 20 -6 37v6l-6 59l8 42l-6 24l-17 -28l-9 -26l-8 -4l-14 -22l-25 -23l-7 -12l-22 -19l-5 -13l-32 -20l-34 -38l-19 -4l-13 -10q-25 1 -38 19q-45 22 -47 63l5 3l-1 6l-1 12l-6 13l6 14l2 21l7 33v4q-1 2 -1 4
q0 4 2 10q-1 2 -1 8q0 7 6 23l7 3q-6 5 -6 11q0 4 1 6q-1 3 -1 7q0 12 12 18q3 10 11 20l-5 8l12 15v4q0 19 13 35l-1 18l4 4v3q-1 2 -1 3q0 6 4 10v6q4 10 21 30t25 35l5 -5l11 5l5 2l33 15l77 -4v-7l24 -5q23 0 30 -15q0 3 1 7v4l21 -19l19 -4l36 9l13 -25zM347 353l-4 7
l-8 2l-31 25l-20 3h-16l-2 2l-8 -3l-9 5h-26l3 -4l-23 -8l-4 -5l-3 -1q-18 -15 -25 -25l-7 -24l-4 -9l10 -14l-17 -13l2 -4q-11 -19 -11 -37l-8 -10v-18l-8 -9l-2 -9l-3 -2v-14l-3 -5q0 -12 -2 -19l2 -5l-9 -19l4 -6l-7 -10l7 -19l-11 -14l2 -19v-3l4 -2l5 1q5 5 10 9l-2 8
l14 2l3 7l59 48l6 2l7 17q6 2 17 8l6 16h8l-3 17l14 2q2 4 6.5 10t9.5 11l51 68l8 15l-1 4l7 11l2 11l9 8zM420 648l-5 -12l-5 -24h-4q-23 0 -33 -21l-9 6l-33 -27h-3l-8 -9l2 -6l-18 -6v-6l-15 -5l-6 -8l-4 -12l-5 -2v-6l-18 -6l-26 -22l-37 24l14 27l5 17l23 10l14 21l7 1
l5 7v10l13 13l11 -7q12 14 16 22q18 10 19 15q3 13 19 20l15 14l21 2l9 -2q33 -7 36 -28z" />
    <glyph glyph-name="agrave" unicode="&#xe0;" horiz-adv-x="515" 
d="M442 405l-10 -13l8 -24l-13 -15l-5 -21l-3 -5l2 -5q0 -14 -7 -21l-2 -3v-4q3 -7 3 -13q0 -5 -1 -7l1 -4l-4 -11l3 -12l-8 -8l3 -14l6 -7l-9 -8v-16l-7 -16l5 -16l-6 -8l10 -7l-14 -23l-1 -3l10 -2l-7 -23v-4q0 -7 -1 -11l1 -3l16 -2l13 -20l-7 -15l11 1q6 -12 7 -21
l-15 -15q-7 -7 -20 -14l-17 -9l-5 5l-10 -6l-31 36v17q-6 20 -6 37v6l-6 59l8 42l-6 24l-17 -28l-9 -26l-8 -4l-14 -22l-25 -23l-7 -12l-22 -19l-5 -13l-32 -20l-34 -38l-19 -4l-13 -10q-25 1 -38 19q-45 22 -47 63l5 3l-1 6l-1 12l-6 13l6 14l2 21l7 33v4q-1 2 -1 4
q0 4 2 10q-1 2 -1 8q0 7 6 23l7 3q-6 5 -6 11q0 4 1 6q-1 3 -1 7q0 12 12 18q3 10 11 20l-5 8l12 15v4q0 19 13 35l-1 18l4 4v3q-1 2 -1 3q0 6 4 10v6q4 10 21 30t25 35l5 -5l11 5l5 2l33 15l77 -4v-7l24 -5q23 0 30 -15q0 3 1 7v4l21 -19l19 -4l36 9l13 -25zM347 353l-4 7
l-8 2l-31 25l-20 3h-16l-2 2l-8 -3l-9 5h-26l3 -4l-23 -8l-4 -5l-3 -1q-18 -15 -25 -25l-7 -24l-4 -9l10 -14l-17 -13l2 -4q-11 -19 -11 -37l-8 -10v-18l-8 -9l-2 -9l-3 -2v-14l-3 -5q0 -12 -2 -19l2 -5l-9 -19l4 -6l-7 -10l7 -19l-11 -14l2 -19v-3l4 -2l5 1q5 5 10 9l-2 8
l14 2l3 7l59 48l6 2l7 17q6 2 17 8l6 16h8l-3 17l14 2q2 4 6.5 10t9.5 11l51 68l8 15l-1 4l7 11l2 11l9 8zM344 514l-16 -23l-34 9l-7 5q-3 3 -8 7q-17 2 -21 10q-2 0 -9.5 1.5t-13.5 1.5l-9 12q-7 5 -10 11q-7 2 -18 12q-16 6 -23 18l-10 10q-10 2 -21 18l-1 3l-20 5l-2 21
l7 8l9 15l16 5l14 14l22 -10l14 -4l11 -15l20 -21l10 -18l11 -8l6 -12l13 -5l7 -10l14 -6l4 -5q8 -4 15 -12l3 -2q13 -6 16 -13z" />
    <glyph glyph-name="acircumflex" unicode="&#xe2;" horiz-adv-x="515" 
d="M442 405l-10 -13l8 -24l-13 -15l-5 -21l-3 -5l2 -5q0 -14 -7 -21l-2 -3v-4q3 -7 3 -13q0 -5 -1 -7l1 -4l-4 -11l3 -12l-8 -8l3 -14l6 -7l-9 -8v-16l-7 -16l5 -16l-6 -8l10 -7l-14 -23l-1 -3l10 -2l-7 -23v-4q0 -7 -1 -11l1 -3l16 -2l13 -20l-7 -15l11 1q6 -12 7 -21
l-15 -15q-7 -7 -20 -14l-17 -9l-5 5l-10 -6l-31 36v17q-6 20 -6 37v6l-6 59l8 42l-6 24l-17 -28l-9 -26l-8 -4l-14 -22l-25 -23l-7 -12l-22 -19l-5 -13l-32 -20l-34 -38l-19 -4l-13 -10q-25 1 -38 19q-45 22 -47 63l5 3l-1 6l-1 12l-6 13l6 14l2 21l7 33v4q-1 2 -1 4
q0 4 2 10q-1 2 -1 8q0 7 6 23l7 3q-6 5 -6 11q0 4 1 6q-1 3 -1 7q0 12 12 18q3 10 11 20l-5 8l12 15v4q0 19 13 35l-1 18l4 4v3q-1 2 -1 3q0 6 4 10v6q4 10 21 30t25 35l5 -5l11 5l5 2l33 15l77 -4v-7l24 -5q23 0 30 -15q0 3 1 7v4l21 -19l19 -4l36 9l13 -25zM347 353l-4 7
l-8 2l-31 25l-20 3h-16l-2 2l-8 -3l-9 5h-26l3 -4l-23 -8l-4 -5l-3 -1q-18 -15 -25 -25l-7 -24l-4 -9l10 -14l-17 -13l2 -4q-11 -19 -11 -37l-8 -10v-18l-8 -9l-2 -9l-3 -2v-14l-3 -5q0 -12 -2 -19l2 -5l-9 -19l4 -6l-7 -10l7 -19l-11 -14l2 -19v-3l4 -2l5 1q5 5 10 9l-2 8
l14 2l3 7l59 48l6 2l7 17q6 2 17 8l6 16h8l-3 17l14 2q2 4 6.5 10t9.5 11l51 68l8 15l-1 4l7 11l2 11l9 8zM447 515l-19 -16l-20 -7l-34 5q-22 11 -38 32q-17 3 -23 17l-6 4l-13 13l-16 9v9l-12 12l1 3l-3 5l-5 -10l-8 -2v-3l-4 -2v-3l-20 -15v-8l-16 -5l-4 -7l-5 -3l-3 -3
l-14 -8l3 1q-5 -5 -10 -8l-6 -2l-11 -14l-10 -7l-18 -21l-37 25q0 25 21 34l2 6h3v3l5 1l8 4q11 18 36 38l2 5l6 2l2 3l12 10q18 8 18 10q-1 1 -5 1q0 10 17 16q4 3 7 14q4 3 15 23l9 -2q9 7 22 7h4l18 -2l12 -22l17 -20l2 -4l10 -6l3 -12l10 -8q1 -6 8 -14q8 -2 11 -9
l20 -16v-11l8 -4l7 -7l15 -5z" />
    <glyph glyph-name="adieresis" unicode="&#xe4;" horiz-adv-x="515" 
d="M442 405l-10 -13l8 -24l-13 -15l-5 -21l-3 -5l2 -5q0 -14 -7 -21l-2 -3v-4q3 -7 3 -13q0 -5 -1 -7l1 -4l-4 -11l3 -12l-8 -8l3 -14l6 -7l-9 -8v-16l-7 -16l5 -16l-6 -8l10 -7l-14 -23l-1 -3l10 -2l-7 -23v-4q0 -7 -1 -11l1 -3l16 -2l13 -20l-7 -15l11 1q6 -12 7 -21
l-15 -15q-7 -7 -20 -14l-17 -9l-5 5l-10 -6l-31 36v17q-6 20 -6 37v6l-6 59l8 42l-6 24l-17 -28l-9 -26l-8 -4l-14 -22l-25 -23l-7 -12l-22 -19l-5 -13l-32 -20l-34 -38l-19 -4l-13 -10q-25 1 -38 19q-45 22 -47 63l5 3l-1 6l-1 12l-6 13l6 14l2 21l7 33v4q-1 2 -1 4
q0 4 2 10q-1 2 -1 8q0 7 6 23l7 3q-6 5 -6 11q0 4 1 6q-1 3 -1 7q0 12 12 18q3 10 11 20l-5 8l12 15v4q0 19 13 35l-1 18l4 4v3q-1 2 -1 3q0 6 4 10v6q4 10 21 30t25 35l5 -5l11 5l5 2l33 15l77 -4v-7l24 -5q23 0 30 -15q0 3 1 7v4l21 -19l19 -4l36 9l13 -25zM347 353l-4 7
l-8 2l-31 25l-20 3h-16l-2 2l-8 -3l-9 5h-26l3 -4l-23 -8l-4 -5l-3 -1q-18 -15 -25 -25l-7 -24l-4 -9l10 -14l-17 -13l2 -4q-11 -19 -11 -37l-8 -10v-18l-8 -9l-2 -9l-3 -2v-14l-3 -5q0 -12 -2 -19l2 -5l-9 -19l4 -6l-7 -10l7 -19l-11 -14l2 -19v-3l4 -2l5 1q5 5 10 9l-2 8
l14 2l3 7l59 48l6 2l7 17q6 2 17 8l6 16h8l-3 17l14 2q2 4 6.5 10t9.5 11l51 68l8 15l-1 4l7 11l2 11l9 8zM408 559l-13 -28l-7 -2l-1 -4l-8 -4q-5 -7 -8 -7h-2l-14 -7l-4 4l-18 -6q-4 9 -20.5 18t-18.5 20l-4 22l6 6l-2 5l12 12v2l6 6l10 6q5 8 17 8q7 0 12 -2l5 -3h18
l12 -14l13 -6v-7l7 -4l-3 -11zM250 560l-6 -4l3 -11l-6 -3v-7l-14 -6l-12 -14l-17 -1l-9 -2l2 1q-9 -3 -15 -3q-10 0 -15 9q-2 0 -7 5l-7 4q2 2 2 3v2h-4l-4 2l-6 8l3 6l-8 11l5 16q8 17 24 24l4 4q4 4 13 11l16 -6l8 3l6 -6q9 0 16 -10l14 -7z" />
    <glyph glyph-name="atilde" unicode="&#xe3;" horiz-adv-x="515" 
d="M442 405l-10 -13l8 -24l-13 -15l-5 -21l-3 -5l2 -5q0 -14 -7 -21l-2 -3v-4q3 -7 3 -13q0 -5 -1 -7l1 -4l-4 -11l3 -12l-8 -8l3 -14l6 -7l-9 -8v-16l-7 -16l5 -16l-6 -8l10 -7l-14 -23l-1 -3l10 -2l-7 -23v-4q0 -7 -1 -11l1 -3l16 -2l13 -20l-7 -15l11 1q6 -12 7 -21
l-15 -15q-7 -7 -20 -14l-17 -9l-5 5l-10 -6l-31 36v17q-6 20 -6 37v6l-6 59l8 42l-6 24l-17 -28l-9 -26l-8 -4l-14 -22l-25 -23l-7 -12l-22 -19l-5 -13l-32 -20l-34 -38l-19 -4l-13 -10q-25 1 -38 19q-45 22 -47 63l5 3l-1 6l-1 12l-6 13l6 14l2 21l7 33v4q-1 2 -1 4
q0 4 2 10q-1 2 -1 8q0 7 6 23l7 3q-6 5 -6 11q0 4 1 6q-1 3 -1 7q0 12 12 18q3 10 11 20l-5 8l12 15v4q0 19 13 35l-1 18l4 4v3q-1 2 -1 3q0 6 4 10v6q4 10 21 30t25 35l5 -5l11 5l5 2l33 15l77 -4v-7l24 -5q23 0 30 -15q0 3 1 7v4l21 -19l19 -4l36 9l13 -25zM347 353l-4 7
l-8 2l-31 25l-20 3h-16l-2 2l-8 -3l-9 5h-26l3 -4l-23 -8l-4 -5l-3 -1q-18 -15 -25 -25l-7 -24l-4 -9l10 -14l-17 -13l2 -4q-11 -19 -11 -37l-8 -10v-18l-8 -9l-2 -9l-3 -2v-14l-3 -5q0 -12 -2 -19l2 -5l-9 -19l4 -6l-7 -10l7 -19l-11 -14l2 -19v-3l4 -2l5 1q5 5 10 9l-2 8
l14 2l3 7l59 48l6 2l7 17q6 2 17 8l6 16h8l-3 17l14 2q2 4 6.5 10t9.5 11l51 68l8 15l-1 4l7 11l2 11l9 8zM431 581q-2 -12 -5 -15v-5q0 -6 -4 -11l-18 -13l-20 -4l-6 -7l-6 -8l-25 -7l-30 -5l-41 15q-4 4 -4 5v1l-27 15l-1 14l-7 -3v12q-6 3 -15 3l-22 -14q-9 -6 -16 -16
q-9 -14 -13 -18q-12 -12 -32 -12l-18 2q-16 18 -16 27q0 14 22 27l13 14l11 5q6 7 22 17l7 1q13 5 24 18l22 4l11 -2l4 1q11 -15 26 -19l12 -7l15 -20l18 -9l2 -5l30 5l4 16v13l10 18q7 12 26 12q14 0 29.5 -13.5t17.5 -31.5z" />
    <glyph glyph-name="aring" unicode="&#xe5;" horiz-adv-x="515" 
d="M442 405l-10 -13l8 -24l-13 -15l-5 -21l-3 -5l2 -5q0 -14 -7 -21l-2 -3v-4q3 -7 3 -13q0 -5 -1 -7l1 -4l-4 -11l3 -12l-8 -8l3 -14l6 -7l-9 -8v-16l-7 -16l5 -16l-6 -8l10 -7l-14 -23l-1 -3l10 -2l-7 -23v-4q0 -7 -1 -11l1 -3l16 -2l13 -20l-7 -15l11 1q6 -12 7 -21
l-15 -15q-7 -7 -20 -14l-17 -9l-5 5l-10 -6l-31 36v17q-6 20 -6 37v6l-6 59l8 42l-6 24l-17 -28l-9 -26l-8 -4l-14 -22l-25 -23l-7 -12l-22 -19l-5 -13l-32 -20l-34 -38l-19 -4l-13 -10q-25 1 -38 19q-45 22 -47 63l5 3l-1 6l-1 12l-6 13l6 14l2 21l7 33v4q-1 2 -1 4
q0 4 2 10q-1 2 -1 8q0 7 6 23l7 3q-6 5 -6 11q0 4 1 6q-1 3 -1 7q0 12 12 18q3 10 11 20l-5 8l12 15v4q0 19 13 35l-1 18l4 4v3q-1 2 -1 3q0 6 4 10v6q4 10 21 30t25 35l5 -5l11 5l5 2l33 15l77 -4v-7l24 -5q23 0 30 -15q0 3 1 7v4l21 -19l19 -4l36 9l13 -25zM347 353l-4 7
l-8 2l-31 25l-20 3h-16l-2 2l-8 -3l-9 5h-26l3 -4l-23 -8l-4 -5l-3 -1q-18 -15 -25 -25l-7 -24l-4 -9l10 -14l-17 -13l2 -4q-11 -19 -11 -37l-8 -10v-18l-8 -9l-2 -9l-3 -2v-14l-3 -5q0 -12 -2 -19l2 -5l-9 -19l4 -6l-7 -10l7 -19l-11 -14l2 -19v-3l4 -2l5 1q5 5 10 9l-2 8
l14 2l3 7l59 48l6 2l7 17q6 2 17 8l6 16h8l-3 17l14 2q2 4 6.5 10t9.5 11l51 68l8 15l-1 4l7 11l2 11l9 8zM371 581q0 -27 -48 -57l-5 -1q-12 -15 -32 -15h-3q-24 -6 -28 -6q-5 0 -11 6q-7 -3 -16 -3q-8 0 -17 3l-27 9q-1 14 -10 27q-4 6 -4 17v5l2 -2l-5 13l5 39v7l2 4l7 4
q3 22 20 25q7 5 16 7l10 10l21 5l12 -1h6q9 0 16 -4h5q-9 0 39 -13l13 -16l23 -21l3 -16q6 -13 6 -26zM307 586q-7 23 -7 22l-1 5q-12 7 -19 15q-2 -1 -7 -1q-8 0 -17 -11l-1 -8l-21 -5l-5 -7l-3 -16l1 -22l5 -5l15 3l11 -4h10l22 13l10 -2h3l3 5l-5 13z" />
    <glyph glyph-name="ccedilla" unicode="&#xe7;" horiz-adv-x="431" 
d="M416 148l-19 -18l-2 -16q-6 -15 -17 -22q-25 -46 -66 -66l-16 -13l-12 -2l-18 -11l-9 -1l-23 -16h-19l-26 -7l-11 3l-14 -24l17 1h4q16 0 25 -13l13 -3l6 -9l11 -5l18 -38l-7 -38l-2 -26l-22 -18l-5 -6l-15 -3l-12 -12q-24 3 -31 3q-10 -5 -18 -5q-6 0 -15 3l-36 6
l-25 18l-7 16l6 25l24 6q3 -4 7 -8l15 -2q9 0 16 -4l7 -4q5 1 12 1l2 3l16 -1q4 0 10 2l5 12l7 7v3l-5 4q0 11 2 18h-4l-24 7l-19 -4l-3 2l-21 -10l-16 4v1q0 2 -5 7l-17 1l-7 17l10 25l12 12l1 6l18 13v9l3 4h-3l-29 24q-26 27 -32 49v7l-11 18l1 11q-3 14 -3 24v5l-5 18
l5 14l-3 8l12 18l-3 16l7 28l6 6l2 23l3 21l15 11l16 50l19 17l-1 4l10 16l2 11l15 18q14 4 15 4q9 23 50 23l22 -4q16 -3 28 -16q10 -1 16 -10l21 -2l15 -19q5 -11 6 -19l8 -9l-2 -17q1 -6 1 -15v-5q5 -17 5 -21l-16 -29l-33 -11l-30 24l-2 34l-5 11l-1 9l-11 12l-6 4
l-6 -2l-14 -1q-14 -3 -25 -19q-23 -33 -25 -35l-2 -9l-4 -7v-18l-13 -15l-3 -11q-7 -13 -13 -34l1 -13l-9 -18l4 -25l-6 -2l-2 -27l1 -5l11 -12l6 -22l14 -5l1 -8l29 -6q6 5 19 5h6q12 5 17 5q6 -1 5 -1q7 5 18 7q10 16 30 16h7q10 5 11 6q13 18 34 23l14 13q14 11 18 27
q14 8 18 27l5 3l4 21q17 -1 28 -5q18 -8 18 -39v-9z" />
    <glyph glyph-name="eacute" unicode="&#xe9;" horiz-adv-x="377" 
d="M359 82q0 -12 -18 -30q-5 -16 -15 -26l-6 -1l-11 -19l-18 -3l-19 -12l-10 -18l-11 2q-11 -5 -18 -6l-6 -9q-3 1 -9 1q-13 0 -25 -18l-14 12q-4 -1 -12 -1q-13 0 -22 4h-17l-8 5q-38 6 -48 29v3l-12 6l-6 17l-12 8v15l-12 44l2 36l4 16v21l5 16l-1 7l7 12l-2 -2q0 9 5 19
v5l-3 24q0 17 15 30q1 2 1 6t-3.5 16.5t-3.5 17.5q0 12 6 25q8 -12 23 -12h3q2 4 9 9q8 25 22 42l4 4q0 4 6 23h8l2 5l8 2q5 8 6.5 9.5t21.5 12.5q4 7 12 13q4 2 10 4l4 6q27 9 34 9q8 0 15 -4l5 1l7 -4q12 -9 24 -15l17 -13v-4q23 -18 23 -51l-3 -10l3 -33l-9 -6l-10 -26
l-19 -21l-1 -16q-32 -23 -59 -37q-9 -14 -28 -14h-3l-19 -12h-16l-24 -10l-18 9h-2q-2 -8 -4 -24l-8 -6l-1 -12l-6 -17q3 -24 3 -31l-4 -3q0 -13 -1 -19q0 -1 -1 -3v-3q0 -8 8 -13q3 -12 10 -15l7 -6l22 -6v-3l8 -2l34 -2l20 3l10 7l6 2l10 15l5 1l25 8q4 7 13 12l3 5
q20 4 23 21q14 14 36 14h4q19 -22 19 -36zM260 370q0 3 -3 12l-5 1l-2 -1h-4q-2 -1 -4 -1q-1 0 -3 1h-3l-10 -7l-9 -1l-5 -2l-17 -22l-11 -8l-16 -28l-9 -6q-3 -17 -14 -29l-4 -7q11 7 25 7l7 3l3 9l14 -1l8 12h6l11 -4l5 15h7v11l13 3l3 3l2 9l13 19q2 5 2 12zM383 648
l-5 -12l-5 -24h-4q-23 0 -33 -21l-9 6l-33 -27h-3l-8 -9l2 -6l-18 -6v-6l-15 -5l-6 -8l-4 -12l-5 -2v-6l-18 -6l-26 -22l-37 24l14 27l5 17l23 10l14 21l7 1l5 7v10l13 13l11 -7q12 14 16 22q18 10 19 15q3 13 19 20l15 14l21 2l9 -2q33 -7 36 -28z" />
    <glyph glyph-name="egrave" unicode="&#xe8;" horiz-adv-x="377" 
d="M359 82q0 -12 -18 -30q-5 -16 -15 -26l-6 -1l-11 -19l-18 -3l-19 -12l-10 -18l-11 2q-11 -5 -18 -6l-6 -9q-3 1 -9 1q-13 0 -25 -18l-14 12q-4 -1 -12 -1q-13 0 -22 4h-17l-8 5q-38 6 -48 29v3l-12 6l-6 17l-12 8v15l-12 44l2 36l4 16v21l5 16l-1 7l7 12l-2 -2q0 9 5 19
v5l-3 24q0 17 15 30q1 2 1 6t-3.5 16.5t-3.5 17.5q0 12 6 25q8 -12 23 -12h3q2 4 9 9q8 25 22 42l4 4q0 4 6 23h8l2 5l8 2q5 8 6.5 9.5t21.5 12.5q4 7 12 13q4 2 10 4l4 6q27 9 34 9q8 0 15 -4l5 1l7 -4q12 -9 24 -15l17 -13v-4q23 -18 23 -51l-3 -10l3 -33l-9 -6l-10 -26
l-19 -21l-1 -16q-32 -23 -59 -37q-9 -14 -28 -14h-3l-19 -12h-16l-24 -10l-18 9h-2q-2 -8 -4 -24l-8 -6l-1 -12l-6 -17q3 -24 3 -31l-4 -3q0 -13 -1 -19q0 -1 -1 -3v-3q0 -8 8 -13q3 -12 10 -15l7 -6l22 -6v-3l8 -2l34 -2l20 3l10 7l6 2l10 15l5 1l25 8q4 7 13 12l3 5
q20 4 23 21q14 14 36 14h4q19 -22 19 -36zM260 370q0 3 -3 12l-5 1l-2 -1h-4q-2 -1 -4 -1q-1 0 -3 1h-3l-10 -7l-9 -1l-5 -2l-17 -22l-11 -8l-16 -28l-9 -6q-3 -17 -14 -29l-4 -7q11 7 25 7l7 3l3 9l14 -1l8 12h6l11 -4l5 15h7v11l13 3l3 3l2 9l13 19q2 5 2 12zM307 514
l-16 -23l-34 9l-7 5q-3 3 -8 7q-17 2 -21 10q-2 0 -9.5 1.5t-13.5 1.5l-9 12q-7 5 -10 11q-7 2 -18 12q-16 6 -23 18l-10 10q-10 2 -21 18l-1 3l-20 5l-2 21l7 8l9 15l16 5l14 14l22 -10l14 -4l11 -15l20 -21l10 -18l11 -8l6 -12l13 -5l7 -10l14 -6l4 -5q8 -4 15 -12l3 -2
q13 -6 16 -13z" />
    <glyph glyph-name="ecircumflex" unicode="&#xea;" horiz-adv-x="377" 
d="M359 82q0 -12 -18 -30q-5 -16 -15 -26l-6 -1l-11 -19l-18 -3l-19 -12l-10 -18l-11 2q-11 -5 -18 -6l-6 -9q-3 1 -9 1q-13 0 -25 -18l-14 12q-4 -1 -12 -1q-13 0 -22 4h-17l-8 5q-38 6 -48 29v3l-12 6l-6 17l-12 8v15l-12 44l2 36l4 16v21l5 16l-1 7l7 12l-2 -2q0 9 5 19
v5l-3 24q0 17 15 30q1 2 1 6t-3.5 16.5t-3.5 17.5q0 12 6 25q8 -12 23 -12h3q2 4 9 9q8 25 22 42l4 4q0 4 6 23h8l2 5l8 2q5 8 6.5 9.5t21.5 12.5q4 7 12 13q4 2 10 4l4 6q27 9 34 9q8 0 15 -4l5 1l7 -4q12 -9 24 -15l17 -13v-4q23 -18 23 -51l-3 -10l3 -33l-9 -6l-10 -26
l-19 -21l-1 -16q-32 -23 -59 -37q-9 -14 -28 -14h-3l-19 -12h-16l-24 -10l-18 9h-2q-2 -8 -4 -24l-8 -6l-1 -12l-6 -17q3 -24 3 -31l-4 -3q0 -13 -1 -19q0 -1 -1 -3v-3q0 -8 8 -13q3 -12 10 -15l7 -6l22 -6v-3l8 -2l34 -2l20 3l10 7l6 2l10 15l5 1l25 8q4 7 13 12l3 5
q20 4 23 21q14 14 36 14h4q19 -22 19 -36zM260 370q0 3 -3 12l-5 1l-2 -1h-4q-2 -1 -4 -1q-1 0 -3 1h-3l-10 -7l-9 -1l-5 -2l-17 -22l-11 -8l-16 -28l-9 -6q-3 -17 -14 -29l-4 -7q11 7 25 7l7 3l3 9l14 -1l8 12h6l11 -4l5 15h7v11l13 3l3 3l2 9l13 19q2 5 2 12zM410 515
l-19 -16l-20 -7l-34 5q-22 11 -38 32q-17 3 -23 17l-6 4l-13 13l-16 9v9l-12 12l1 3l-3 5l-5 -10l-8 -2v-3l-4 -2v-3l-20 -15v-8l-16 -5l-4 -7l-5 -3l-3 -3l-14 -8l3 1q-5 -5 -10 -8l-6 -2l-11 -14l-10 -7l-18 -21l-37 25q0 25 21 34l2 6h3v3l5 1l8 4q11 18 36 38l2 5l6 2
l2 3l12 10q18 8 18 10q-1 1 -5 1q0 10 17 16q4 3 7 14q4 3 15 23l9 -2q9 7 22 7h4l18 -2l12 -22l17 -20l2 -4l10 -6l3 -12l10 -8q1 -6 8 -14q8 -2 11 -9l20 -16v-11l8 -4l7 -7l15 -5z" />
    <glyph glyph-name="edieresis" unicode="&#xeb;" horiz-adv-x="377" 
d="M359 82q0 -12 -18 -30q-5 -16 -15 -26l-6 -1l-11 -19l-18 -3l-19 -12l-10 -18l-11 2q-11 -5 -18 -6l-6 -9q-3 1 -9 1q-13 0 -25 -18l-14 12q-4 -1 -12 -1q-13 0 -22 4h-17l-8 5q-38 6 -48 29v3l-12 6l-6 17l-12 8v15l-12 44l2 36l4 16v21l5 16l-1 7l7 12l-2 -2q0 9 5 19
v5l-3 24q0 17 15 30q1 2 1 6t-3.5 16.5t-3.5 17.5q0 12 6 25q8 -12 23 -12h3q2 4 9 9q8 25 22 42l4 4q0 4 6 23h8l2 5l8 2q5 8 6.5 9.5t21.5 12.5q4 7 12 13q4 2 10 4l4 6q27 9 34 9q8 0 15 -4l5 1l7 -4q12 -9 24 -15l17 -13v-4q23 -18 23 -51l-3 -10l3 -33l-9 -6l-10 -26
l-19 -21l-1 -16q-32 -23 -59 -37q-9 -14 -28 -14h-3l-19 -12h-16l-24 -10l-18 9h-2q-2 -8 -4 -24l-8 -6l-1 -12l-6 -17q3 -24 3 -31l-4 -3q0 -13 -1 -19q0 -1 -1 -3v-3q0 -8 8 -13q3 -12 10 -15l7 -6l22 -6v-3l8 -2l34 -2l20 3l10 7l6 2l10 15l5 1l25 8q4 7 13 12l3 5
q20 4 23 21q14 14 36 14h4q19 -22 19 -36zM260 370q0 3 -3 12l-5 1l-2 -1h-4q-2 -1 -4 -1q-1 0 -3 1h-3l-10 -7l-9 -1l-5 -2l-17 -22l-11 -8l-16 -28l-9 -6q-3 -17 -14 -29l-4 -7q11 7 25 7l7 3l3 9l14 -1l8 12h6l11 -4l5 15h7v11l13 3l3 3l2 9l13 19q2 5 2 12zM371 559
l-13 -28l-7 -2l-1 -4l-8 -4q-5 -7 -8 -7h-2l-14 -7l-4 4l-18 -6q-4 9 -20.5 18t-18.5 20l-4 22l6 6l-2 5l12 12v2l6 6l10 6q5 8 17 8q7 0 12 -2l5 -3h18l12 -14l13 -6v-7l7 -4l-3 -11zM213 560l-6 -4l3 -11l-6 -3v-7l-14 -6l-12 -14l-17 -1l-9 -2l2 1q-9 -3 -15 -3
q-10 0 -15 9q-2 0 -7 5l-7 4q2 2 2 3v2h-4l-4 2l-6 8l3 6l-8 11l5 16q8 17 24 24l4 4q4 4 13 11l16 -6l8 3l6 -6q9 0 16 -10l14 -7z" />
    <glyph glyph-name="iacute" unicode="&#xed;" horiz-adv-x="328" 
d="M317 146q0 -23 -8 -29l-5 -4l-5 -14l-16 -5q-7 -16 -21 -25l-9 -3l-13 -14l-12 -3q-7 -18 -29 -19q-2 -3 -9 -12q-15 -10 -31 -12l-5 -1l-7 -9h-20l-16 -12l-41 30l-19 39l-1 49l-4 12l12 88l4 4q-3 15 -3 29q0 9 6 37l5 23q-2 6 -8 13l6 19l2 23l2 3q-4 9 -5 20
q1 2 2 5.5t1 5.5q-3 9 -3 17q0 24 27 22l12 -1q12 6 15 6q20 0 27 -22v-4q4 -12 4 -23q0 -9 -2 -13l-7 -50l7 -14q0 -18 -12 -32l4 -12l-13 -38q-2 -25 -5 -38v-25l-6 -14l1 -10l-2 -23l2 -18l15 -12l12 2l2 3l8 -1l13 4l11 11l4 6l7 1l2 5l3 4l6 -4l10 10l6 -1l2 7h2l3 8
l9 4l19 9q23 16 45 16h4q11 -7 15 -18zM280 648l-5 -12l-5 -24h-4q-23 0 -33 -21l-9 6l-33 -27h-3l-8 -9l2 -6l-18 -6v-6l-15 -5l-6 -8l-4 -12l-5 -2v-6l-18 -6l-26 -22l-37 24l14 27l5 17l23 10l14 21l7 1l5 7v10l13 13l11 -7q12 14 16 22q18 10 19 15q3 13 19 20l15 14
l21 2l9 -2q33 -7 36 -28z" />
    <glyph glyph-name="igrave" unicode="&#xec;" horiz-adv-x="328" 
d="M317 146q0 -23 -8 -29l-5 -4l-5 -14l-16 -5q-7 -16 -21 -25l-9 -3l-13 -14l-12 -3q-7 -18 -29 -19q-2 -3 -9 -12q-15 -10 -31 -12l-5 -1l-7 -9h-20l-16 -12l-41 30l-19 39l-1 49l-4 12l12 88l4 4q-3 15 -3 29q0 9 6 37l5 23q-2 6 -8 13l6 19l2 23l2 3q-4 9 -5 20
q1 2 2 5.5t1 5.5q-3 9 -3 17q0 24 27 22l12 -1q12 6 15 6q20 0 27 -22v-4q4 -12 4 -23q0 -9 -2 -13l-7 -50l7 -14q0 -18 -12 -32l4 -12l-13 -38q-2 -25 -5 -38v-25l-6 -14l1 -10l-2 -23l2 -18l15 -12l12 2l2 3l8 -1l13 4l11 11l4 6l7 1l2 5l3 4l6 -4l10 10l6 -1l2 7h2l3 8
l9 4l19 9q23 16 45 16h4q11 -7 15 -18zM204 514l-16 -23l-34 9l-7 5q-3 3 -8 7q-17 2 -21 10q-2 0 -9.5 1.5t-13.5 1.5l-9 12q-7 5 -10 11q-7 2 -18 12q-16 6 -23 18l-10 10q-10 2 -21 18l-1 3l-20 5l-2 21l7 8l9 15l16 5l14 14l22 -10l14 -4l11 -15l20 -21l10 -18l11 -8
l6 -12l13 -5l7 -10l14 -6l4 -5q8 -4 15 -12l3 -2q13 -6 16 -13z" />
    <glyph glyph-name="icircumflex" unicode="&#xee;" horiz-adv-x="328" 
d="M317 146q0 -23 -8 -29l-5 -4l-5 -14l-16 -5q-7 -16 -21 -25l-9 -3l-13 -14l-12 -3q-7 -18 -29 -19q-2 -3 -9 -12q-15 -10 -31 -12l-5 -1l-7 -9h-20l-16 -12l-41 30l-19 39l-1 49l-4 12l12 88l4 4q-3 15 -3 29q0 9 6 37l5 23q-2 6 -8 13l6 19l2 23l2 3q-4 9 -5 20
q1 2 2 5.5t1 5.5q-3 9 -3 17q0 24 27 22l12 -1q12 6 15 6q20 0 27 -22v-4q4 -12 4 -23q0 -9 -2 -13l-7 -50l7 -14q0 -18 -12 -32l4 -12l-13 -38q-2 -25 -5 -38v-25l-6 -14l1 -10l-2 -23l2 -18l15 -12l12 2l2 3l8 -1l13 4l11 11l4 6l7 1l2 5l3 4l6 -4l10 10l6 -1l2 7h2l3 8
l9 4l19 9q23 16 45 16h4q11 -7 15 -18zM307 515l-19 -16l-20 -7l-34 5q-22 11 -38 32q-17 3 -23 17l-6 4l-13 13l-16 9v9l-12 12l1 3l-3 5l-5 -10l-8 -2v-3l-4 -2v-3l-20 -15v-8l-16 -5l-4 -7l-5 -3l-3 -3l-14 -8l3 1q-5 -5 -10 -8l-6 -2l-11 -14l-10 -7l-18 -21l-37 25
q0 25 21 34l2 6h3v3l5 1l8 4q11 18 36 38l2 5l6 2l2 3l12 10q18 8 18 10q-1 1 -5 1q0 10 17 16q4 3 7 14q4 3 15 23l9 -2q9 7 22 7h4l18 -2l12 -22l17 -20l2 -4l10 -6l3 -12l10 -8q1 -6 8 -14q8 -2 11 -9l20 -16v-11l8 -4l7 -7l15 -5z" />
    <glyph glyph-name="idieresis" unicode="&#xef;" horiz-adv-x="328" 
d="M317 146q0 -23 -8 -29l-5 -4l-5 -14l-16 -5q-7 -16 -21 -25l-9 -3l-13 -14l-12 -3q-7 -18 -29 -19q-2 -3 -9 -12q-15 -10 -31 -12l-5 -1l-7 -9h-20l-16 -12l-41 30l-19 39l-1 49l-4 12l12 88l4 4q-3 15 -3 29q0 9 6 37l5 23q-2 6 -8 13l6 19l2 23l2 3q-4 9 -5 20
q1 2 2 5.5t1 5.5q-3 9 -3 17q0 24 27 22l12 -1q12 6 15 6q20 0 27 -22v-4q4 -12 4 -23q0 -9 -2 -13l-7 -50l7 -14q0 -18 -12 -32l4 -12l-13 -38q-2 -25 -5 -38v-25l-6 -14l1 -10l-2 -23l2 -18l15 -12l12 2l2 3l8 -1l13 4l11 11l4 6l7 1l2 5l3 4l6 -4l10 10l6 -1l2 7h2l3 8
l9 4l19 9q23 16 45 16h4q11 -7 15 -18zM268 559l-13 -28l-7 -2l-1 -4l-8 -4q-5 -7 -8 -7h-2l-14 -7l-4 4l-18 -6q-4 9 -20.5 18t-18.5 20l-4 22l6 6l-2 5l12 12v2l6 6l10 6q5 8 17 8q7 0 12 -2l5 -3h18l12 -14l13 -6v-7l7 -4l-3 -11zM110 560l-6 -4l3 -11l-6 -3v-7l-14 -6
l-12 -14l-17 -1l-9 -2l2 1q-9 -3 -15 -3q-10 0 -15 9q-2 0 -7 5l-7 4q2 2 2 3v2h-4l-4 2l-6 8l3 6l-8 11l5 16q8 17 24 24l4 4q4 4 13 11l16 -6l8 3l6 -6q9 0 16 -10l14 -7z" />
    <glyph glyph-name="ntilde" unicode="&#xf1;" horiz-adv-x="670" 
d="M682 162q0 -8 -13 -21l-11 -17l-4 -20l-9 -3l-2 -6q-16 -5 -23 -25q-11 -14 -24 -20q-5 -5 -9 -7l-5 -9l-9 -2l-26 -14l-34 -4l-9 2l-15 -3l-6 7q-14 7 -20 14q-12 3 -18 19q-17 20 -17 32v3l-7 12l-2 2l-6 18l-9 19l2 23l-10 13l-15 86q-3 17 -3 29l-2 5l-5 7l-9 -12
l-36 -38l-13 -21l-7 -14l-11 -16l-8 -8l1 -5l-14 -31l-8 -10l-10 -2l-9 -9q0 -20 -19 -26l-2 -2q-9 -22 -20 -27l-9 -14q-22 -20 -29 -25q-3 -10 -11 -17q-2 -3 -7 -8q-3 -17 -28 -24l-11 -3q-20 1 -33 23l-15 25l5 24l-2 13l2 2l1 13l-11 24l8 12l-4 13l7 14l2 23l-4 4
l8 14l-3 7l-1 16l4 30q-2 10 -2 13q0 2 1 4v4l-5 8l3 32l-1 11l3 16l-4 27l18 30q31 -5 43 -13.5t12 -30.5v-9l7 -12l-3 -21l4 -40l-7 -19l3 -21v-17l-8 -11l6 -18l-6 -11l-1 -11l6 -11l-8 -21l-3 -9v-9l5 -10l17 17q0 15 10 20q1 10 8 15l-3 3l13 12l3 4v9l16 12l4 10l9 6
l39 44q-5 -6 -33 -37v-2l2 7l13 15l9 17v10l15 5l2 13l4 4l1 5v7l14 14v5q-1 3 -1 4q0 18 20 20q9 18 27 21l6 9l2 2q9 13 27 18l9 11h24l12 -14l11 -6l1 -3l7 -2l2 -21l17 -10l-7 -22l11 -24v-28l8 -38l2 -36l9 -21l6 -26q6 -6 9 -17l18 -5v-20l10 -11v-3l4 -1l4 -6l4 5
q-2 0 5 -1q11 0 23 20l12 3l3 5q3 8 12 12l7 -1l4 4l1 5l3 4q10 7 13 21l11 12l2 9l7 16l19 7l27 -9l9 -29q0 -1 1 -2v-3zM409 581q-2 -12 -5 -15v-5q0 -6 -4 -11l-18 -13l-20 -4l-6 -7l-6 -8l-25 -7l-30 -5l-41 15q-4 4 -4 5v1l-27 15l-1 14l-7 -3v12q-6 3 -15 3l-22 -14
q-9 -6 -16 -16q-9 -14 -13 -18q-12 -12 -32 -12l-18 2q-16 18 -16 27q0 14 22 27l13 14l11 5q6 7 22 17l7 1q13 5 24 18l22 4l11 -2l4 1q11 -15 26 -19l12 -7l15 -20l18 -9l2 -5l30 5l4 16v13l10 18q7 12 26 12q14 0 29.5 -13.5t17.5 -31.5z" />
    <glyph glyph-name="oacute" unicode="&#xf3;" horiz-adv-x="427" 
d="M396 234l-6 -18q0 -26 -3 -41l-6 -10v-11l-5 -7l-3 -14l-11 -11l-7 -25l-8 -3l-4 -11l-12 -7l-8 -17l-12 -6l-1 -12l-19 -7q-13 -18 -32 -23l-4 -1q-14 -21 -37 -21q-10 -6 -23 -6l-10 -7l-10 -3l-13 -10l-13 1l-14 -4l-17 7l-43 3l-15 23l-22 23l5 16l-15 34l7 13l-5 24
l5 15q-2 14 -2 20q0 19 10 28q1 10 13 33h5l-2 7l3 14v15q8 9 9 12l-3 14v4q7 14 7 29l21 29l2.5 2t4.5 4l-1 4h4l15 17l1 23l25 9q14 9 18 30h13q11 6 20 6t17 -4l11 -1l26 10l14 -13l11 -7h8l15 -8h8q13 -12 30 -33l2 -5l7 -4l21 -27l19 -47v-10zM330 210l-1 5q-7 7 -8 15
l3 5l-9 19l2 19l-4 5q-13 10 -14 16q-9 4 -9 20l-6 1l-12 20l-9 7l-21 8l-8 2q-6 0 -8 4l-20 -22l-13 -28l-21 -11l-3 -11l-10 -5l-4 -26l-12 -6q-4 -14 -4 -26l-16 -15l5 -3q0 -12 -9 -21q-3 -9 -8 -20v-8l-3 -4l1 -12l-11 -27l2 -5v-28l-4 -14l1 -14l9 -13l14 -5l5 -2l8 4
l26 -2l4 10h4q6 0 7 -3l9 3l8 -3l13 9l2 3l9 2q7 11 33 22l2 5l20 14l11 16l16 8l1 5l5 11v13l12 10l4 7l5 6q-4 12 -4 17q0 9 6 19zM383 648l-5 -12l-5 -24h-4q-23 0 -33 -21l-9 6l-33 -27h-3l-8 -9l2 -6l-18 -6v-6l-15 -5l-6 -8l-4 -12l-5 -2v-6l-18 -6l-26 -22l-37 24
l14 27l5 17l23 10l14 21l7 1l5 7v10l13 13l11 -7q12 14 16 22q18 10 19 15q3 13 19 20l15 14l21 2l9 -2q33 -7 36 -28z" />
    <glyph glyph-name="ograve" unicode="&#xf2;" horiz-adv-x="427" 
d="M396 234l-6 -18q0 -26 -3 -41l-6 -10v-11l-5 -7l-3 -14l-11 -11l-7 -25l-8 -3l-4 -11l-12 -7l-8 -17l-12 -6l-1 -12l-19 -7q-13 -18 -32 -23l-4 -1q-14 -21 -37 -21q-10 -6 -23 -6l-10 -7l-10 -3l-13 -10l-13 1l-14 -4l-17 7l-43 3l-15 23l-22 23l5 16l-15 34l7 13l-5 24
l5 15q-2 14 -2 20q0 19 10 28q1 10 13 33h5l-2 7l3 14v15q8 9 9 12l-3 14v4q7 14 7 29l21 29l2.5 2t4.5 4l-1 4h4l15 17l1 23l25 9q14 9 18 30h13q11 6 20 6t17 -4l11 -1l26 10l14 -13l11 -7h8l15 -8h8q13 -12 30 -33l2 -5l7 -4l21 -27l19 -47v-10zM330 210l-1 5q-7 7 -8 15
l3 5l-9 19l2 19l-4 5q-13 10 -14 16q-9 4 -9 20l-6 1l-12 20l-9 7l-21 8l-8 2q-6 0 -8 4l-20 -22l-13 -28l-21 -11l-3 -11l-10 -5l-4 -26l-12 -6q-4 -14 -4 -26l-16 -15l5 -3q0 -12 -9 -21q-3 -9 -8 -20v-8l-3 -4l1 -12l-11 -27l2 -5v-28l-4 -14l1 -14l9 -13l14 -5l5 -2l8 4
l26 -2l4 10h4q6 0 7 -3l9 3l8 -3l13 9l2 3l9 2q7 11 33 22l2 5l20 14l11 16l16 8l1 5l5 11v13l12 10l4 7l5 6q-4 12 -4 17q0 9 6 19zM307 514l-16 -23l-34 9l-7 5q-3 3 -8 7q-17 2 -21 10q-2 0 -9.5 1.5t-13.5 1.5l-9 12q-7 5 -10 11q-7 2 -18 12q-16 6 -23 18l-10 10
q-10 2 -21 18l-1 3l-20 5l-2 21l7 8l9 15l16 5l14 14l22 -10l14 -4l11 -15l20 -21l10 -18l11 -8l6 -12l13 -5l7 -10l14 -6l4 -5q8 -4 15 -12l3 -2q13 -6 16 -13z" />
    <glyph glyph-name="ocircumflex" unicode="&#xf4;" horiz-adv-x="427" 
d="M396 234l-6 -18q0 -26 -3 -41l-6 -10v-11l-5 -7l-3 -14l-11 -11l-7 -25l-8 -3l-4 -11l-12 -7l-8 -17l-12 -6l-1 -12l-19 -7q-13 -18 -32 -23l-4 -1q-14 -21 -37 -21q-10 -6 -23 -6l-10 -7l-10 -3l-13 -10l-13 1l-14 -4l-17 7l-43 3l-15 23l-22 23l5 16l-15 34l7 13l-5 24
l5 15q-2 14 -2 20q0 19 10 28q1 10 13 33h5l-2 7l3 14v15q8 9 9 12l-3 14v4q7 14 7 29l21 29l2.5 2t4.5 4l-1 4h4l15 17l1 23l25 9q14 9 18 30h13q11 6 20 6t17 -4l11 -1l26 10l14 -13l11 -7h8l15 -8h8q13 -12 30 -33l2 -5l7 -4l21 -27l19 -47v-10zM330 210l-1 5q-7 7 -8 15
l3 5l-9 19l2 19l-4 5q-13 10 -14 16q-9 4 -9 20l-6 1l-12 20l-9 7l-21 8l-8 2q-6 0 -8 4l-20 -22l-13 -28l-21 -11l-3 -11l-10 -5l-4 -26l-12 -6q-4 -14 -4 -26l-16 -15l5 -3q0 -12 -9 -21q-3 -9 -8 -20v-8l-3 -4l1 -12l-11 -27l2 -5v-28l-4 -14l1 -14l9 -13l14 -5l5 -2l8 4
l26 -2l4 10h4q6 0 7 -3l9 3l8 -3l13 9l2 3l9 2q7 11 33 22l2 5l20 14l11 16l16 8l1 5l5 11v13l12 10l4 7l5 6q-4 12 -4 17q0 9 6 19zM410 515l-19 -16l-20 -7l-34 5q-22 11 -38 32q-17 3 -23 17l-6 4l-13 13l-16 9v9l-12 12l1 3l-3 5l-5 -10l-8 -2v-3l-4 -2v-3l-20 -15v-8
l-16 -5l-4 -7l-5 -3l-3 -3l-14 -8l3 1q-5 -5 -10 -8l-6 -2l-11 -14l-10 -7l-18 -21l-37 25q0 25 21 34l2 6h3v3l5 1l8 4q11 18 36 38l2 5l6 2l2 3l12 10q18 8 18 10q-1 1 -5 1q0 10 17 16q4 3 7 14q4 3 15 23l9 -2q9 7 22 7h4l18 -2l12 -22l17 -20l2 -4l10 -6l3 -12l10 -8
q1 -6 8 -14q8 -2 11 -9l20 -16v-11l8 -4l7 -7l15 -5z" />
    <glyph glyph-name="odieresis" unicode="&#xf6;" horiz-adv-x="427" 
d="M396 234l-6 -18q0 -26 -3 -41l-6 -10v-11l-5 -7l-3 -14l-11 -11l-7 -25l-8 -3l-4 -11l-12 -7l-8 -17l-12 -6l-1 -12l-19 -7q-13 -18 -32 -23l-4 -1q-14 -21 -37 -21q-10 -6 -23 -6l-10 -7l-10 -3l-13 -10l-13 1l-14 -4l-17 7l-43 3l-15 23l-22 23l5 16l-15 34l7 13l-5 24
l5 15q-2 14 -2 20q0 19 10 28q1 10 13 33h5l-2 7l3 14v15q8 9 9 12l-3 14v4q7 14 7 29l21 29l2.5 2t4.5 4l-1 4h4l15 17l1 23l25 9q14 9 18 30h13q11 6 20 6t17 -4l11 -1l26 10l14 -13l11 -7h8l15 -8h8q13 -12 30 -33l2 -5l7 -4l21 -27l19 -47v-10zM330 210l-1 5q-7 7 -8 15
l3 5l-9 19l2 19l-4 5q-13 10 -14 16q-9 4 -9 20l-6 1l-12 20l-9 7l-21 8l-8 2q-6 0 -8 4l-20 -22l-13 -28l-21 -11l-3 -11l-10 -5l-4 -26l-12 -6q-4 -14 -4 -26l-16 -15l5 -3q0 -12 -9 -21q-3 -9 -8 -20v-8l-3 -4l1 -12l-11 -27l2 -5v-28l-4 -14l1 -14l9 -13l14 -5l5 -2l8 4
l26 -2l4 10h4q6 0 7 -3l9 3l8 -3l13 9l2 3l9 2q7 11 33 22l2 5l20 14l11 16l16 8l1 5l5 11v13l12 10l4 7l5 6q-4 12 -4 17q0 9 6 19zM371 559l-13 -28l-7 -2l-1 -4l-8 -4q-5 -7 -8 -7h-2l-14 -7l-4 4l-18 -6q-4 9 -20.5 18t-18.5 20l-4 22l6 6l-2 5l12 12v2l6 6l10 6
q5 8 17 8q7 0 12 -2l5 -3h18l12 -14l13 -6v-7l7 -4l-3 -11zM213 560l-6 -4l3 -11l-6 -3v-7l-14 -6l-12 -14l-17 -1l-9 -2l2 1q-9 -3 -15 -3q-10 0 -15 9q-2 0 -7 5l-7 4q2 2 2 3v2h-4l-4 2l-6 8l3 6l-8 11l5 16q8 17 24 24l4 4q4 4 13 11l16 -6l8 3l6 -6q9 0 16 -10l14 -7z
" />
    <glyph glyph-name="otilde" unicode="&#xf5;" horiz-adv-x="427" 
d="M396 234l-6 -18q0 -26 -3 -41l-6 -10v-11l-5 -7l-3 -14l-11 -11l-7 -25l-8 -3l-4 -11l-12 -7l-8 -17l-12 -6l-1 -12l-19 -7q-13 -18 -32 -23l-4 -1q-14 -21 -37 -21q-10 -6 -23 -6l-10 -7l-10 -3l-13 -10l-13 1l-14 -4l-17 7l-43 3l-15 23l-22 23l5 16l-15 34l7 13l-5 24
l5 15q-2 14 -2 20q0 19 10 28q1 10 13 33h5l-2 7l3 14v15q8 9 9 12l-3 14v4q7 14 7 29l21 29l2.5 2t4.5 4l-1 4h4l15 17l1 23l25 9q14 9 18 30h13q11 6 20 6t17 -4l11 -1l26 10l14 -13l11 -7h8l15 -8h8q13 -12 30 -33l2 -5l7 -4l21 -27l19 -47v-10zM330 210l-1 5q-7 7 -8 15
l3 5l-9 19l2 19l-4 5q-13 10 -14 16q-9 4 -9 20l-6 1l-12 20l-9 7l-21 8l-8 2q-6 0 -8 4l-20 -22l-13 -28l-21 -11l-3 -11l-10 -5l-4 -26l-12 -6q-4 -14 -4 -26l-16 -15l5 -3q0 -12 -9 -21q-3 -9 -8 -20v-8l-3 -4l1 -12l-11 -27l2 -5v-28l-4 -14l1 -14l9 -13l14 -5l5 -2l8 4
l26 -2l4 10h4q6 0 7 -3l9 3l8 -3l13 9l2 3l9 2q7 11 33 22l2 5l20 14l11 16l16 8l1 5l5 11v13l12 10l4 7l5 6q-4 12 -4 17q0 9 6 19zM394 581q-2 -12 -5 -15v-5q0 -6 -4 -11l-18 -13l-20 -4l-6 -7l-6 -8l-25 -7l-30 -5l-41 15q-4 4 -4 5v1l-27 15l-1 14l-7 -3v12q-6 3 -15 3
l-22 -14q-9 -6 -16 -16q-9 -14 -13 -18q-12 -12 -32 -12l-18 2q-16 18 -16 27q0 14 22 27l13 14l11 5q6 7 22 17l7 1q13 5 24 18l22 4l11 -2l4 1q11 -15 26 -19l12 -7l15 -20l18 -9l2 -5l30 5l4 16v13l10 18q7 12 26 12q14 0 29.5 -13.5t17.5 -31.5z" />
    <glyph glyph-name="uacute" unicode="&#xfa;" horiz-adv-x="618" 
d="M602 58q0 -12 -18 -29l-8 -3l-7 -9l-18 -5q-5 -7 -10 -7q-1 0 -2 1h-3q-22 -11 -53 -11h-8l-25 5l-17 8l-38 32l-8 27l-16 13q3 4 3 13q0 6 -8 20l3 24v4q0 12 -7 31l6 30l-13 -26l-15 -2l-2 -21q-8 -4 -19 -4l-11 -24l-13 -15q-8 -9 -14 -10l-3 -2l-36 -37h-4l-19 -22
l-18 -9l-10 -13l-23 -7l-33 -13l-20 10q-20 0 -28 18l-9 5q0 3 1 8v7l-16 14l4 6l-12 28l4 4l-2 2v6q-1 3 -1 5q0 11 3 21l1 26l-4 21q5 8 5 14q0 7 -6 13l11 8v12l-4 33l11 64q0 16 -9 47q3 32 42 35l8 -3l14 -2l18 -20l-6 -26l-2 -43l3 -33l-6 -12l3 -8l-5 -16v-10l-2 -3
q1 -3 1 -9q0 -13 -4 -27l5 -7l-4 -15l2 -12v-14q5 -6 5 -15q0 -8 -4 -16v-4q5 -17 5 -22l9 -9q6 4 14 10q3 10 14 13v10q6 0 19 3l2 9l17 7l3 3q7 7 23 13v4l19 14q7 19 25 25q11 11 15 13l13 17v3l4 2l9 4l5 14l21 9l4 1l7 7v9l6 2q3 16 16 24l15 34l5 18l2 4h4l7 5l-6 2
q11 18 17 38l29 1l23 -19l10 -16l-11 -43l-15 -20l-12 -39l-10 -6v-15l-6 -11l3 -18l-8 -7l4 -32l2 -45h5v-26l14 -17l13 -7l1 -5q7 -1 17 -5l25 -2l15 4l27 13q8 4 20 4q30 0 30 -26zM437 648l-5 -12l-5 -24h-4q-23 0 -33 -21l-9 6l-33 -27h-3l-8 -9l2 -6l-18 -6v-6l-15 -5
l-6 -8l-4 -12l-5 -2v-6l-18 -6l-26 -22l-37 24l14 27l5 17l23 10l14 21l7 1l5 7v10l13 13l11 -7q12 14 16 22q18 10 19 15q3 13 19 20l15 14l21 2l9 -2q33 -7 36 -28z" />
    <glyph glyph-name="ugrave" unicode="&#xf9;" horiz-adv-x="618" 
d="M602 58q0 -12 -18 -29l-8 -3l-7 -9l-18 -5q-5 -7 -10 -7q-1 0 -2 1h-3q-22 -11 -53 -11h-8l-25 5l-17 8l-38 32l-8 27l-16 13q3 4 3 13q0 6 -8 20l3 24v4q0 12 -7 31l6 30l-13 -26l-15 -2l-2 -21q-8 -4 -19 -4l-11 -24l-13 -15q-8 -9 -14 -10l-3 -2l-36 -37h-4l-19 -22
l-18 -9l-10 -13l-23 -7l-33 -13l-20 10q-20 0 -28 18l-9 5q0 3 1 8v7l-16 14l4 6l-12 28l4 4l-2 2v6q-1 3 -1 5q0 11 3 21l1 26l-4 21q5 8 5 14q0 7 -6 13l11 8v12l-4 33l11 64q0 16 -9 47q3 32 42 35l8 -3l14 -2l18 -20l-6 -26l-2 -43l3 -33l-6 -12l3 -8l-5 -16v-10l-2 -3
q1 -3 1 -9q0 -13 -4 -27l5 -7l-4 -15l2 -12v-14q5 -6 5 -15q0 -8 -4 -16v-4q5 -17 5 -22l9 -9q6 4 14 10q3 10 14 13v10q6 0 19 3l2 9l17 7l3 3q7 7 23 13v4l19 14q7 19 25 25q11 11 15 13l13 17v3l4 2l9 4l5 14l21 9l4 1l7 7v9l6 2q3 16 16 24l15 34l5 18l2 4h4l7 5l-6 2
q11 18 17 38l29 1l23 -19l10 -16l-11 -43l-15 -20l-12 -39l-10 -6v-15l-6 -11l3 -18l-8 -7l4 -32l2 -45h5v-26l14 -17l13 -7l1 -5q7 -1 17 -5l25 -2l15 4l27 13q8 4 20 4q30 0 30 -26zM361 514l-16 -23l-34 9l-7 5q-3 3 -8 7q-17 2 -21 10q-2 0 -9.5 1.5t-13.5 1.5l-9 12
q-7 5 -10 11q-7 2 -18 12q-16 6 -23 18l-10 10q-10 2 -21 18l-1 3l-20 5l-2 21l7 8l9 15l16 5l14 14l22 -10l14 -4l11 -15l20 -21l10 -18l11 -8l6 -12l13 -5l7 -10l14 -6l4 -5q8 -4 15 -12l3 -2q13 -6 16 -13z" />
    <glyph glyph-name="ucircumflex" unicode="&#xfb;" horiz-adv-x="618" 
d="M602 58q0 -12 -18 -29l-8 -3l-7 -9l-18 -5q-5 -7 -10 -7q-1 0 -2 1h-3q-22 -11 -53 -11h-8l-25 5l-17 8l-38 32l-8 27l-16 13q3 4 3 13q0 6 -8 20l3 24v4q0 12 -7 31l6 30l-13 -26l-15 -2l-2 -21q-8 -4 -19 -4l-11 -24l-13 -15q-8 -9 -14 -10l-3 -2l-36 -37h-4l-19 -22
l-18 -9l-10 -13l-23 -7l-33 -13l-20 10q-20 0 -28 18l-9 5q0 3 1 8v7l-16 14l4 6l-12 28l4 4l-2 2v6q-1 3 -1 5q0 11 3 21l1 26l-4 21q5 8 5 14q0 7 -6 13l11 8v12l-4 33l11 64q0 16 -9 47q3 32 42 35l8 -3l14 -2l18 -20l-6 -26l-2 -43l3 -33l-6 -12l3 -8l-5 -16v-10l-2 -3
q1 -3 1 -9q0 -13 -4 -27l5 -7l-4 -15l2 -12v-14q5 -6 5 -15q0 -8 -4 -16v-4q5 -17 5 -22l9 -9q6 4 14 10q3 10 14 13v10q6 0 19 3l2 9l17 7l3 3q7 7 23 13v4l19 14q7 19 25 25q11 11 15 13l13 17v3l4 2l9 4l5 14l21 9l4 1l7 7v9l6 2q3 16 16 24l15 34l5 18l2 4h4l7 5l-6 2
q11 18 17 38l29 1l23 -19l10 -16l-11 -43l-15 -20l-12 -39l-10 -6v-15l-6 -11l3 -18l-8 -7l4 -32l2 -45h5v-26l14 -17l13 -7l1 -5q7 -1 17 -5l25 -2l15 4l27 13q8 4 20 4q30 0 30 -26zM464 515l-19 -16l-20 -7l-34 5q-22 11 -38 32q-17 3 -23 17l-6 4l-13 13l-16 9v9l-12 12
l1 3l-3 5l-5 -10l-8 -2v-3l-4 -2v-3l-20 -15v-8l-16 -5l-4 -7l-5 -3l-3 -3l-14 -8l3 1q-5 -5 -10 -8l-6 -2l-11 -14l-10 -7l-18 -21l-37 25q0 25 21 34l2 6h3v3l5 1l8 4q11 18 36 38l2 5l6 2l2 3l12 10q18 8 18 10q-1 1 -5 1q0 10 17 16q4 3 7 14q4 3 15 23l9 -2q9 7 22 7h4
l18 -2l12 -22l17 -20l2 -4l10 -6l3 -12l10 -8q1 -6 8 -14q8 -2 11 -9l20 -16v-11l8 -4l7 -7l15 -5z" />
    <glyph glyph-name="udieresis" unicode="&#xfc;" horiz-adv-x="618" 
d="M602 58q0 -12 -18 -29l-8 -3l-7 -9l-18 -5q-5 -7 -10 -7q-1 0 -2 1h-3q-22 -11 -53 -11h-8l-25 5l-17 8l-38 32l-8 27l-16 13q3 4 3 13q0 6 -8 20l3 24v4q0 12 -7 31l6 30l-13 -26l-15 -2l-2 -21q-8 -4 -19 -4l-11 -24l-13 -15q-8 -9 -14 -10l-3 -2l-36 -37h-4l-19 -22
l-18 -9l-10 -13l-23 -7l-33 -13l-20 10q-20 0 -28 18l-9 5q0 3 1 8v7l-16 14l4 6l-12 28l4 4l-2 2v6q-1 3 -1 5q0 11 3 21l1 26l-4 21q5 8 5 14q0 7 -6 13l11 8v12l-4 33l11 64q0 16 -9 47q3 32 42 35l8 -3l14 -2l18 -20l-6 -26l-2 -43l3 -33l-6 -12l3 -8l-5 -16v-10l-2 -3
q1 -3 1 -9q0 -13 -4 -27l5 -7l-4 -15l2 -12v-14q5 -6 5 -15q0 -8 -4 -16v-4q5 -17 5 -22l9 -9q6 4 14 10q3 10 14 13v10q6 0 19 3l2 9l17 7l3 3q7 7 23 13v4l19 14q7 19 25 25q11 11 15 13l13 17v3l4 2l9 4l5 14l21 9l4 1l7 7v9l6 2q3 16 16 24l15 34l5 18l2 4h4l7 5l-6 2
q11 18 17 38l29 1l23 -19l10 -16l-11 -43l-15 -20l-12 -39l-10 -6v-15l-6 -11l3 -18l-8 -7l4 -32l2 -45h5v-26l14 -17l13 -7l1 -5q7 -1 17 -5l25 -2l15 4l27 13q8 4 20 4q30 0 30 -26zM425 559l-13 -28l-7 -2l-1 -4l-8 -4q-5 -7 -8 -7h-2l-14 -7l-4 4l-18 -6q-4 9 -20.5 18
t-18.5 20l-4 22l6 6l-2 5l12 12v2l6 6l10 6q5 8 17 8q7 0 12 -2l5 -3h18l12 -14l13 -6v-7l7 -4l-3 -11zM267 560l-6 -4l3 -11l-6 -3v-7l-14 -6l-12 -14l-17 -1l-9 -2l2 1q-9 -3 -15 -3q-10 0 -15 9q-2 0 -7 5l-7 4q2 2 2 3v2h-4l-4 2l-6 8l3 6l-8 11l5 16q8 17 24 24l4 4
q4 4 13 11l16 -6l8 3l6 -6q9 0 16 -10l14 -7z" />
    <glyph glyph-name="dagger" unicode="&#x2020;" horiz-adv-x="459" 
d="M466 349l-46 -16q-14 -5 -37 -5q-10 -3 -20 -3q-6 0 -38 5l1 -2q-32 0 -51 -1q4 0 4 -7l-5 -9q0 -5 2 -13t2 -12q0 -7 -7 -16q3 -9 3 -18t-3 -18l8 -10l-8 -12q3 -7 3 -17q0 -8 -3 -17l7 -22l-3 -3l-4 -19l4 -14q-5 -7 -5 -13q0 -5 5 -10v-22l-1 -21l2 -45l7 -31
q0 -1 1 -3v-2q0 -12 -11 -23.5t-24 -11.5q-33 0 -33 55l-4 32l-8 50l2 50l-8 26l5 25v21l3 15l-3 25l1 50l5 7l-1 4q-2 5 -2 17l-3 7l-13 -4l-19 4l-11 -2q-4 3 -8 3q-3 0 -4 -1l-1 9l-13 -13l-16 -1h-23l-20 4l-20 -4q-45 15 -45 50v3l16 29l49 -4l12 4h19l20 4l19 -10
l14 -1l14 6l28 -5l2 19l-4 26l8 37l3 47l16 23l14 2l7 4v5l15 -5l6 4q29 -4 29 -30q0 -10 -3 -19l-2 -2v-38q-3 -11 -6 -35l4 -9l-4 -16l2 -8l-4 -5l1 -4l18 -1l38 2l44 -4l12 2l28 -4h23z" />
    <glyph glyph-name="degree" unicode="&#xb0;" horiz-adv-x="236" 
d="M224 421q0 -11 -17 -45l-12 -7l-16 -12l-11 -4l-33 -16l-39 5l-35 -4l-23 20q-16 14 -18 43q0 4 1 13l-8 17l6 11l2 14l7 2q1 4 7 8q0 14 18 20l2 3l16 2l16 18l7 -3l5 4l9 -2l3 2l31 -7l5 1l14 -10h5q13 -3 25 -15l4 -8l18 -15l11 -19l-3 -5q3 -4 3 -11zM162 418
q-6 13 -8 25q-5 1 -11 4l-3 14q-4 0 -9 1h-7q-9 0 -29 -15l-4 -7l-3 -5l-16 -31l6 -15l-2 -6l1 -2l16 2l16 -4q12 6 23 6q3 2 20 6l7 9l-4 11z" />
    <glyph glyph-name="cent" unicode="&#xa2;" horiz-adv-x="619" 
d="M587 186q0 -10 -4 -18l-13 -6q-5 -7 -17 -15q-5 -10 -18 -13l-33 -23l-24 -11l-16 -13l-19 -8l-21 -17l-27 -4l-25 -16l-9 1l-16 -15l-9 1v-4l-1 -16l1 -25l-1 -5v-56l1 -27l3 -13l-1 -5q1 -5 1 -14q0 -14 -4 -23q-6 -4 -12 -10q-18 0 -28 13v54l-2 9l2 19l-4 12l4 26
l3 22l-4 25l1 9l-14 -7l-19 4l-23 -5l-5 -19l2 -29l-4 -33l-6 -22l7 -14l1 -12l-17 -6q-17 3 -17 55v31l-6 25l4 18l-9 4h-17l-7 -2l-34 8q-18 7 -23 21l-23 9l-10 24l-16 23l-11 25l3 12l-10 23l6 59v10l7 31v4l9 21v26h7q5 11 14 21l11 25l5 4q5 1 11 7l-6 7l17 17l-2 3
q3 21 23 22q0 -1 1 -2l11 17l11 3l2 9h27l14 8l1 11l-3 14v11q0 3 -1.5 16t-1.5 24q0 7 2 27l-2 -1q-5 22 -5 28v2q0 10 13 21l24 8h26l6 -16l4 -33l-11 -9l5 -6l-3 -8v-11l-5 -5l1 -26q-3 -16 -3 -24q0 -18 30 -18h20q-1 2 -1 6l1 31l4 11l-4 18l8 21l-4 21l5 3l-5 10l4 11
l19 26l10 -3q42 0 42 -43l-3 -15v-15l-6 -5v-6l-5 -12l3 -11l-12 -28l2 -16l5 -13l-7 -10l5 -6l16 -10l12 -13l11 -7l8 -7l20 -6l1 -12l12 -8l1 -29l-5 -22l-8 -13l-18 -5q-4 -3 -9 -3q-10 0 -21 13q-8 5 -34 39q1 -11 2 -29l-6 -55l-1 -42l-2 -26q1 -5 1 -14q0 -14 -4 -23
l5 -9l-10 -19l-1 -19l2 -4l3 1l9 6l14 4q7 4 17 6q18 9 48 21q4 5 17 11q17 11 26 12l3 2q8 9 22 9h5l3 8l24 10q6 5 13 15q9 6 17 6q27 0 27 -27zM304 302l-5 29l4 21l-4 11q0 5 1 10v7q0 2 -1 2h-1l-15 4l-33 -7l-5 -18l11 -21l-9 -16l3 -7l-5 -32l5 -13l-7 -14l4 -18
l-7 -14l10 -23l-3 -9l2 -9l-9 -18l10 -25l-5 -7v-15l-9 -15l2 -23q6 -2 16 -2q8 0 12 1q15 0 22 9l10 19l1 30l-4 12l4 31l-4 12l6 2l-6 12l3 36l5 7l-5 16zM208 341l-3 22l2 14l-8 -2l-7 -24l-12 -9q-23 -27 -42 -71v-4q0 -20 -16 -35q0 -14 -10 -36l7 -14l-7 -11l3 -7v-8
l7 -14v-12l4 -8l3 -12l7 -6l3 -5l13 -9l26 -11l16 -2l9 5l-6 20l5 13v3l-3 11l6 24l-3 43l4 1l-3 19l2 27l-4 21l4 11l-2 22l2 23l-3 9z" />
    <glyph glyph-name="sterling" unicode="&#xa3;" horiz-adv-x="673" 
d="M642 94l-10 -24v-11l-19 -16l-12 -21l-22 -9l-9 -11q-12 0 -16 -1l-16 -13l-9 4q-6 -1 -14 -1l-4 -4h-11q-10 -6 -27 -9l-42 9q-2 0 -12 -4l-35 3l-17 -8l-9 9l-6 -1l-25 8l-20 1l-14 -12l-13 12l-38 9l-11 -4l-20 7l-12 -1l-3 1l-5 -2l-16 1l-6 -3l-19 7l-15 -4
q-14 -31 -34 -31h-2q-12 -2 -20 -2h-7q-5 1 -8 1l-24 5l-10 17l1 18l-2 4q-2 6 -2 9q0 18 35 35q9 0 13 8t12 17l4 17l13 21h-2l17 50l12 19v26l11 3q0 8 1 12l-4 -1l-18 5l-21 -5l-16 5l-24 -3l-14 -8l-20 11l-16 10l-7 18q0 9 3 19q16 8 24 8l20 8l20 4l21 -4l19 2l31 -3
l12 2l-2 3l19 8l1 4l-2 7l8 11l-3 6l5 12v16l4 2l15 14v4q0 20 14 35l3 9l5 8l3 17q13 4 28 27l2 16l22 10l5 2v11q6 -2 9 -5q2 20 31 21l30 6h7q16 8 38 13q4 0 20 -2l7 4l27 -8h4q13 0 22 -8l8 -2q-14 7 -23 11l45 -21l7 -10l11 -6h8l14 -21l12 -15l2 -14q14 -14 15 -23
l-6 -8l6 -13l-12 -14l-26 -3l-37 23l-10 29l-6 -1l-16 25h-7l-11 5l-13 -8l-13 14l-11 -3l-15 6l-26 -7l-4 1l-8 -3q-7 -6 -17 -11l-11 -12l-10 -3l-10 -15l-11 -4l-1 -12l-12 -10q-3 -16 -15 -28v-11l-14 -17q0 -8 -2 -16l12 -14l-29 -21v-12l11 4l12 -2q2 0 6 1h5
q9 0 19 -3q10 4 25 4h8l4 -3l46 6l26 1q12 0 26 -1q4 1 11 1q6 0 12 -3h9l19 2l12 -4l8 3l13 -6l-1 3q14 3 27 3q2 0 22 -2q8 4 18 4q5 -1 28 -1l26 -21l-27 -27l-21 -3l-12 3h-9q-7 -3 -18 -3l-9 -3l-9 3q-5 -1 -15 -1q-8 0 -12 1l-40 -7l-13 3q-35 -3 -59 -10
q-2 2 -5.5 4.5l-3.5 2.5l-7 -3l-29 -2q-9 4 -19 4q-3 0 -45 -7l-14 3l-26 -9h-4q-14 0 -19 12v-28l-11 -10l2 -17l-19 -28l-4 -14l-24 -70l7 -7h3q2 0 5 1h4q4 0 14 -2l7 6l16 -8h3l2 2q23 0 42 -13l22 3l21 -6q18 6 28 6q6 0 10 -7l6 2l11 -4l35 5l1 -6l20 -6q14 3 26 3
q14 0 31 -5q4 4 16 7q23 5 30 5q6 0 8 -1q12 12 27 15l18 18l11 4l19 25h22z" />
    <glyph glyph-name="section" unicode="&#xa7;" horiz-adv-x="459" 
d="M408 221q0 -27 -31 -51l14 -12l2 -21l13 -16l-4 -12l2 -26l-18 -42l-15 -13l-14 -24q-8 -14 -69 -35l-22 -12l-17 2l-18 -14l-12 6q-16 -8 -36 -11l-17 12l-13 -5l-27 15l-49 26.5t-40 30.5q-23 27 -23 76v8q0 24 37 38l24 9l16 -11l25 -8l1 -40l-20 -18l-1 -8
q4 -6 7 -12l16 -3l6 -14l3 -2h21l10 -11l16 -1l23 -8l16 2q16 6 30 6l6 -1l3 5h9h2q0 -1 1 -1q2 1 2 3v3q-1 1 -1 2l22 9l13 11l5 12l17 13l1 5l2 20q0 3 -6 10l-11 12l-29 17l-22 2l-16 14l-42 4q-4 2 -33 7q-19 4 -29 13q-5 6 -17 14q-45 3 -45 31q0 1 1 3v3
q0 8 -12.5 31.5t-12.5 46.5q0 5 2 21q32 21 32 29q0 9 -18 37q-7 23 -7 35q0 9 10 39l10 3q1 7 2 23l27 15q13 15 25 25l21 5q10 11 34 11h8q7 5 20 5q11 0 22 -4l18 5l32 -7l12 -8l33 -5l9 -19l27 -16v-16l10 -12q14 -17 14 -41l-6 -14q-23 -53 -58 -53q-24 0 -40 33v22
l10 16l-6 14l8 19q-18 5 -28 13l-9 3l-8 -2h-4l-11 -7q-26 0 -44 7q-20 -9 -35 -29q-21 -4 -21 -27v-4q-13 -4 -13 -6v1l1 -8l6 -8l13 -19h4q19 0 32 -12l16 -2q15 -12 29 -12h4l64 -14l31 -20l24 -3l12 -14l18 -10l17 -27l2 -29q5 -13 5 -23zM335 232q0 13 -23 34l-29 11
l-18 6l-10 -2l-33 14q-29 1 -56 14.5t-31 13.5q-9 -28 -9 -33q0 -27 47 -53q1 -1 4 -1q2 0 5 1t4 1l20 -3t41 -4l8 -6l23 -3l6 -6h3q20 0 32 -14h2l5 -2q9 14 9 32z" />
    <glyph glyph-name="bullet" unicode="&#x2022;" horiz-adv-x="283" 
d="M243 321q0 -43 -29.5 -73t-72.5 -30t-73 30t-30 73t30 72.5t73 29.5t72.5 -29.5t29.5 -72.5z" />
    <glyph glyph-name="paragraph" unicode="&#xb6;" horiz-adv-x="471" 
d="M419 483q0 -3 -2 -11l-8 -1l2 -4q-7 -15 -20 -15h-5l-7 -4l4 -23l-10 -40l7 -37l-11 -21l2 -49l-9 -27l8 -4q-11 -36 -11 -47q0 -5 3 -16l-6 -25l7 -25l-11 -28l-2 -53l-7 -14l2 -76l-12 -36l4 -61q-3 -33 -23 -56l-14 31l4 43l-6 8l5 31l-1 19l4 14l-5 20l7 20l2 45
l-4 25l5 24q-4 31 -4 49q0 17 8 46l-3 14l7 13l-5 33l7 19l-3 21l4 13l1 18q3 54 3 46q0 30 -2 46l-3 24l3 18v7l4 1l-10 5l-27 -7q-3 8 -8 8q-2 0 -8 -2v-3l5 -5l-1 -16l2 -18l-6 -15l3 -20v-22l5 -7l-11 -31l3 -32q-7 -6 -7 -15q0 -6 5 -16v-53l-8 -28l2 -35
q-3 -10 -3 -21q0 -12 5 -27q-7 -1 -7 -9l1 -13v-26q0 -25 -1 -41l-15 -59l9 -18l-5 -18v-23l-26 -10l-5 18l-10 15l5 14l-4 16l8 24q1 3 1 9q0 9 -5 21l7 40l-5 10l5 31q1 2 1 6q0 6 -6 12l2 91q2 12 2 21v8q-1 5 -1 8q5 20 5 33h-7l-3 -7l-22 -11q-7 -3 -14 -5q-3 0 -7 -1
l-18 -6h-5q-15 0 -21 9q-6 0 -9 -4q-43 4 -55 28q-3 5 -3 11q0 2 2 8l1 7l-3 12l4 15l-8 8q4 16 12 28l3 14l10 12l-1 6l5 12l11 11l9 19l9 3l14 27l11 7l16 17l16 3q10 18 34 19l21 10q9 -3 16 -3q4 0 22 4q11 -3 14 -3h2l11 3l19 -3q2 -2 4 -2q4 0 9 5l20 -2l8 -5l12 5
q6 -6 11 -6q4 0 10 3l8 -2l12 3q14 -9 14 -24z" />
    <glyph glyph-name="germandbls" unicode="&#xdf;" horiz-adv-x="612" 
d="M562 142l-8 -12l2 -18l-13 -18l-8 -23l-15 -7l-5 -10l-13 -4l-21 -22l-4 1l-10 -16l-13 3l-11 -6l-13 2q-11 -5 -25 -6l-6 -2l-3 -11l-37 -2l-11 -5l-28 -4l-13 -6l-17 4l-10 -2l-14 2q-7 -3 -11 -3q-21 1 -34 22l2 17l3 6q12 32 38 32q9 3 18 3q14 0 27 -6l6 -4h14l29 6
h6q17 0 25 7q10 11 29 13l8 2l7 5l23 10h7q4 8 8 12q1 17 14 31l-5 29l7 18v7l-18 31l-3 14l-14 15l-3 6l-3 -1l-12 22l-15 13v8q-7 9 -21 25l-15 5l-6 8l-18 16q-4 2 -22 4l-11 8l-9 2l-7 7h-11l-8 6l-21 5q-12 -4 -19 -4q-8 0 -20 5l-14 8l-6 1q-1 -3 -6 -13l-2 -2l8 -6
l-5 -23l-8 -21l4 -21q-3 -12 -3 -20v-8q0 -2 1 -4v-3q0 -7 -3 -13l-1 -7l2 -29l-3 -12l4 -11l-5 -12l1 -11l3 -21l-3 -34l3 -7l-3 -27l10 -20l-2 -21l3 -8q0 -15 -9 -26l-2 3l-3 -16l-10 -14q-34 3 -48 22.5t-14 63.5q0 5 1 15v17v31h4q-1 3 -4 9l10 7q0 11 -5 12q-1 3 -1 8
q0 14 6 23l2 2v9l-6 22l10 23l-1 4l-8 23l6 10l-10 25l12 20l-1 25l3 20v15l-4 -6l-10 2l-11 -13l-27 -2q-24 -21 -49 -24l-8 -9l-49 -9l-23 5h-5q-4 -1 -5 -1q-27 0 -33 32q7 18 24 27l3 6h3q9 0 24 13t31 13h5q4 -1 6 -1q17 9 39 18l9 -7l-1 5q4 1 10 6l23 5l35 5
q3 0 7 -1t5 -1q3 0 4 4l1 24l11 81l-4 13q6 29 8 64l4 15v12l5 23q0 23 9 35l5 25l11 9l3 20l8 20l13 8q5 5 32 26l3 10q11 8 19 8q11 0 56 -20l13 -24q0 -1 20 -29q14 -19 16 -35l-3 -15l-10 -21l9 -18l-8 -7l2 -3v-4q0 -4 -14 -37l-3 -7q-1 -3 -3 -8v-18l-6 -2
q-4 -20 -28 -32q-1 -1 -4 -7.5t-5 -11.5l-6 -7l-2 -10l-12 -15l-7 -19l-13 -7l-10 -7l-16 -13l-10 -17l-12 -3l-1 -3l1 -3l6 -3l7 5l27 -1l20 -6l9 -5l17 -1l4 -4h13l7 -7h10q17 0 37 -15h25l8 -19l20 -9l9 -12l20 -8l5 -11l16 -16l22 -17l7 -22q10 -7 17 -16q3 -5 7 -13
l12 -7v-19q0 -3 7 -13t10 -18l7 -19v-25l-1 -7zM288 710v7q-1 5 -1 7q0 3 1 7v6q-5 7 -9 16l-10 4l-7 -18l-8 -9v-12l-11 -12v-12l-10 -7l-6 -19l-3 -6l3 -5l-8 -19l-3.5 -13.5t-3.5 -14.5q-6 -51 -6 -43v-27l-1 -15q30 10 39 37q15 8 17 41l14 23l1 16l10 13l-5 10l6 16
l-4 17z" />
    <glyph glyph-name="registered" unicode="&#xae;" horiz-adv-x="271" 
d="M253 605q0 -46 -32.5 -78t-79.5 -32q-43 0 -75.5 33t-32.5 79q0 42 32.5 75t77.5 33t77.5 -32.5t32.5 -77.5zM237 605q0 39 -27.5 66t-66.5 27t-66 -27.5t-27 -65.5t27.5 -65.5t65.5 -27.5t66 27t28 66zM193 546h-28l-23 48h-17v-48h-26v118h43q50 0 50 -34
q0 -25 -25 -32zM166 628q0 18 -25 18h-16v-34h17q24 0 24 16z" />
    <glyph glyph-name="copyright" unicode="&#xa9;" horiz-adv-x="271" 
d="M253 605q0 -46 -32.5 -78t-79.5 -32q-43 0 -75.5 33t-32.5 79q0 42 32.5 75t77.5 33t77.5 -32.5t32.5 -77.5zM237 605q0 39 -27.5 66t-66.5 27t-66 -27.5t-27 -65.5t27.5 -65.5t65.5 -27.5t66 27t28 66zM195 586q0 -48 -53 -48q-55 0 -55 68q0 29 16 47t42 18
q47 0 49 -42h-27q-2 22 -23 22q-28 0 -28 -45q0 -44 28 -44q22 0 24 24h27z" />
    <glyph glyph-name="trademark" unicode="&#x2122;" horiz-adv-x="292" 
d="M269 587h-28v89l-33 -89h-13l-34 89v-89h-28v119h41l28 -72l26 72h41v-119zM109 682h-36v-95h-29v95h-37v24h102v-24z" />
    <glyph glyph-name="acute" unicode="&#xb4;" horiz-adv-x="500" 
d="M401 648l-5 -12l-5 -24h-4q-23 0 -33 -21l-9 6l-33 -27h-3l-8 -9l2 -6l-18 -6v-6l-15 -5l-6 -8l-4 -12l-5 -2v-6l-18 -6l-26 -22l-37 24l14 27l5 17l23 10l14 21l7 1l5 7v10l13 13l11 -7q12 14 16 22q18 10 19 15q3 13 19 20l15 14l21 2l9 -2q33 -7 36 -28z" />
    <glyph glyph-name="dieresis" unicode="&#xa8;" horiz-adv-x="500" 
d="M389 559l-13 -28l-7 -2l-1 -4l-8 -4q-5 -7 -8 -7h-2l-14 -7l-4 4l-18 -6q-4 9 -20.5 18t-18.5 20l-4 22l6 6l-2 5l12 12v2l6 6l10 6q5 8 17 8q7 0 12 -2l5 -3h18l12 -14l13 -6v-7l7 -4l-3 -11zM231 560l-6 -4l3 -11l-6 -3v-7l-14 -6l-12 -14l-17 -1l-9 -2l2 1
q-9 -3 -15 -3q-10 0 -15 9q-2 0 -7 5l-7 4q2 2 2 3v2h-4l-4 2l-6 8l3 6l-8 11l5 16q8 17 24 24l4 4q4 4 13 11l16 -6l8 3l6 -6q9 0 16 -10l14 -7z" />
    <glyph glyph-name="notequal.old" horiz-adv-x="549" 
d="M501 139h-279l-117 -117l-39 40l77 77h-95v58h148l79 78h-227v58h279l117 117l40 -40l-78 -77h95v-58h-147l-79 -78h226v-58z" />
    <glyph glyph-name="AE" unicode="&#xc6;" horiz-adv-x="1106" 
d="M1083 169q0 -18 -19 -28q-7 -15 -28 -19l-4 1q-24 -12 -61 -27l-9 -8h-15l-9 -8l-17 -1l-18 -9q-5 0 -9 -2l-2 4l-6 -10q1 0 -7 1q-2 0 -2 -1l1 -1q-12 -10 -23 -11l-14 -1q-8 -3 -14 -5l-8 -8l-18 1l-4 -4h-24q-12 -3 -28 -14l-26 3l-15 -2l-21 4l-14 5l-50 23l-30 38
l-14 33l-10 52v44q0 5 -3 5l-14 -4l-41 1l-29 -8l-23 -3l-11 3l-17 -7l-14 3l-21 -7l-2 2l-3 -1l-24 3l-12 -7l-15 5q-6 -1 -18 -1l-12 -5l-11 -3l-22 -14l-23 -16l-18 -9l-40 -26l-22 -17l-52 -28l-16 -15l-37 -23l-31 -28l-15 -6l-4 -7q-10 -6 -19 -6q-26 0 -27 42l18 13
l8 8l16 19q8 9 17 14q1 8 10 12q13 7 16 10l9 12l15 6l5 6l8 1l8 11q15 5 30 12l12 13l16 5q5 14 17 16l4 1l5 1l13 14l14 5q16 13 23 16q10 9 19 18h-1q-1 -1 -8 -6l22 6l21 23l20 4l14 15h6l5 10l43 23q6 6 26 20l17 14l16 6q15 11 21 12h3q24 24 44 24q23 28 34 32l7 6
l15 9l8 12l13 4l16 12l9 6l2 11l16 21h12q27 22 39 22h7q10 0 20 -17l11 -3l44 4h18l25 7l14 -4l27 2l14 -5q8 3 18 4l22 2l7 4l52 -6q22 -3 28 -11l24 2l8 -10q20 -9 20 -30v-4l-40 -19q-12 9 -16 11l-16 -5l-14 4l-20 -7l-23 3l-7 -4l-24 -1l-18 -6l-51 -2l-24 2h-12
l-9 -5l-25 -4l-9 4l-16 -4l-9 4q-5 -5 -5 -8q0 -1 1 -2.5t1 -3.5v-1l-7 -30l-6 -13l-4 -18l-5 -8l-7 -31l-8 -26l-1 -7h11l21 -3h13l24 6l12 -3l9 4l19 -4q2 0 12 6q16 -4 21 -4q7 0 19.5 4.5t41.5 4.5l-1 1q0 4 20 2l13 -1q8 3 14 3h5l3 3l28 -6l11 4l23 4l27 -3
q39 0 40 -30q-16 -31 -41 -31q-2 0 -3 3q-6 -2 -9 -2q-2 0 -4 1h-3h-11l-8 -7l-21 1l-19 -8l-16 6l-14 -3q-10 -8 -18 -10l-38 1q-6 -2 -16 -2l-3 1l-24 -2l-16 1l-19 -7l-13 2l-4 -1h-15q-6 -5 -19 -5l-14 3q-6 -2 -11 -3l-25 1l-16 -3l-1 -5q-1 -5 -1 -19q0 -41 16 -77h-2
l17 -14l15 -2l16 -11h15l17 5h33l37 8l18 6l10 2q15 12 30 12h3q9 5 21 6l35 16l21 3l14 7l9 2q11 8 24 12q9 9 28 11q17 15 35 15q30 0 30 -31zM608 410l-21 -7l-10 -19q-6 -8 -18 -13l-16 -12l-12 -12l-8 -3l-2 -2q-12 -10 -21 -10l-8 -11l-18 -11l-19 -11l-20 -17l-11 -4
h23l37 7l43 2l28 3l22 2l1 2q1 5 1 19l6 8l7 31q9 40 9 38z" />
    <glyph glyph-name="Oslash" unicode="&#xd8;" horiz-adv-x="720" 
d="M678 282l-8 -16v-24l-20 -48l-13 -44l-18 -18l-16 -27q-22 -17 -40.5 -41.5t-24.5 -26.5l-32 -23l-36 -28q-22 -14 -32 -14h-5l-10 -9l-26 -8q-8 0 -11 2q-8 -5 -27 -10l-2 -6l-39 -3l-10 4l-4 -4q-1 0 -4 -1h-3.5h-4.5q-3 1 -5 1q1 0 2 -1q0 -1 -14 -4l-15 7h-17l-14 6
l-6 -1l-13 -12l-16 -34l-5 -23l-23 -41l-27 -55l-36 -59q-37 0 -41 30l16 33v23l22 19l6 24l4 2l3 23l22 28v16l10 15l3 16l7 1l3 15l-3 2l-3 3l-15 12l-26 18l-31 29l-9 17l-9 23l-3 19l-8 33v43l-2 14l9 32l-1 6l14 14l2 26l-7 25l12 8q1 14 5 30l16 18q2 11 9 15l-9 15
l14 14l6 21h21q-6 8 -6 22l15 10v18l22 3l5 12q11 13 39 22q6 23 32 25q15 1 22.5 5t13.5 17l76 17q6 -2 9 -2q8 0 15 6l20 -6l28 7l19 -4q9 20 23 43q0 10 8 20l2 11l12 7l2 4l4 9l-3 21l17 8l2 3v2q0 41 27 41h6l32 -7l36 -30l-10 -22v-18l-16 -8l-1 -2q-8 -22 -21 -30v-3
q0 -19 -14 -33l-3 -12l-7 -3l-4 -6q-4 -4 -14 -19h10l21 -13l24 -29l28 -23l12 -27q36 -36 43 -77l1 -37l8 -18l-1 -13zM613 312l-14 43l-1 9l-4 2l-16 34l-36 45l-38 27h-6l-11 -22l-26 -43l-12 -16l-11 -26l-24 -41l-3 -2l-10 -23l-20 -43l-12 -12l-6 -35l-13 -11l-10 -23
l-8 -5q-2 -4 -8 -12l7 -9l-15 -12v-10l-20 -29l-9 -20l-12 -7l-6 -18l-18 -29l-4 -14h3l17 4q12 -4 22 -4q4 0 10 2q20 2 28 2h4q2 -1 3 -1q3 0 21 12q18 4 28 4h6l2 1q15 5 30 12l2 -2l-1 9l9 3l6 10l22 7l7 6q13 1 16 16l9 4q13 16 30 26l13 28l13 -4q3 3 3 8q3 17 16 26
v6l8 3q0 20 13 30v15l11 28zM412 482q-11 0 -19 3l-4 -1h-8l-9 -8q-6 0 -9 7l-16 -13l-3 1l-22 -24l-30 -15l-14 -5l-10 3l-18 -17v6l-6 -3l-3 -11l-17 -11l-7 -22l-25 -14l-17 -37l-13 -19l-7 -12l-14 -49l-7 -21l2 -27l-9 -15l-2 -16l-4 -4l5 -63l2 -2l7 -27l12 -6
q5 -18 12 -23.5t26 -8.5l5 -3l4 27l14 12l3 18l12 20v13l24 26l4 20l14 17l3 17l1 -5q0 22 12 40l5 1l1 21l12 2q1 12 12.5 25t11.5 22q0 1 -2 9l20 15l8 33l28 44l5 37l19 8l7 30z" />
    <glyph glyph-name="infinity" unicode="&#x221e;" horiz-adv-x="713" 
d="M659 300q0 -75 -34 -127q-40 -59 -111 -59q-93 0 -148 124q-65 -124 -157 -124q-71 0 -115 58q-41 53 -41 126q0 75 35 127q39 59 111 59q91 0 148 -124q63 124 157 124q71 0 115 -58q40 -53 40 -126zM635 303q0 54 -29 88.5t-81 34.5q-77 0 -149 -162q46 -86 142 -86
q53 0 85 36t32 89zM336 334q-47 86 -141 86q-53 0 -85 -35.5t-32 -89.5q0 -51 28 -87t78 -36q51 0 95 59q23 32 57 103z" />
    <glyph glyph-name="plusminus" unicode="&#xb1;" horiz-adv-x="833" 
d="M709 348h-258v-166h-69v166h-258v68h258v166h69v-166h258v-68zM709 14h-585v69h585v-69z" />
    <glyph glyph-name="lessequal" unicode="&#x2264;" horiz-adv-x="549" 
d="M503 127l-456 143v61l456 143v-64l-351 -110l351 -109v-64zM503 0h-457v62h457v-62z" />
    <glyph glyph-name="greaterequal" unicode="&#x2265;" horiz-adv-x="549" 
d="M503 270l-457 -143v64l351 109l-351 110v64l457 -143v-61zM503 0h-457v62h457v-62z" />
    <glyph glyph-name="yen" unicode="&#xa5;" horiz-adv-x="559" 
d="M571 493l-11 -40l-5 -2l-4 -14l-27 -7q-7 -10 -23 -21l1 -5l-16 -12l-11 -14l-19 -8l-5 -8l-11 -15l-9 -5l-9 -22l-19 -2l-7 -9l-18 -10l-4 -5q-34 -19 -43 -45l-16 -4l-4 -3l-5 -5v-3l16 3l6 -3l18 3l13 -6l6 8l12 -3l12 -2l17 9l16 -4l12 6l15 -15l7 -21l-15 -19h-22
l-24 -10l-18 7l-30 -11q-32 1 -40 15q-1 -9 -4 -13l-7 -12l1 -18l2 1q4 -6 5 -8l11 2l16 -5h23l15 9l12 -6q5 1 11 1t8 -1l23 5l7 -7q-9 0 24 3l21 -17v-5q0 -23 -41 -31l-34 4l-22 -8l-45 4l-8 -6h-22l-3 -21l7 -15l-6 -13l1 -5l7 -16l-7 -17l-2 -9l3 -12l-4 -23l-7 -23
l-2 -15l6 -25q-9 -23 -10 -39l4 -21l-4 -9l1 -7q2 -14 2 -47v-13l-6 -4l2 -17l-3 -19v-10q0 -25 -30 -25q-27 0 -27 37l5 9l-4 14l2 21l-11 16l2 21l5 5l-1 6l3 8l-4 5l4 18l-6 21l8 20l-6 23l9 37q-3 4 -3 12v3l1 5l-6 8l3 28l-7 21l6 6v19l-6 20l6 5l1 10l-2 14
q-2 -4 -19 -11l-10 3l-18 -9l-13 2l-14 -10l-25 8l-50 -8l-13 11l-28 16l8 27l15 6l19 11l29 -4l21 4q28 -2 26 -2q9 0 14 1h9l9 5l12 -3l11 5l11 -5l5 20l-4 23l-29 -5l-4 2l-4 -5l-23 4l-36 -14h-51q-6 6 -8 12q-21 8 -21 26q0 27 38 27q12 0 19 -1q8 2 14 8q10 -7 22 -7
h4l3 1q3 1 12 1h7q8 2 15 2q6 0 9 -1q2 1 7 1q6 0 9 -1l6 1l-1 2l-4 4l-5 11l-12 7l-3 7l-17 10v4l-2 1l-5 18l-3 6l-11 9l-4 12l-22 18l2 7l-10 9l-10 11q-7 5 -8 13l-25 3v11l-7 4v5h-8l-11 38l-16 10q0 38 26 39l7 -1l12 9l16 -10q23 -3 46 -20q0 -18 17 -28l9 -18l8 -7
l24 -40l15 -21l4 -7q14 -18 21.5 -32.5t20.5 -27.5l19 15l7 4q2 11 17 16l2 15h19q6 9 17 16q6 7 18 17l8 15l13 5q12 14 23 23q9 3 9 17l22 7q9 6 16 17h1q5 0 12 9l4 -2q-1 2 -1 6q0 8 4 15l6 16q25 20 46 20q23 0 35 -19z" />
    <glyph glyph-name="mu" unicode="&#xb5;" horiz-adv-x="660" 
d="M141 -115l-2 -10q2 -8 3 -14t2 -11l11 -11v-8l4 -3q5 -18 5 -24q0 -40 -43 -40q-20 0 -31 17q-9 12 -17 53v14q3 4 3 10q0 3 -1 5l-14 21l3 24v20l-3 13v15q-6 7 -6 21q4 10 6 18v20l4 9l2 4l-7 60l7 33l14 12l-11 8l5 16l-4 21q5 8 5 14q0 7 -6 13l11 8v12l-4 33l11 64
q0 15 -9 47q3 32 42 35l8 -3l14 -2l23 -20l-6 -26l-2 -43l3 -33l-6 -12l-2 -8l1 -16v-10l-2 -3q1 -2 1 -9q0 -3 -1 -4l3 -9l3 -7l3 -28l8 -14q-1 -3 -1 -8l9 -5l5.5 -13.5t9.5 -17t14 -15t18 -7.5q9 -1 18.5 3.5t14.5 9.5l23 7l10 13l10 10l7 18l3 2q7 2 14 10l13 15l6 38
l13 7l22 27l-6 1l7 7v9l6 2l3.5 14t8.5 10l15 34l5 18l2 4h4l7 5l-6 2q11 19 17 38l29 1l23 -19l10 -16l-11 -43l-15 -20l8 -39l-10 -6v-15l-6 -11l3 -18l-8 -7l4 -32l2 -45h5v-26l14 -17l13 -7l1 -5l8 -2t9 -3l25 -2l15 4l27 13q7 4 20 4q30 0 30 -26q0 -13 -18 -29l-8 -3
l-7 -9l-18 -5q-4 -7 -10 -7q-1 0 -2 1h-3q-24 -11 -53 -11h-8l-25 5l-17 8l-38 32l-8 27l-16 13q3 4 3 13q0 6 -8 20l3 24v4q0 6 3.5 13.5t-0.5 17.5l6 30l-8 -3l-15 -31l-19 -41q-4 -2 -8 -11.5t-9 -9.5l-8 -21l-9 -15q-7 -8 -14 -10l-3 -2l-7 -18l-10 -10l-10 -13l-23 -7
l-26 -12l-14 3q-10 0 -20.5 0.5t-14.5 9.5l-14 11q0 2 -6 7t-5 7l-18 8l-3 14l-9 13l-5 -2l-2 -33l-1 -43l4 -26l-2 -3l-3 -11l2 -12v-13l4 -12l-4 -21z" />
    <glyph glyph-name="partialdiff.old" horiz-adv-x="494" 
d="M436 367q0 -130 -47 -238q-61 -142 -175 -142q-74 0 -116 59q-36 51 -36 129q0 79 49 140q52 65 129 65q87 0 118 -93q12 45 12 148q0 167 -63 167q-17 0 -50 -35t-56 -35q-37 0 -37 32q0 34 36 54q30 17 66 17q93 0 137 -93q33 -71 33 -175zM341 224q0 125 -85 125
q-65 0 -97 -84q-23 -60 -23 -137q0 -119 84 -119q63 0 96 81q25 61 25 134z" />
    <glyph glyph-name="summation.old" horiz-adv-x="713" 
d="M661 20l-53 -236h-572l398 436l-384 524h550l33 -230h-34q-33 108 -92.5 153t-171.5 45h-142l325 -446l-359 -394h212q109 0 158 25q61 30 97 123h35z" />
    <glyph glyph-name="product" unicode="&#x220f;" horiz-adv-x="823" 
d="M797 -216h-264v32h84v896h-407v-896h84v-32h-264v32h88v896h-88v32h767v-32h-88v-896h88v-32z" />
    <glyph glyph-name="pi" unicode="&#x3c0;" horiz-adv-x="597" 
d="M124 152l8 48l-4 8l10 15l-2 12l4 11l-6 8l5 20l-15 3q11 8 15.5 13.5t4.5 12.5l6 3q-7 10 -7.5 17t-0.5 13q0 2 2 6l-13 5q-3 -1 -11 -1q-9 0 -13 4l-16 -17l-15 -4q-8 -5 -15.5 -9t-12.5 -6l-23 11l-10 17l1 21l7 13l13 10l6 10l15 13l11 3l6 5h16l2 1l3 -5q1 1 3 2
t6 5l6 -7l38 -3l6 -7h34l40 4l45 2l10 -5l51 4l48 -8q10 2 12 2q6 0 12 -3l14 8l21 -8l15 4l20 -3h8q4 4 15 7q7 9 13 11l4 8l2 2v7l15 23l28 -3q18 -24 18 -42q0 -13 -6 -19l-20 -25l-6 -16l-17 -5l-5 -9l-26 1h-20l-8 1l1 -31l4 -7l1 -13l3 -22q4 -33 -1 -46l9 -9l-3 -25
l5 -6l-6 -15v-7l-3 -9l7 -18l2 -25l-2 -16q1 -1 1 -5q0 3 -3 -12q0 -1 3 -2v-4q1 -5 0 -9.5t-3 -9.5l4 -11q3 -6 1 -8l-1 -2q-2 -8 -2 -12l3.5 -14t4.5 -12q-9 -2 -19 -3t-12 -1q-5 -1 -11 1h-2q-22 6 -26 40q1 2 0 5t-2 7q0 7 -3.5 19.5t-4.5 17.5q0 5 0.5 8.5t0.5 6.5
l-2 35q-8 10 -8 15q0 1 0.5 2.5t-0.5 4.5q-4 5 -4 10v6t2 5q0 4 1 9t3 12q-2 10 -4 15q6 0 5 6q0 2 -1.5 5t-3.5 8l4 -3l-5 8q-1 8 -1 15t2 13l-5 24l-7 17l1 19l-1 24l-14 -2l-7 8l-23 -8l-30 -2h-27l-53 4l-12 -1l-2 -1l5 -18l-10 -34l-3 -13l-7 -30l5 -5l-8 -34l-1 -10
l-18 -19l-4 -55l-3 -11l4 -8l-20 -21l-6 -30l-25 -33l-43 -30l-22 7q-19 5 -22 12t-3 17q5 9 10.5 14t16.5 7l10 8l5 18l15 27v20z" />
    <glyph glyph-name="integral.old" horiz-adv-x="274" 
d="M364 690q0 -48 -49 -48q-26 0 -43.5 37t-29.5 37q-38 0 -48 -109q-5 -54 -9 -219q-4 -168 -11 -253q-12 -136 -39 -199q-50 -117 -144 -117q-33 0 -57 17.5t-24 49.5q0 47 49 47q26 0 44 -36.5t30 -36.5q36 0 47 109q6 58 9 220q4 169 11 250q11 135 39 201
q49 117 144 117q33 0 57 -17.5t24 -49.5z" />
    <glyph glyph-name="ordfeminine" unicode="&#xaa;" horiz-adv-x="285" 
d="M278 468l-10 -10l-2 -11v-4q-2 -14 -5 -16q2 -4 2 -6t-2 -8l1 -2l-2 -5q-1 -2 -3 -9l1 -8l5 -8l-6 -6v-9l-5 -8l4 -10l-7 -8q2 -11 2 -19q0 2 -1 11l6 -1l-9 -15l3 -6l5 -4l-3 -12l15 -4l-4 -8l7 1q-3 -16 -9 -29l-9 -2l-5 2l-4 -4l-7 -2l-30 12l-7 7l-4 12l-4 4l-1 24
l5 27l7 31l-2 7l-7 -6l-14 -29l-15 -12l-5 -7l-11 -18l-3 -8l-21 -13l-8 -8l-13 -8l-17 -5l-6 -5l-9 9l-24 -5l-17 8q-8 17 -11 33l3 1l-1 4l-4 10l5 12l1 11l4 17v3q-1 1 -1 2q0 9 5 21l4 7l-4 7v4q0 11 8 16q1 2 7 11l-3 5l5 6q0 13 9 23l-2 13l3 1l2 7l4 11q7 11 10 24
q8 1 13 6l7 10l14 -4l18 10l57 -2v-5l8 -2q8 0 15 -4l9 -10l9 -9l7 8l23 4l8 -13l13 -9l-1 -13zM288 174l-26 -30l-15 9l-36 -8l-34 5q-10 -2 -15 -2q-7 0 -15 3l-8 1l-25 -2l-41 -7q-10 5 -20 5q-4 0 -12 -2l-20 11l-10 12v36l12 1l5 4l7 -10l8 6l8 -6l15 8l17 -5l13 2
l1 -8l9 3l4 9l16 -6l12 9l14 -2q8 4 12 4l10 -1l13 -7l19 -2l15 5q10 -5 25 -5q11 0 16 2q25 -3 25 -22q0 -7 1 -10zM199 459l-4 2l-16 7l-8 8l-4 2l-11 -4l-6 5h-4l-10 -4v-7q-8 -3 -14 -10l-13 -16l2 -13l-7 -10l1 -2q-8 -7 -8 -17v-4l-4 -4v-10l-4 -4l-2 -3v-11l-3 -2
l-1 -7l-5 -7q-3 -6 -3 -9q1 -2 3 -2l3 -8l4 -4l9 1l26 16l15 14l3 5v8l7 6l38 51l2 11l3 1l4 6l2 11z" />
    <glyph glyph-name="ordmasculine" unicode="&#xba;" horiz-adv-x="265" 
d="M257 420l-4 -10l2 -3l-5 -25l-3 -5q-1 -7 -6 -20l-6 -7l-6 -16l-4 -2l-2 -5l-8 -5l-4 -9l-6 -3l-1 -8l-13 -4q-10 -13 -22 -16q-9 -12 -22 -12q-10 -4 -15 -4h-3q-1 -1 -13 -9l-19 9l-18 -3h-22q-2 0 -5 2l-12 10l-16 15l4 11l-9 21l4 8l-4 14l4 9v5q-1 4 -1 5q0 13 7 20
q0 3 8 24l3 5v4l5 12l-2 4l-2 -2q0 1 8 23l12 22l3 9q4 0 6 -1l5 4l2 2v7l14 16l3 1l5 4l9 5l-1 3q10 10 22 10q9 0 13 -2l2 -1l18 4l16 -11h3l10 -4h9q12 -15 21 -24l3 -2l14 -18l12 -30v-5zM254 174l-27 -30l-15 9l-9 -2l-11 -6l-17 5q-10 -2 -15 -2q-8 0 -16 3l-7 1
l-26 -2l-32 -7q-12 5 -20 5q-4 0 -12 -2l-21 11l-10 12v36l13 1l5 4l7 -10l7 6l9 -6l14 8l18 -5l13 2l1 -8l8 3l4 9l16 -6l13 9l14 -2q5 3 9 3h4l14 -7l10 -2l16 5q4 -4 10 -4q4 0 7 1q23 -3 24 -22zM197 406l-3 3q-4 4 -4 10q0 3 1 5l-4 6v9q-5 2 -9 10q-4 4 -5 9l-9 13
l-3 4l-6 1l-11 -18l-17 -6l-5 -2l-2 -8l-5 -3l-4 -14l-5 -3q1 -6 2 -16l-10 -6q0 -6 -6 -14v-3l-7 -8l-1 -4v-9l-4 -12v-21l-2 -9v-3l3 -4l2 -2l5 2h10l2 5h25v4l6 2l3 3l3 2l3 10h13l9 7l8 10l7 2l1 4l-7 14l18 6l2 2q-1 2 -1 5q0 6 5 13z" />
    <glyph glyph-name="Omega" unicode="&#x2126;" horiz-adv-x="670" 
d="M447 157l14 15l-5 20l13 3l14 45l21 18l17 33v3l4 14l-3 9q3 6 6 9t4.5 5t0.5 4.5t-5 7.5l6 8l-7 12l-5 15l-5 16l-12 6q-2 5 -4.5 8t-4.5 6l-8 3q-6 5 -6 8.5t-3 5.5l-2 2l-1 1t-18 6q-7 2 -6 5.5t-2 5.5l-3 4h-2q-6 3 -11.5 5t-12.5 4v3l-4 -6l-7 3l-9 -2l-16 8h-7
q-10 7 -18 0l-7 3q-9 -1 -16.5 0l-15.5 2l-23 -7l-4 8q-5 0 -7 -2q-12 -8 -23 -5l-4 -4l-7 3q-9 -9 -24 -9l-8 -8l-22 -8l-36 -19l-15 -30l-5 -5l2 -3l-11 -25l-6 -40l15 -53l4 -3l7 -14l1 -22l16 -21l13 -15q1 -2 8 -7.5l15 -11.5l14.5 -11t7.5 -6l2 -1l3 -21l10 -3
q2 -2 -2 -8l25 -25l8 -13v-19l6 -57q-8 -2 -24 -3t-27 1l-11 -3l-19 6l-21 -5l-3 2l-15 -8l-12 7v-5h-24l-18 -10l-21 -3l-27 -13l-18 25q-12 16 -12 40l11 12q4 17 22 21.5l37 9.5h8q1 -1 3 -1h1l7 -1l-3 -3l21 6l3 -2q2 1 9 1t19 -5h25q-5 12 -10.5 20t-10.5 8l-33 41
l-2 5q-2 1 -6.5 5t-9.5 8t-10 7.5t-8 3.5l-8 14l-1 12l-9 12q-4 2 -5.5 1t-1.5 -1.5v-0.5l-1 4l-5 6v7l-2 5q0 2 -3.5 4.5t-5.5 9.5l-7 6l-5 18l-6 48l-3 28l9 21q0 38 20 64l24 20l5 14l9 7l5 9l15 4l15 13l42 15l36 16h22l27 7q24 -3 51 0q27 5 31 1l35 -5l40 -4
q23 -5 28 -10l4 -2l11 -1l22 -10q3 -3 5 -7h10t12 -5l6 2l26 -19l3 -8h6l2 -1l6 -5q0 -1 1 -1.5t1 -1.5v2q0 2 11 -6l5 -15l10 -9l6 -11l4 -3l9 -10l-3 -3l7 -10l-6 -14l10 -9l1 -2v-4l-8 -15l5 -23l-13 -32l-8 -16l4 -16l-15 -11l-5 -23l-13 -23l-7 -8l-14 1v-18l-12 -11
l-19 -19l-15 -12l-6 -32q-6 -1 -12.5 -12.5t-12.5 -27.5l17 3l4 -2l15 7l12 -8l-1 5l24 -2l19 8l21 1l27 11l18 -27q11 -16 13 -41l-11 -11q-2 -8 -8 -12.5t-14.5 -6.5t-18.5 -3t-19 -3h-8q-4 2 -3 2h-1l-7 1l3 3l-21 -4l-4 2q-1 -1 -3.5 -0.5t-5.5 0.5q-8 1 -18 7l-40 3
l-26 3q-11 -3 -26 -3.5t-23 1.5l6 57l1 20l7 13l15 28q-3 5 -2 7l10 4l15 18l10 5h-1z" />
    <glyph glyph-name="ae" unicode="&#xe6;" horiz-adv-x="839" 
d="M843 197l-1 -7q-2 -12 -15 -40l-4 -1q-5 -6 -8 -17l-14 -22l-20 -26l-19 -14l-10 -17l-17 -13q-11 -14 -28 -19l-13 -4l-11 -7l-15 -4l-15 -8l-19 -6l-11 -6l-4 -2l-3 -1q-3 -1 -13 -1q-11 0 -28 4q-10 1 -21 5l3 4l-17 -4l-29 11l-5 4q-5 1 -35 9l-9 10l-7 4
q-18 5 -24 21l-6 3q-18 -18 -42 -31l9 -2l-17 -9l-14 2q-23 -10 -42 -15l3 1q-10 -3 -32 -7q-3 4 -3 12l-23 -15h-11q-15 0 -32 -3l-34 5l-4 2l-23 -1l-13 9l-9 -1q-19 7 -27 19q-24 14 -56 50l-8 44l-1 32l9 29l4 16l8 20l15 14q5 8 17 13q11 13 24 20l20 7l9 1q17 8 31 12
l4 1q24 6 52 6q24 0 65 -11l7 -6q22 -9 33 -17l22 -22l10 -4l2 26l-12 20l10 10l-3 27h4l1 13l-5 16l2 13l-9 18v8l-4 2l-11 27l-18 9q-4 7 -12 19l-5 -2l-2 -5q-7 -1 -15 -1l-10 1l-25 -13l-6 3l-5 -5q-1 -1 -6 -5.5t-8 -7.5l-25 -3l-8 -11l-9 -1q-11 -10 -25 -16
q-1 -6 -13 -15q-16 -12 -24 -21l-6 -2l-3 -15l-18 -18l2 -11q-22 -37 -44 -37q-16 7 -29 23l-5 28q4 37 31 61l3 2l3 7l11 14q3 6 30 21q17 23 27 28l17 5l14 15l6 3l8 13l17 3l10 11h-2q6 1 33 9l15 14l12 -3l31 7l25 -6l27 3l6 -17l27 -13l11 -25l7 -8l15 -11v-8l9 -17
l8 -19q3 -7 3 -12q0 -6 -1 -9l8 -13v-13q4 5 10 19l18 28l16 17l11 8l19 27l12 8q8 6 18 9l12 3l8 4q10 5 32 8l23 -3l21 -12l5 -15l9 -8l14 -38l-7 -9l1 -5v-9l-5 -19l-7 -10l3 -17l-12 -10l3 -14l-10 -10l-3 -21l-8 -2l-7 -16q-17 -12 -21 -31l-14 -6l-3 -10l-20 -9
l-8 -15l-25 -7l-10 -9l-36 -10l-17 -2l-10 -2l-5 -2l1 -13q5 -8 7 -19l1 -5l15 -11l19 -8l2 -7l5 -1l19 -12l20 -4l13 -7l31 -4q5 2 14 2q10 0 14 -2l2 -1q9 3 25 7l3 7l25 5l25 17l10 4l10 15h3q17 0 31 20l7 14l16 19l3 18l5 2q15 48 44 48q23 0 23 -26v-11zM592 394h-3
q-4 -5 -11 -5q-1 0 -4 1h-4q-6 0 -10 -5q-25 -18 -30 -26v-17l-20 -12l-6 -25l-26 -11l-3 -5l3 -14l-7 -9v-13l-15 -13l-1 -23l2 -1q7 3 47 15v2q0 14 28 23l11 10l10 15l12 17l2 22l14 17l2 16l5 20q0 7 4 21zM379 100q-1 5 -1 11l-6 12l-2 22v11l-12 6l-31 19l-6 9l-12 5
l-7 5l-9 -2l-14 14q-6 -1 -16 -1q-11 0 -18 4h-7q-15 0 -26 -5q-9 0 -14 -8h-15l-8 -3q-5 -1 -12 -1l-1 -3l-15 -7l4 -1q-6 -7 -13 -10l-12 -30l-9 -4l-2 -4l-4 -20q8 -32 38 -48l29 -6l19 -12q12 2 19 2q10 0 22 -3l33 14l12 -10q29 1 63 19l3 3q14 14 27 15v3z" />
    <glyph glyph-name="oslash" unicode="&#xf8;" horiz-adv-x="553" 
d="M529 488q-13 -37 -42 -49q-5 -5 -9 -8q-3 -18 -26 -25l-16 -26l3 -2h8l24 -16l1 -10l13 -9l2 -9l4 -4q2 -5 4 -12l3 -2q10 -7 10 -19l5 -5l9 -26l-4 -13q4 -7 4 -14v-4l4 -9l-1 -2v-13l-7 -9l-2 -5l-3 -4q-1 -4 -9 -16l4 -9l-17 -33l-9 -24l-14 -9l-4 -11l-14 -4l-5 -3
q-5 -9 -16 -14q-7 -17 -38 -28q-10 2 -11 5l-9 -10v-6q-16 -11 -36 -13v-3q0 -3 -5 -10h-4q-12 0 -35 -14l-5 4l-4 -4h-5l-6 -4q-16 2 -20 2q-11 0 -16 -1l-16 -3l-38 -11l-1 -6l-6 -5l-1 -5l2 -11h-1q-1 1 -2 1q-4 -2 -8 -8l-13 -21l-9 -31l-13 -2l-2 -10l-20 -17l-4 -17
l-11 -8q-10 -24 -32 -24t-25 28l24 42l4 3l12 27q1 3 5 7q1 13 12 21l3 16h4l7 7q1 14 9 23l-1 11q-3 8 -8 13q-14 1 -22 11l-22 25l-18 34q-3 18 -3.5 25t-0.5 11q0 1 2 11q-8 20 -8 26q0 -2 8 32l-1 4l12 21q2 8 2 10q0 5 -5 10l14 16l9 25l5 4v17l8 5q-2 10 -2 19l15 7
l-2 7q7 8 19 18q8 7 8 10q0 4 -3 8q5 10 19 34q9 25 31 35l-3 8l28 3q28 12 48 13l10 5h10q16 0 27 -4l17 -6h15l31 -13l3 -5l5 -1l11 -2l14 11q0 22 24 28l-2 2l18 17l-4 -1q3 8 13 24l-2 -6q14 20 40 20q20 0 55 -38zM459 263l-3 3l-3 16l-15 21l-5 11l-7 6l-15 14v-8
l-3 -8l-14 -3v-5l-16 -12l-6 -10l-2 -10l-15 -18l-2 -1l-3 -9l-22 -25l-3 -15l-3 -4l-23 -26l-1 -9l-7 -7q-3 -11 -11 -18v-20l-3 -1l-4 -12l-8 -3l-14 -20q3 0 3 -3q0 -5 -10 -15l-15 -15l7 -2l23 2l27 9q7 6 22 11l2 8l28 4l7 8l17 7q13 10 34 21q15 20 21 26q3 9 13 15v4
q0 9 14 18v7l11 39zM341 367l-3 11l-14 1l-5 6l-16 3q1 0 -5 -1h-3l-12 5l-8 -14l-15 2l-10 -5l-8 -1l-7 -6l-14 -6l-20 -27l-9 -23l-10 -7l-11 -26l-12 -11l-3 -9l-17 -24q-5 -1 -5 -6v-23l-3 4q-1 -25 -19 -59l2 -6l-7 -19v-23q2 -5 3 -11q0 -1 1 -2v-2l19 -24l15 -8l4 9
l10 -4v5q17 14 19 31l11 9l2 18l20 29h3l11 19l-4 18l19 11l1 5q4 6 10 14l-3 15q8 14 25 23l4 22q4 0 6 4.5t3 4.5h1l4 10l9 10q10 18 27 32l-1 8z" />
    <glyph glyph-name="questiondown" unicode="&#xbf;" horiz-adv-x="392" 
d="M271 512l-9 -15l4 -21l-10 -15l-12 -11l-24 8l-4 -2l-17 6l-28 16l-11 28v4q0 18 15 25l14 3l26 7l21 -6l21 -10zM346 53q-24 -25 -52 -28l-6 5l-4 -14l-6 -2l-14 -14h-14l-7 -5l-21 -5l-16 5q-3 -1 -10 -1q-8 0 -12 1l-11 -5q-22 12 -17 12q-2 0 -2 -2l-11 2h-8l-2 2
l-19 1l-8 12l-2 2l-13 12l-17 22l-14 22l-10 10l-2 14l-14 14l8 23q2 8 2 14l-4 20q22 16 35 30l4 6l12 17h8l12 10l3 7l9 6v8l24 5l8 17h3v2l7 4l-2 4l26 19l5 12l9 17l-4 18l3 5l-9 6l-10 1q-21 9 -21 29q0 1 1 4v4l8 16l39 1l23 -16l11 -12q10 -6 15 -17l13 -3v-20
l-3 -11l9 -13l-5 -16l-1 -12l-15 -16q-2 -7 -10 -11q-2 -2 -4 -6q-3 -10 -12 -21h-3l-5 -10l-8 -3q-7 -12 -20 -16v3q-8 -8 -9 -11q1 0 1 1h1q2 -2 2 -3q0 -4 -3 -10l-16 -7l-4 -5l-19 -8v-9l-14 -7l-3 -14q-5 -1 -17 -5l1 -12l4 -13l-2 -8l6 -9h2l18 -11l2 -8l10 -9l8 -7
l4 -1l10 2l14 -2l2 4q13 0 18 -1l5 -1q11 0 26 5l2 1q4 -4 7 -10q3 8 15 10q39 12 47 12q22 0 33 -29z" />
    <glyph glyph-name="exclamdown" unicode="&#xa1;" horiz-adv-x="312" 
d="M206 502l-8 -24l-15 -14l-5 -1l-10 -10q-9 0 -21 5q-16 0 -24 5q5 4 11 5l-22 3l-7 13l-14 38l8 -6q0 1 2 11l25 20l18 -5l15 7l14 -8h20zM210 40l-10 -42l-22 -1q-6 -2 -18 -2q-4 0 -36 10l-5 14q-1 6 -1 17q0 7 1 9l2 5l2 4l-7 24l2 4l4 17l3 -1l4 12h-3q-1 7 -3 17
l3 10q-1 6 -1 16q0 6 1 9l2 10l1 26l3 54l-7 10l7 25l-6 21l5 10q-3 8 -3 14v5l-5 18l6 3l-1 5q0 7 3 13l-1 7q5 27 30 27q29 0 29 -37v-21l3 -22l6 -20l-5 -11l4 -10l-4 -26l10 -5l-6 -22l2 -10v-17l2 -6l-6 -25l2 -3v-6l6 -11l-8 -14l4 -11l-3 -10v-26l-1 -14
q0 -11 -1 -15l6 -7v-12z" />
    <glyph glyph-name="logicalnot" unicode="&#xac;" horiz-adv-x="833" 
d="M709 175h-67v177h-518v68h585v-245z" />
    <glyph glyph-name="radical.old" horiz-adv-x="549" 
d="M594 764h-57l-290 -784h-32l-156 431l-61 -22l-12 39l138 48l125 -346l252 681h93v-47z" />
    <glyph glyph-name="florin" unicode="&#x192;" horiz-adv-x="625" 
d="M600 188q0 -26 -37 -26h-9l-33 -7l-30 6l-11 -3h-18l-12 -5l-22 5l-16 -3l-3 -8l-34 10l-16 -6l-16 7l-37 -5l-10 -19l-2 -12l-11 -35l-1 -22l-9 -18l-7 -31l-13 -34l-4 -7l-1 -16l-13 -20l-1 -16l-3 -8l-3 -15l-12 -15l-2 -15l-15 -27l-2 -7v-5q-8 -31 -25 -48
q-2 -21 -7 -29q-5 -17 -12 -23l-7 -20l-22 -27q-12 -18 -29 -37l-12 -8l-15 -16l-29 -11h-17l-27 6l-17 23l-3 6q-16 17 -28 37v4q0 6 4 22l-6 8q0 18 9 38q-3 6 -6 11l4 19l-1 17l6 15l-1 12q15 29 31 69q8 6 20 16l1 -4l5 13l1 14l17 14q6 6 12 9q1 18 64 24l17 -13l10 -3
l9 -12l1 -20l-8 -8l-1 -15l-1 -9l-8 -2h-23l-7 16l-11 -5q-10 -4 -16 -22t-13 -23l-3 -2l-1 -8q-1 -6 -8 -13.5t-10 -12.5l-3 -25l-6 -9l-3 -28l-3 -4q2 -12 2 -20q0 -7 -2 -23l-4 -4l8 -11l-5 -21l4 -5l4 -2q13 12 24 14v17l12 4l1 7l13 10l16 29l8 28l3 3l-1 7l13 19l4 14
l5 8l2 8q12 9 12 23v3q2 6 11 24l3 11l11 12l3 16h5l1 17l6 20l3 1v6l3 3v10l9 15l9 48l7 7l2 14q7 6 8.5 19.5t6.5 19.5l-5 7l8 16l2 10l-6 -2h-13l-6 -4l-17 5q-15 -6 -27 -8h-24l-19 -4l-15 4l-15 7l-22 17v6q0 32 28 41q5 2 44 4l16 -4l16 4q8 -2 13 -2q8 0 15 3l44 -4
l7 1l19 52l-1 14l7 33l12 7l-7 1q3 6 7 10v2q0 6 7 29l-4 22q9 9 12 9h1l2 13l11 18q-2 6 -2 10q0 11 9 20l1 18l11 13v16l8 8l-6 9q19 13 19 21v3l10 8l5 11l6 4l2 16q6 3 32 13q5 -3 8 -8l4 15l36 4h6q15 0 26 -8q11 0 19 -8l1 -3q4 -4 8 -9l1 -7l6 -6l9 -28l5 -7l5 -30
l-7 -14v-17l-10 -10l-2 -10q-16 -16 -34 -16q-19 0 -32 21q-12 8 -12 20t12 24v10q11 9 11 17q0 6 -13 18l-3 -1l-9 -8v-12l-20 -7l-3 -3q-1 -25 -12 -38l-5 -6l-6 -18l-10 -16v-22q-4 6 -7 7q0 -9 -2 -15l-2 2l3 -11l-11 -34l-9 -10l-2 -13l-5 -14v-8l-8 -27l-5 -7v-2
q0 -11 -6 -20l-11 -37l32 -2l12 2l42 -1l17 -5l22 1l39 -2l10 -2l4 5l17 5l23 -6q20 -5 38.5 -10.5t18.5 -19.5z" />
    <glyph glyph-name="approxequal.old" horiz-adv-x="549" 
d="M531 297q-81 -54 -146 -54q-34 0 -105.5 23.5t-109.5 23.5q-60 0 -152 -65v69q86 56 157 56q38 0 84 -14q29 -10 88 -28q21 -5 43 -5q54 0 141 63v-69zM531 178q-79 -54 -146 -54q-32 0 -105.5 23.5t-114.5 23.5q-55 0 -147 -65v69q89 57 158 57q35 0 84 -15l81 -25
q26 -8 49 -8q53 0 141 64v-70z" />
    <glyph glyph-name="Delta" unicode="&#x2206;" horiz-adv-x="612" 
d="M595 0h-574l276 672h22zM471 32l-198 491l-201 -491h399z" />
    <glyph glyph-name="guillemotleft" unicode="&#xab;" horiz-adv-x="418" 
d="M400 333q0 -23 -33 -34l-1 3l-7 -16l-9 -10l-19 -6l-11 -15h-14l-28 -30l-17 -12h-5v-3l10 -23q7 -12 9 -13q4 -8 4 -12q0 -3 -1 -5l6 -8l2 -4l6 2l6 -24l8 -14l3 -8l17 -15l-1 -20q19 -11 25 -34l-33 -19l-14 14l-12 9q-15 33 -40 49l-1 11l-28 24v8l-8 8l-1 5l-3 1
l-12 19l-17 2q-23 3 -23 23v16l13 6v7l4 11l11 4l-1 6l16 6l12 -1q1 1 4 1h5q6 14 26 34l22 22q4 11 17 13q2 3 5 7l23 26l2 -5l10 14v2q5 9 17 10l16 -2l20 -5l11 -13zM304 398l-13 -23l-13 -16l-12 -2l-9 -10l-10 -5v-8l-15 -4q-13 -13 -23 -18l-10 -11l-13 -5l-1 -5
l-15 -10l-12 -6l-14 -18l-14 -7l-11 -5l-2 -3v-13l-3 -1l6 -18l9 -7l3 -19l9 -18l5 -15l13 -15l3 -6l13 -3l-4 -15q6 -11 15 -31l7 -5l15 -19l11 -7l-2 -29l-38 -19l-18 28l-12 7q-16 17 -16 25v3l-14 22q-2 3 -8 11q-13 8 -17 20l1 -2l-4 14l-13 12l-2 5l-12 8l-1 3l-14 4
l1 21l-27 23l-1 10l-3 18l12 13l14 10l7 1l7 10l7 2l1 8l22 14l10 5v8l40 33l11 13q4 5 12 9q0 7 5 10l22 4l6 6l4 18l20 12q8 5 8 14v4q24 11 35 11q20 0 42 -41z" />
    <glyph glyph-name="guillemotright" unicode="&#xbb;" horiz-adv-x="418" 
d="M400 208l-11 -14l-14 -9l-8 -1l-6 -10l-7 -2l-2 -8l-21 -14l-11 -5v-8l-40 -34l-10 -13q-9 -7 -12 -8q0 -4 -6 -10l-21 -4l-6 -6l-4 -19l-21 -12q-8 -5 -8 -14v-4q-22 -11 -35 -11q-20 0 -42 41l13 24l13 15l13 3l8 10l11 5v8l14 4q10 10 24 18l9 11l14 5l1 4l15 10l12 6
l13 19l15 6l10 6l3 3v13h3l-7 18l-8 7l-4 20l-9 17l-4 15l-14 16l-2 5l-13 3l3 15q-10 20 -14 32l-8 5l-15 19l-11 6l3 30l37 18l19 -28l12 -6q16 -17 16 -25v-3l13 -23q2 -3 8 -11q14 -9 18 -20l-1 2l4 -14l13 -11l1 -6l12 -7l1 -3l15 -4l-2 -22l27 -24l2 -9zM262 239
l-13 -5v-8l-4 -11l-11 -3l1 -6l-16 -7l-13 2l-8 -2q-3 -8 -27 -33l-21 -22q-6 -13 -18 -14q-3 -3 -5 -7l-23 -25l-1 4l-11 -13v-2q-8 -11 -17 -10l-16 1l-20 6l-11 13l-9 12q0 22 33 33l1 -2l7 16l10 10l19 6l10 15h14l29 30l17 12h4v2l-10 24q-12 16 -12 23q0 5 1 7l-7 8
l-1 4l-7 -2l-5 23l-9 15l-2 8l-17 15l1 20q-19 12 -25 34l33 18l14 -14l11 -8q16 -35 40 -49l2 -11l28 -24v-9l8 -7v-5l4 -1l12 -19l16 -3q24 -4 24 -22v-17z" />
    <glyph glyph-name="ellipsis" unicode="&#x2026;" horiz-adv-x="812" 
d="M731 48l-4 -14l3 -9l-7 -3v-7l-11 -8l-9 -12l-19 -1l-6 -1q-4 -2 -12 -2q-12 0 -21 6q-7 2 -10 5q-7 3 -9 12l-13 7v28q0 16 24 26q8 7 23 17l17 -5l4 -3l2 3l7 -4h4q12 0 17 -8l8 -13zM464 25l-6 -3v-7l-11 -8l-9 -12l-19 -1l-7 -1q-4 -2 -12 -2q-12 0 -21 6q-5 1 -9 5
q-7 3 -9 12l-14 7v28q0 16 24 26q5 4 24 17l16 -5l4 -3l3 3l6 -4h5q12 0 17 -8l7 -13l11 -14l-2 -14zM198 25l-7 -3v-7l-11 -8l-9 -12l-19 -1l-6 -1q-4 -2 -12 -2q-12 0 -21 6q-4 1 -10 4.5t-8 12.5l-14 7v28q0 17 24 26q8 7 23 17l17 -5l4 -3l2 3l7 -4h4q12 0 17 -8l8 -13
l11 -14l-3 -14z" />
    <glyph glyph-name="nonbreakingspace" unicode="&#xa0;" horiz-adv-x="255" 
 />
    <glyph glyph-name="Agrave" unicode="&#xc0;" horiz-adv-x="727" 
d="M714 -16q-1 -25 -33 -35l-38 18h-11l-13 10h-16l-12 20l-10 5l-13 23l-18 19v8l-8 7l-2 16l-13 12l-21 47l-9 11l-4 28l-13 17l-21 3l-23 -13l-5 5l-16 -10l-5 11q-5 -1 -15 -1q-11 0 -16 1h-8l-21 -11l-23 3h-4l-16 -9l-13 5q-19 0 -28 4h-5l-26 -12l-10 11l-18 5l-4 -3
q-22 -29 -32 -41l-16 -4q-38 -55 -48 -59l-4 -1l-32 -39h-4l-20 -31l-38 -21q-10 -2 -16 -2q-19 0 -36 14l12 25v15l4 5l2 20l31 4l8 5q12 7 14 21q18 5 22 20q27 14 35 44l17 6l25 37q-8 11 -12 28l21 17v19l39 -3l10 5q5 17 20 24l2 19l21 11q3 2 11 5v6q0 9 4 16
q21 15 22 41l14 3l5 9l7 1l19 36l5 -2l8 4v27h7q25 27 25 35l5 4l-5 15q24 29 39 30l19 16l22 -22l28 -15l3 -26q5 -6 8 -12q14 -17 16 -35l6 -25l15 -22l9 -33l2 -16l18 -22l-4 -7l8 -7v-20l2 -15q-3 -15 -3 -11l5 -5l6 -8q13 1 19 3h30q8 -2 12 -2q6 0 12.5 4.5t20.5 4.5
q10 0 30 -10l30 -2q2 -8 2 -12q0 -15 -15 -23l-15 5l-28 -20l-23 3l-10 -5l-22 -2v4l-26 -6l-1 -6l2 -23l13 -18l2 -18l23 -32l-2 -11l9 -9l24 -37l17 -17l4 -8l18 -9l7 -16zM467 254h-1l-11 11l12 10q-8 7 -8 21l-7 4l-5 41l-12 17l-3 17l-2 4h-7l-3 36l-9 13l-5 2l-3 4
l-4 -7l-24 -30l-8 -17l-20 -18l-4 -18l-23 -10q-5 -30 -30 -43l-7 -20l-13 -13h9q18 -6 30 -6h4q6 3 12 3q7 0 16 -4l4 -1q6 1 19 1q16 0 24 -1l35 4l23 -12q17 7 20 14q0 -1 1 -1v-1zM491 601l-16 -23l-34 9l-7 5q-3 3 -8 7q-17 2 -21 10q-2 0 -9.5 1.5t-13.5 1.5l-9 12
q-7 5 -10 11q-7 2 -18 12q-16 6 -23 18l-10 10q-10 2 -21 18l-1 3l-20 5l-2 21l7 8l9 15l16 5l14 14l22 -10l14 -4l11 -15l20 -21l10 -18l11 -8l6 -12l13 -5l7 -10l14 -6l4 -5q8 -4 15 -12l3 -2q13 -6 16 -13z" />
    <glyph glyph-name="Atilde" unicode="&#xc3;" horiz-adv-x="727" 
d="M714 -16q-1 -25 -33 -35l-38 18h-11l-13 10h-16l-12 20l-10 5l-13 23l-18 19v8l-8 7l-2 16l-13 12l-21 47l-9 11l-4 28l-13 17l-21 3l-23 -13l-5 5l-16 -10l-5 11q-5 -1 -15 -1q-11 0 -16 1h-8l-21 -11l-23 3h-4l-16 -9l-13 5q-19 0 -28 4h-5l-26 -12l-10 11l-18 5l-4 -3
q-22 -29 -32 -41l-16 -4q-38 -55 -48 -59l-4 -1l-32 -39h-4l-20 -31l-38 -21q-10 -2 -16 -2q-19 0 -36 14l12 25v15l4 5l2 20l31 4l8 5q12 7 14 21q18 5 22 20q27 14 35 44l17 6l25 37q-8 11 -12 28l21 17v19l39 -3l10 5q5 17 20 24l2 19l21 11q3 2 11 5v6q0 9 4 16
q21 15 22 41l14 3l5 9l7 1l19 36l5 -2l8 4v27h7q25 27 25 35l5 4l-5 15q24 29 39 30l19 16l22 -22l28 -15l3 -26q5 -6 8 -12q14 -17 16 -35l6 -25l15 -22l9 -33l2 -16l18 -22l-4 -7l8 -7v-20l2 -15q-3 -15 -3 -11l5 -5l6 -8q13 1 19 3h30q8 -2 12 -2q6 0 12.5 4.5t20.5 4.5
q10 0 30 -10l30 -2q2 -8 2 -12q0 -15 -15 -23l-15 5l-28 -20l-23 3l-10 -5l-22 -2v4l-26 -6l-1 -6l2 -23l13 -18l2 -18l23 -32l-2 -11l9 -9l24 -37l17 -17l4 -8l18 -9l7 -16zM467 254h-1l-11 11l12 10q-8 7 -8 21l-7 4l-5 41l-12 17l-3 17l-2 4h-7l-3 36l-9 13l-5 2l-3 4
l-4 -7l-24 -30l-8 -17l-20 -18l-4 -18l-23 -10q-5 -30 -30 -43l-7 -20l-13 -13h9q18 -6 30 -6h4q6 3 12 3q7 0 16 -4l4 -1q6 1 19 1q16 0 24 -1l35 4l23 -12q17 7 20 14q0 -1 1 -1v-1zM578 668q-2 -12 -5 -15v-5q0 -6 -4 -11l-18 -13l-20 -4l-6 -7l-6 -8l-25 -7l-30 -5
l-41 15q-4 4 -4 5v1l-27 15l-1 14l-7 -3v12q-6 3 -15 3l-22 -14q-9 -6 -16 -16q-9 -14 -13 -18q-12 -12 -32 -12l-18 2q-16 18 -16 27q0 14 22 27l13 14l11 5q6 7 22 17l7 1q13 5 24 18l22 4l11 -2l4 1q11 -15 26 -19l12 -7l15 -20l18 -9l2 -5l30 5l4 16v13l10 18
q7 12 26 12q14 0 29.5 -13.5t17.5 -31.5z" />
    <glyph glyph-name="Otilde" unicode="&#xd5;" horiz-adv-x="720" 
d="M693 264l-10 -21l-4 -33l-10 -9q-6 -40 -31 -51l-7 -3l-60 -42l-18 -10l-29 -32l-18 3l-11 -8l-20 -7l-50 -26q-6 2 -16 9q-7 -10 -22 -13h-4l-20 -16l-4 2h-19l-9 -7l-38 1l-50 -8h-6q-7 0 -17 -2l-28 4l-5 5l-40 6l-17 8h-24v11l-19 20l-25 11l-11 31l-1 23l-6 7l-1 45
l13 40l-2 24l5 5v19l14 14v10l6 11v10l4 5l-5 11l16 11l19 40l41 59l10 5q3 5 9 13l10 8v16l15 3q15 12 33 18l5 6q9 4 52 10l27 4l32 -4l19 1h27l6 -1l3 -1h5l6 2l32 -1l-2 -6l15 -4q6 2 6 8q5 -9 22 -9l8 -8h30l67 -29l8 -22l6 -9l18 -7l27 -44l16 -20q27 -63 27 -75v-11z
M618 258l-5 28l5 8l-7 17q1 2 1 6q0 3 -2 5l-18 12l-6 16l-8 3l-3 14l-25 23l-15 12l-6 -3q-23 21 -85 35q-8 0 -10 1l-5 -3l-18 5l-10 -5q-15 5 -18 5q-1 0 -7.5 -2t-11.5 -2t-8 1q-7 -13 -33 -23l-13 2l-14 -7l-18 2q-18 -14 -42 -29l-5 -7l-5 -22l-23 -10l-4 -5
q-6 -12 -16 -22v-17l-14 -6l-3 -2l-9 -30l-14 -8q-3 -51 -17 -71q-8 -11 -9 -30l-4 -11l3 -7l3 -15l12 -13l2 -13l10 -10q28 -16 50 -17l42 11l9 -9h12l2 2l30 5l32 -5q8 8 19 8q23 14 39 14l21 12l16 1l13 10l31 1q4 1 9 1l2 3q7 10 21 13l12 28l8 -5l8 4l14 13l5 -2l17 12
l30 30l13 4l6 15l8 5l-2 9zM544 668q-2 -12 -5 -15v-5q0 -6 -4 -11l-18 -13l-20 -4l-6 -7l-6 -8l-25 -7l-30 -5l-41 15q-4 4 -4 5v1l-27 15l-1 14l-7 -3v12q-6 3 -15 3l-22 -14q-9 -6 -16 -16q-9 -14 -13 -18q-12 -12 -32 -12l-18 2q-16 18 -16 27q0 14 22 27l13 14l11 5
q6 7 22 17l7 1q13 5 24 18l22 4l11 -2l4 1q11 -15 26 -19l12 -7l15 -20l18 -9l2 -5l30 5l4 16v13l10 18q7 12 26 12q14 0 29.5 -13.5t17.5 -31.5z" />
    <glyph glyph-name="OE" unicode="&#x152;" horiz-adv-x="1155" 
d="M1108 297q-4 -6 -8 -10q-11 -5 -18 -7q1 1 5 2q-31 -7 -43 -7l-15 3l-43 -15l-9 3l-11 -4l-7 2l-14 -7q-36 -5 -58 -5q-13 0 -27 3l-30 -10l-15 5l-14 -8q-21 6 -26 6q-12 0 -25 -7l-48 -4l-4 2l-14 -2l3 -52l-3 -4l4 -10l-1 -13q4 -9 8 -29l7 -9l2 -7h5l11 -18l23 -20
q8 -12 32 -12q4 1 10 1t9 -1l32 7q14 5 30 6h2q4 0 8 3l24 12l11 -4l3 2q9 5 22 13l11 4l26 16l12 2l9 3q6 2 9 10l13 4l11 9h3l20 16l6 2q28 -7 32 -37l-31 -35l-19 -14l-11 -4l-6 -4l-24 -10l-21 -12l-23 -21l-6 1l-8 -7l-39 -15l-20 -10h-23l-15 -7l-32 -2l-34 -6l-33 9
l-43 20q-56 26 -75 111l-12 -18l-33 -32l-27 -15l-21 -7l-18 -9l-8 -7l-58 -24q-22 8 -27 8q-1 0 -7.5 -8.5t-18.5 -10.5l-10 3l-18 -5l-67 -12q-30 5 -48 5q-13 0 -19 -1l-31 3l-5 4l-40 6l-17 8h-20l-4 15q-12 7 -19 17l-25 11l-7 21l-4 10l-1 23l-6 7l-1 45l13 40l-2 25
l5 5l-8 16l22 17v10l6 12v11l6 5l4 16l10 21l16 26l-4 7l35 26l16 35q8 2 19 13l7 4q3 3 3 8v3l22 20l16 2q3 4 8 9q21 3 48 9l26 8l41 -3l31 -6q9 3 17 3q5 0 11 -2l2 -1l6 -2l-2 -1l14 -1l-5 4q9 3 13 3q13 -2 20 -8h-3q14 -6 27 -6h5l6 -7l5 1l26 -2l23 -12l13 -14l15 -7
l7 -14l12 -6l10 -7l10 -15l4 17l-2 12q-21 0 -26 30l-1 4v6q0 16 16 26l-1 -4l9 10q8 4 18 4h18l12 17l27 2l14 -13l27 5h7q5 -1 8 -1q2 0 8 1h9l34 6q15 -3 24 -3q27 0 57 5l39 6l20 -6l17 5l13 -4l8 1l10 -5l5 1h24l8 -4q19 4 36 4l18 -7q32 -9 32 -26q0 -10 -8 -19
t-17 -9h-5l-11 -6l-19 6q-6 -1 -17 -1q-9 0 -15 3q-4 -3 -9 -3h-3l-17 7q-14 -10 -31 -10q-6 0 -16 2h-33l-14 -2q-13 -5 -32 -7l-10 -6l-26 4l-15 -5h-18q-6 -3 -10 -3q-10 -8 -20 -8q-5 0 -15 4l-13 -3l-4 2l-9 -4l-7 -5l-10 -13l1 -12q-4 -14 -9 -18v-6q0 -8 -1 -12l1 -5
l-4 -1q4 -7 4 -12q0 -8 -11 -30q3 -12 3 -13l8 -1h4l4 2q6 2 8 2q3 0 11 -2t12 -2h2l49 3l3 3l35 5l5 -7q3 0 7 3h3l9 -7l20 6l-4 2q11 5 25 7l36 -6l23 5q27 -3 39 -3q8 0 12 1q13 10 25 10l6 -1l2 -1q8 -2 17 -2q5 0 19 2h15q21 0 26 -33zM607 322l-2 4l-13 10l-6 15l-8 3
l-3 14l-25 19l-15 17l-6 -3l-45 26q-5 3 -14 3q-3 1 -10 2l-12 3q-3 1 -13 2l-6 -3l-18 4l-10 -4q-7 4 -15 4q-4 0 -13 -2t-14 -2h-2q-15 -15 -36 -21l-11 2l-14 -7l-18 2q-21 -17 -42 -28l-5 -7l-9 -23l-16 -10l-20 -35l-20 -18l-9 -30l-14 -9q-4 -54 -17 -71q-5 -5 -6 -10
l-4 -20l-3 -11l3 -7l3 -14l12 -14l2 -13l10 -10q29 -17 56 -17l16 -5l17 7l30 -3l4 -6l11 4h25l17 -2l6 6l31 11q6 3 11 3t13 -4l16 14l29 2l13 -3l16 5q17 10 37 20l24 2l16 20l7 -1l29 16l34 48l3 26l-1 10l1 9l-15 18v27q4 13 17 23q0 7 1 12z" />
    <glyph glyph-name="oe" unicode="&#x153;" horiz-adv-x="640" 
d="M631 82q0 -13 -16 -32q-5 -15 -16 -26l-6 -1l-11 -19l-18 -3l-19 -13l-10 -17l-11 1q-5 -3 -18 -5l-4 -8h-36l-11 -5q-12 -2 -17 -2q-13 0 -22 4l-14 -1l-9 6q-41 8 -47 31l-13 7l-7 16l-11 9v13l-2 4l-18 -7q-11 -18 -36 -24q-13 -21 -35 -22q-13 -7 -29 -7l-5 -5
l-11 -3l-10 -10l-11 6l-18 -8l-18 5l-44 4l-14 23l-18 19l-3 16l-17 38l7 13l-5 24l5 16l-2 17v5q0 16 10 26l1 33h2q1 16 6 25v17q6 2 16 7q-3 12 -3 19q0 16 20 27l17 30l6 6l2 11h7l6 9h2q4 11 7 14l3 -3l8 8q11 18 25 25q5 3 9 3h2l-2 4q18 15 46 15h10l19 5l9 -7l8 -2
l14 -7h8l15 -8h9q4 -9 9.5 -15t17.5 -16l4 -8l7 -3l20 -25q9 22 20 39q7 7 12 13l1 7l13 11q4 8 9 12q6 8 17 11l8 10l9 7q8 2 11 2l3 7q20 8 31 8q13 0 18 -4l4 1l8 -3q13 -8 20 -15h4l11 -10l7 -3v-9l6 -3l2 -2q13 -9 14 -41l-4 -11l4 -33l-9 -6l-10 -25l-19 -22l-2 -15
l-29 -22q-5 -7 -26 -14v-2q0 -8 -33 -13l-21 -12h-15l-23 -8l-18 7l-3 -18l-6 -9v-11l-4 -7l-4 -14l-8 -10l1 -17l1 -12l-1 -13l1 -15q0 -1 7 -5q3 -17 16 -25l22 -7v-5l9 -3l30 -1l20 8l18 12l4 -1l10 5l9 6l10 -9l7 7h-2q4 19 16 28l3 4q19 4 23 21q13 13 40 13
q18 -19 18 -33zM533 366q0 5 -1 7l-3 8l-20 -1l-10 -7l-9 -2l-5 -1l-14 -8l-7 -15l-9 -9l-14 -25l-9 -7q-3 -14 -14 -29q-5 -9 -10 -16l25.5 6t16.5 13l21 2l5 2l7 10l9 2q4 7 8 13v13l13 3l2 2l3 10l13 21q2 3 2 8zM328 230v7l-9 19l2 19l-3 5q-10 4 -15 16q-9 6 -9 20
l-6 2l-12 19l-9 7l-21 9h-3l-36 -18l-4 -17l-22 -7l-8 -7l-2 -6l-25 -45l-8 -6v-6q0 -14 -13 -26l-17 -9q3 -4 3 -8q0 -5 -4 -11q0 -5 -2 -17l6 -9l-5 -10l1 -14l-8 -12v-9l5 -10v-28l-4 -14l1 -14l10 -13l18 -7l8 4l25 -2l5 10h28v-3l13 9l2 3l9 2q11 15 33 22l3 5l19 15
l11 16l16 7l1 6l6 16l-3 13l6 18l-1 7l8 13q2 12 5 17v12z" />
    <glyph glyph-name="endash" unicode="&#x2013;" horiz-adv-x="493" 
d="M465 204q-23 -10 -37 -10q-2 0 -9 1l-29 1l-18 -1l-3 1q-24 -4 -54 -4h-16l-14 -3l-12 4l-14 -1q-4 2 -10 4l-18 -9l-16 4l-9 -3l-15 4q-4 -1 -13 -1l-5 1l-2 -1l-25 -4l-8 3l-7 -1h-16l4 1l-17 1l2 -1h-13q-7 -6 -18 -6q-7 0 -10 1l-7 4q-13 4 -23 12l-8 13l12 27l6 7
l9 -1l7 6l12 -9l33 -4l6 4l7 -5l39 -3l3 -5l11 3h3l22 3l14 -3l14 1q8 0 20 -2l12 4l22 -4h13l16 -3l13 1h3q8 0 21 -5q14 0 23 -1l7 3h13q0 -2 -5 -7l15 3l10 3h12q46 0 47 -23z" />
    <glyph glyph-name="emdash" unicode="&#x2014;" horiz-adv-x="905" 
d="M896 218h-44l-12 -3l-15 4l-16 -3l-17 1l-7 -4q-16 1 -30 5l-6 -2h7l-13 -5l-36 5l-29 -2l-7 3l-28 -5l-12 1h-18l-2 2q-4 1 -10 2l-10 -3l-17 4l-18 -6l-6 1l-5 -2l-26 3l-13 -1h-47v-8l-48 3q-2 0 -13.5 2.5t-20.5 2.5t-23 -3h-21l-9 3l3 -2l-52 -1q-2 0 -10 2
q-12 -1 -21 -3q-20 0 -29 1q-12 -6 -22 -6q-7 0 -15 3q-24 -3 -38.5 -3t-33.5 -2l-7 -5l-12 3q-5 -1 -14 -1q-12 0 -35 7v5l-15 13l21 25l27 4l9 -7l7 5l7 3l7 -4l6 4q24 2 32 2h14q13 0 21 -4q6 0 12 1l-6 -1q32 6 43 6h32l29 -1q5 1 16 1q23 0 42 -6q22 2 36 2q20 0 29 -1
q8 0 22 2q10 0 16 -2l15 5l12 -5h34l8 2l19 -2l11 1l12 -9l8 6l30 2q17 -3 25 -3l11 -2l4 2q24 1 59 4l10 -5q4 2 12 2q9 0 14 -4l12 3l18 -2h7l15 4l16 -4l34 1q22 -2 43 -5q13 -3 22 -26z" />
    <glyph glyph-name="quotedblleft" unicode="&#x201c;" horiz-adv-x="397" 
d="M384 544l-3 -10q0 -19 -14 -29l-6 -12l-5 -4l1 -18l-10 -6l-1 -3q0 -5 -5 -12l1 -10l-6 -6q0 -1 1 -3v-4q0 -3 -2 -13q-2 -2 -7 -8l1 -2l1 -6l-10 -18q-9 -21 -37 -21q-15 0 -31 4l-2 2l-16 5l-7 12l-5 16l13 24l2 16l7 3l10 9l-4 4q6 2 9 7l14 12l13 17l11 16q5 4 15 11
v3q4 13 16 22l1 14l14 13q11 10 26 10q8 0 12 -1zM228 544l-2 -10q-2 -20 -15 -29v-11l-3 -6l-7 -5l3 -9l-12 -9l-1 -5q-1 -3 -5 -9l-1 -18l-6 -10l-6 -15l-2 -13l-5 -13q-9 -23 -37 -23q-15 0 -32 4l-2 2l-20 1l-4 16l-5 18l6 18l5 18l10 5l14 12l3 9l14 11l24 34
q8 5 14 11q1 14 16 24l2 13l12 14q17 9 37 9z" />
    <glyph glyph-name="quotedblright" unicode="&#x201d;" horiz-adv-x="397" 
d="M384 519l-7 -17l-5 -19l-10 -5l-14 -12l-3 -8l-14 -11l-12 -18l-12 -17l-14 -10q-1 -15 -16 -25l-2 -13l-11 -14q-15 -8 -38 -8l-5 33l2 10l1 2q0 17 14 27l1 11l2 6l7 5l-3 10l12 8l2 5q3 7 5 9v19l6 9l6 15l3 13l5 13q9 23 37 23q15 0 31 -4l3 -2l20 -1l3 -16zM227 522
l-12 -25l-3 -16l-6 -3l-11 -9l4 -4q-4 0 -8 -7l-15 -11l-13 -18l-11 -16l-14 -11v-3q-4 -13 -16 -22l-2 -14l-14 -13q-11 -10 -27 -10q-2 0 -5 1h-6l-2 34l2 11q0 18 15 28l5 12l6 4l-2 18l10 6l1 4q2 7 5 11l-1 10l6 7v4q0 3 2 15q4 6 6 8l-1 2l-1 6l10 18q8 21 37 21
q15 0 31 -4l2 -2l16 -5l8 -12z" />
    <glyph glyph-name="quoteleft" unicode="&#x2018;" horiz-adv-x="240" 
d="M228 544l-2 -10q-2 -20 -15 -29v-11l-3 -6l-7 -5l3 -9l-12 -9l-1 -5q-1 -3 -5 -9l-1 -18l-6 -10l-6 -15l-2 -13l-5 -13q-9 -23 -37 -23q-15 0 -32 4l-2 2l-20 1l-4 16l-5 18l6 18l5 18l10 5l14 12l3 9l14 11l24 34q8 5 14 11q1 14 16 24l2 13l12 14q17 9 37 9z" />
    <glyph glyph-name="quoteright" unicode="&#x2019;" horiz-adv-x="240" 
d="M227 522l-12 -25l-3 -16l-6 -3l-11 -9l4 -4q-4 0 -8 -7l-15 -11l-13 -18l-11 -16l-14 -11v-3q-4 -13 -16 -22l-2 -14l-14 -13q-11 -10 -27 -10q-2 0 -5 1h-6l-2 34l2 11q0 18 15 28l5 12l6 4l-2 18l10 6l1 4q2 7 5 11l-1 10l6 7v4q0 3 2 15q4 6 6 8l-1 2l-1 6l10 18
q8 21 37 21q15 0 31 -4l2 -2l16 -5l8 -12z" />
    <glyph glyph-name="divide" unicode="&#xf7;" horiz-adv-x="833" 
d="M478 478q0 -25 -18 -43t-43 -18t-43 18t-18 43t18 43.5t43 18.5t43 -18.5t18 -43.5zM709 264h-585v68h585v-68zM478 118q0 -25 -18 -43t-43 -18q-26 0 -43.5 17.5t-17.5 43.5q0 25 18 43t43 18t43 -18t18 -43z" />
    <glyph glyph-name="lozenge" unicode="&#x25ca;" horiz-adv-x="494" 
d="M491 289l-244 -522l-244 522l244 518zM435 289l-188 399l-188 -399l188 -403z" />
    <glyph glyph-name="ydieresis" unicode="&#xff;" horiz-adv-x="661" 
d="M567 189q-3 -11 -9 -25l1 -6l7 -36l-7 -38l3 -18l-6 -13l4 -44l-4 -7v-29l-1 -23l3 -10l-2 -63l8 -18l-6 -8l3 -17l-5 -5l5 -17l-9 -10v-7l-4 -9q-3 -17 -22 -49l-7 -25q-8 -4 -10 -6l-3 -3l-9 -12l-10 -15l-17 -9q-12 -22 -28 -25q-5 -5 -7 -6l-3 -3l-14 -6l-8 -8h-10
l-5 -8l-18 4l-19 -12l-18 4l-33 -5l-7 1l-5 -2l-33 6h-15l-6 6l-40 13l-34 5l-5 9l-18 2l-6 17l-12 3l-8 15l-19 7l-16 23l-29 18l2 19q-2 1 -9 39q0 16 7 39v9l10 5l6 17l4 -2l10 16l18 14l14 4l27 22l26 -2q10 10 26 10q23 -11 23 -27q0 -10 -9 -20l-14 -7l-15 -11l-15 -4
l-9 -17h-15l-6 -10l-13 -11l1 -15l-8 -14l4 -10l7 -16l22 -14l5 -15l27 -21l15 -1l18 -14h18l11 -11l14 1l8 -6l48 2l31 10l19 -1l21 12q8 3 14 3q2 1 7 4l5 8l10 -3l4 4v8q1 6 13 10q4 10 16 17q3 5 5 22l14 8l3 7q4 8 8 17l1 3l3 39l4 3v16l-4 15l6 12q-2 20 -2 27
q0 9 1 20.5t1 13.5v51l-7 13l7 21l-2 20v51l-3 13l4 7v13q0 7 1 9l-8 23v35l-11 -18l-12 -9l-12 -12l-8 -3l-3 -12l-9 -5l-1 -3l-14 -12l-19 -23l-27 -28l-10 -3l-3 -5l-30 -22h-9l-10 -10l-4 -10l-22 -7l-4 -7l-15 -2l-21 -14l-17 -4l-8 -6l-11 -2l-3 -2q-13 -14 -41 -14
q-30 0 -47 19l-22 33l-1 19l-12 36v30l-4 12l6 10l-5 22l7 6l1 10l6 12l-2 21l4 8v7q0 21 7 49l-3 27l3 25l-9 36l2 7l-4 6l12 32q4 16 4 32q12 6 24 6q9 0 18 -3l9 -20l17 -12q-3 -15 -5 -24l9 -15l-4 -10l13 -11l-12 -22l6 -26l-7 -11l1 -2l-6 -43v-39l-6 -6l-4 -35
l-9 -11q0 -5 1 -13v-10l7 -18l-7 -13l2 -16l-2 -4l2 -12l9 -8l7 2l1 -6l7 10h29q6 6 15 10q23 16 41 18l1 13l71 39l4 8q-3 -2 -5 -3l14 9l4 13l7 11l14 5l8 12l5 -1l6 4l12 13l5 1l1 3l18 19l11 18q11 3 19 14l14 29l-2 31l10 4v3l-6 18l1 4q-7 11 -7 17q0 11 12 27v-3
l4 10l1 4v-3q8 20 40 21l32 -31l3 -26l10 -17l-6 -16l1 -7v-5q-2 -3 -5 -9l3 -6v-16l-4 -16l4 -22v-16l3 -7l-2 -19zM470 559l-13 -28l-7 -2l-1 -4l-8 -4q-5 -7 -8 -7h-2l-14 -7l-4 4l-18 -6q-4 9 -20.5 18t-18.5 20l-4 22l6 6l-2 5l12 12v2l6 6l10 6q5 8 17 8q7 0 12 -2
l5 -3h18l12 -14l13 -6v-7l7 -4l-3 -11zM312 560l-6 -4l3 -11l-6 -3v-7l-14 -6l-12 -14l-17 -1l-9 -2l2 1q-9 -3 -15 -3q-10 0 -15 9q-2 0 -7 5l-7 4q2 2 2 3v2h-4l-4 2l-6 8l3 6l-8 11l5 16q8 17 24 24l4 4q4 4 13 11l16 -6l8 3l6 -6q9 0 16 -10l14 -7z" />
    <glyph glyph-name="Ydieresis" unicode="&#x178;" horiz-adv-x="681" 
d="M678 504q0 -6 -11 -15t-12 -20q-5 -9 -14 -16q-3 -12 -20 -15l-18 -14l-13 -24h-10q-7 -10 -18 -19q-3 -1 -17 -8l-21 -23l-28 -20l-9 -3l-9 -16l-22 -13l-11 -11l-10 -25l-37 -41l-12 -18l-5 -10l6 -10l-8 -18l5 -17l-8 -23l2 -14l7 -28q-15 -18 -15 -33q0 -7 2.5 -21
t2.5 -20l-8 -44l2 -25l-4 -9l7 -36l-8 -12l7 -18l-6 -9l4 -8q3 -6 3 -13v-5l-7 -25l6 -27l-9 -19l9 -12v-7q0 -40 -11.5 -56.5t-41.5 -16.5l-9 48l-9 29l-1 19l-13 8l9 20l-4 14l4 30l-6 32l3 25v7q-1 5 -1 8t1 7v6l-5 46l5 22l-3 24l6 40l-9 16l5 24l-1 19l-8 18q8 18 8 28
q0 6 -2 9l-4 18l-6 17l-10 8l-6 9q-17 9 -45 44l-16 10l-14 26l-40 36l-8 14l-16 20l-30 24v10l-15 10q-4 25 -21 25q-41 23 -42 70l5 26h12q7 6 22 6t42 -9l7 -16l16 -5l18 -28l26 -19l1 -9l21 -33l15 -11l55 -76l18 -23q36 -37 56 -60v3q0 12 12 25l-1 -5q7 16 17 26
q3 14 14 22q2 7 19 22l9 4l3 4q9 26 36 26l2 -4l9 17q12 3 10 3l15 18l7 13q17 22 43 26v12l7 8l10 8l6 21q3 -5 8 -5q9 0 16 24l30 13l16 16l28 -2l21 6l9 -21q3 -16 3 -26zM480 646l-13 -28l-7 -2l-1 -4l-8 -4q-5 -7 -8 -7h-2l-14 -7l-4 4l-18 -6q-4 9 -20.5 18t-18.5 20
l-4 22l6 6l-2 5l12 12v2l6 6l10 6q5 8 17 8q7 0 12 -2l5 -3h18l12 -14l13 -6v-7l7 -4l-3 -11zM322 647l-6 -4l3 -11l-6 -3v-7l-14 -6l-12 -14l-17 -1l-9 -2l2 1q-9 -3 -15 -3q-10 0 -15 9q-2 0 -7 5l-7 4q2 2 2 3v2h-4l-4 2l-6 8l3 6l-8 11l5 16q8 17 24 24l4 4q4 4 13 11
l16 -6l8 3l6 -6q9 0 16 -10l14 -7z" />
    <glyph glyph-name="fraction" unicode="&#x2044;" horiz-adv-x="286" 
d="M363 527q0 -11 -10 -22q-4 -17 -27 -23l-11 1l-12 -9l-7 -24l-10 -11l3 -11l-14 -6l-15 -15l-1 -9l-12 -11q-6 -7 -9 -20l-13 -14l-2 -17l-12 -11l-7 -16l-6 -18l-13 -12l-14 -32l-8 -5l-1 -20l-15 -10l3 -22h-5q-11 0 -14 -6q-1 -2 -3.5 -5.5t-4.5 -5.5q-3 -16 -17 -27
v-9q0 -10 -12 -22l-2 -8l-11 -4q0 -8 2 -10q-3 -3 -9 -15v-10l-8 -10l-8 -16l-8 -8l-2 -4l-1 -11l-17 -38l-7 -18l-35 -30q-5 -1 -14 -1q-19 0 -31 8l16 40l-1 11l11 12q3 15 12 27q4 12 5 18l14 20l6 13l1 14l11 17l8 9q1 8 10.5 19t10.5 18l6 14q20 47 33 60q3 4 7 4v17
l18 24l8 31l7 2l3 19l14 5l4 3l6 32q4 2 12 4q6 18 15 34l15 14q8 18 20 41l20 31q17 19 21 36l17 23q8 9 16 10h-3q13 4 26 4q18 0 28 -12q23 -10 23 -27z" />
    <glyph glyph-name="currency" unicode="&#xa4;" horiz-adv-x="606" 
d="M568 209l-40 -40l-100 100q-57 -42 -124 -42q-69 0 -125 42l-100 -100l-40 40l101 100q-41 52 -41 123q0 68 41 123l-101 101l40 39l100 -100q56 42 124 42q70 0 125 -42l100 100l40 -39l-100 -101q40 -53 40 -123t-40 -123zM452 433q0 61 -43.5 104.5t-104.5 43.5
t-104.5 -43.5t-43.5 -104.5q0 -62 43.5 -105.5t104.5 -43.5t104.5 43.5t43.5 105.5z" />
    <glyph glyph-name="guilsinglleft" unicode="&#x2039;" horiz-adv-x="312" 
d="M297 398l-11 -19q-2 -3 -2 -5q0 -1 1 -1v-2q-6 -10 -14 -18l-14 -2l-9 -10l-9 -4v-8l-15 -4l-2 -6l-22 -11l-9 -11l-13 -5l-2 -4l-16 -11l-12 -5l-14 -19l-15 -6l-10 -5q-4 -4 -6 -9l8 -20l8 -8l4 -19l9 -17l5 -15l13 -15l2 -4l14 -4l-3 -16q5 -9 14 -29l6 -5l16 -19
q11 -13 11 -35v-5l-44 -20l-20 28l-12 7q-18 18 -18 27v2l-13 21q-1 2 -8 11q-13 7 -19 22l1 -3l-3 13l-14 12l-1 5l-12 6l-1 3q-13 16 -14 26l-26 24l-3 8l-4 22l16 14l14 9l6 2l7 9l6 2l2 6l23 16l9 4v8l44 34l9 12l-3 -1q5 4 11 7q2 8 8 12l23 4l5 5l4 19l23 12q6 2 6 11
v5q24 13 39 13q26 0 46 -41z" />
    <glyph glyph-name="guilsinglright" unicode="&#x203a;" horiz-adv-x="312" 
d="M311 218l-20 -21l-14 -10l-7 -1l-7 -10l-6 -1l-2 -7l-23 -15l-9 -4v-8l-43 -35l-10 -12l3 1q-8 -6 -11 -7q-4 -7 -12 -10l-19 -5l-5 -6l-3 -18l-24 -13q-5 -3 -5 -9v-7q-24 -13 -40 -13q-24 0 -46 42l16 29l-6 -12q6 16 17 27l13 2l9 11l9 3v9l15 4l2 5l22 11l10 12l13 4
l1 4l17 12l11 5l14 18l16 7l9 5q5 5 7 8l-8 21l-9 8l-4 19l-8 17l-5 14l-14 15l-2 4l-15 4l4 16q-9 16 -14 30l-6 5l-16 18q-10 19 -10 36v4l44 21l19 -29l12 -7q18 -18 18 -27v-2l18 -27l4 -5q11 -5 18 -22l-1 4l4 -14l13 -11l2 -5l12 -8v-2q13 -14 14 -26l27 -23l2 -9z
" />
    <glyph glyph-name="fi" unicode="&#xfb01;" horiz-adv-x="739" 
d="M737 133q0 -11 -7 -22l-6 -4l-4 -14l-18 -6q-1 -13 -15 -17l-13 -13h-17l-9 -15l-1 -4q-17 -15 -36 -18l-11 -13q-14 -10 -32 -11l-3 -1l-6 -9h-21l-14 -11l-19 11l-25 19l-18 38l-1 51l-4 12l5 41l6 44l6 12l-3 21v23v6q-1 4 -1 6q0 13 10 23l3 3l-3 27l-19 -12l-37 -2
l-18 -8l-28 -7l-54 -8l-5 5q-8 -7 -21 -7h-5l2 -1l-6 1l-27 -11l-20 6q-6 -10 -20 -13l1 -7l-4 -14l6 -17l-13 -26l3 -40l-5 -14l3 -14l-10 -21l3 -13q1 -1 1 -5q0 -7 -3.5 -27t-3.5 -31v-12l9 -17l-6 -14l7 -20l-5 -16l11 -49l3 -54l12 -23l-5 -19q12 -21 12 -34v-3
q0 -2 1 -5v-5q0 -38 -44 -40l-8 16l-12 7l-2 18l-20 56v11q-4 18 -4 21q0 5 1 7l-3 17l3 17l-3 11v22l-10 64l2 1l-2 11l2 14l-7 13l6 10l-3 36l9 28l-6 23l8 16l-3 32l8 22v21q0 11 8 45l-4 -1l-13 4l-15 1l-28 -5l-17 4l-29 -6l-10 2q-5 -1 -12 -1q-43 18 -47 31l-5 17
q12 38 34 38q6 0 9 -1h6l21 -6l20 1l38 -2l30 7l22 -2h9l3 12l2 30l5 11l-3 20q0 11 8 19q0 2 -1 11l11 12l5 31l4 4l-3 13q12 14 12 23q0 -1 -1 6q0 3 5 16l10 31l4 -2q1 16 4 28l2 -4v3q0 16 14 24l6 10l12 28h2q11 0 11 13v4l28 10h8q16 8 29 10l10 5l22 4l18 -2l21 3
l15 -9l18 -1l13 -11l4 -1q8 3 12 3q15 0 27 -23l13 -10l8 -21l14 -16q0 -5 2 -16.5t2 -17.5q0 -20 -29 -38l-29 3l-25 17l-12 21l-2 10v4l-3 6l-33 22l-21 2l-9 -5l-33 -7q-5 -16 -25 -18q-15 -15 -38 -83l-3 -1l-4 -10l-5 -10l7 -19l-14 -18l-4 -15l-4 -9l1 -14l-14 -35
q1 -4 1 -12q0 -11 -4 -19t-7 -18q6 2 16 4l6 -1q2 1 9 3h5q4 0 15 -1t17 -1q12 4 18 4l20 2l21 9l24 -4l19 12q45 5 58 12q5 5 10 8h4q15 0 20 13l19 -7q4 4 4 11h29l18 -29l-12 -30v-19l-1 -13l6 -14v-2q0 -7 -12 -31l4 -13l-12 -39q-1 -7 -5 -38v-25l-6 -15l2 -10l-3 -23
l3 -27l2 -4l23 2l19 15l17 6l14 13l4 -2q9 5 23 11l10 7l5 -1l12 13l15 8l14 23l34 -7q14 -12 14 -26z" />
    <glyph glyph-name="fl" unicode="&#xfb02;" horiz-adv-x="732" 
d="M734 103q0 -18 -9 -24q-4 -7 -15 -12q-6 -17 -25 -30l-21 -22l-17 -5l-13 -10l-8 -2l-4 -4q-13 -10 -37 -13q-7 -6 -17 -6q-6 0 -9 1l-3 1q-5 -1 -13 -4t-11 -3q-21 0 -27 6l-14 15l-6 16q-8 11 -12 29l-5 17l-7 19l3 28l-2 27q5 10 5 16q0 7 -8 12q0 33 3 55q-3 8 -3 15
q0 3 2 13l1 29l-2 19l4 11l-15 21l10 16v35l3 33l-3 30l8 44l-3 6l-2 34l4 17l-5 15l-5 27q-9 14 -16 23l-2 4l-6 13l-4 -1l-8 4q0 3 3 9l-20 -8l-8 4l-6 1l-13 -8l-21 6l-7 -3q-13 -16 -26 -17l1 -2q-9 -19 -22 -30q-1 -9 -16 -51l-5 -14l-5 -7l9 -16l-18 -17l-4 -20l-4 -8
l1 -14l-14 -36q0 -10 2 -20q-5 -10 -12 -27q6 3 16 3l6 -1q2 1 9 3h4q5 0 16 -1t17 -1q8 3 16 3q3 0 13 -2l-2 2l9 -4q16 4 25 4q6 0 13 -4h9l13 -3q12 4 15 4q21 0 21 -30q0 -10 -3 -22l-38 -12l-23 1l-10 2q-11 -3 -37 -7l-5 5q-7 -7 -19 -7h-11l-4 1l-19 -12l-25 4
q-8 -9 -19 -12l1 -6l-4 -14l6 -17l-13 -26l3 -40l-5 -14l3 -14l-10 -22l3 -12q2 -4 2 -7t-4 -19.5t-4 -31.5q0 -23 9 -33l-6 -15l7 -20l-5 -16l11 -49l3 -54l12 -19l-5 -23q11 -17 12 -36q3 -11 3 -16q0 -30 -45 -37l-9 18l-12 7l-2 18l-20 56v11q-4 18 -4 21q0 5 1 7l-3 17
l3 17l-3 11v22l-10 63l2 2l-2 11l2 14l-7 13l6 11l-2 32l6 21l-3 28l7 21l-3 31l4 12q2 17 12 76h-4l-13 4h-7q-4 -1 -6 -1q-5 0 -13 2l-16 -5l-18 4l-29 -6l-13 3q-48 2 -56 29l-5 17q11 38 39 38h7q5 -1 8 -1l10 -7l25 2l39 -2l28 6l24 -1l9 -1l3 13l2 29l5 12l-3 20
q0 11 8 19l-1 11l11 12l5 30l4 5l-3 13q13 17 13 24l-1 8l14 43l4 -1q1 16 4 28l2 -5v3q0 17 14 25l6 9l12 29h2q11 0 11 13v4l28 10h8q13 4 27 4h7l5 2l22 5l26 -6q2 -1 8 -3q10 4 15 4q16 0 31.5 -9t19.5 -23l4 -4l9 15l26 16l22 -12l17 -7l5 -36q-3 -38 -21 -56
q7 -10 7 -17q0 -13 -9 -31l2 -18l6 -18l-7 -23q2 -10 2 -15q0 -9 -3 -18l-11 -5v-10l-5 1l12 -18l-2 -7q2 -10 2 -15q0 -9 -3 -18l1 -8l-4 -29l9 -23l-7 -24l5 -19l-3 -45l4 -5l-4 -23q2 -8 2 -25q0 -19 -4 -34l2 -15v-19l-4 -11l6 -4v-4q0 -12 8 -23l9 -9h6q12 5 15.5 6
t19.5 3l24 15q8 14 23 20q7 10 23 16q5 11 13 15q11 13 25 13q35 0 35 -31z" />
    </font>
</defs>
</svg>
